<svg width="220" height="149" viewBox="0 0 220 149" fill="none" xmlns="http://www.w3.org/2000/svg">
<rect width="220" height="149" rx="4" fill="white" fill-opacity="0.8" style="fill:white;fill-opacity:0.8;"/>
<path d="M16.8395 15.0923H15.7315C15.6889 14.8556 15.6096 14.6473 15.4936 14.4673C15.3776 14.2874 15.2356 14.1347 15.0675 14.0092C14.8994 13.8838 14.7112 13.7891 14.5028 13.7251C14.2969 13.6612 14.0779 13.6293 13.8459 13.6293C13.4268 13.6293 13.0516 13.7346 12.7202 13.9453C12.3911 14.156 12.1307 14.465 11.9389 14.8722C11.7495 15.2794 11.6548 15.7765 11.6548 16.3636C11.6548 16.9555 11.7495 17.455 11.9389 17.8622C12.1307 18.2694 12.3923 18.5772 12.7237 18.7855C13.0552 18.9938 13.428 19.098 13.8423 19.098C14.072 19.098 14.2898 19.0672 14.4957 19.0057C14.7041 18.9418 14.8923 18.8482 15.0604 18.7251C15.2285 18.602 15.3705 18.4517 15.4865 18.2741C15.6049 18.0942 15.6866 17.8883 15.7315 17.6562L16.8395 17.6598C16.7803 18.0173 16.6655 18.3464 16.495 18.647C16.3269 18.9453 16.1103 19.2034 15.8452 19.4212C15.5824 19.6366 15.2817 19.8035 14.9432 19.9219C14.6046 20.0402 14.2353 20.0994 13.8352 20.0994C13.2055 20.0994 12.6444 19.9503 12.152 19.652C11.6596 19.3513 11.2713 18.9216 10.9872 18.3629C10.7055 17.8042 10.5646 17.1378 10.5646 16.3636C10.5646 15.5871 10.7067 14.9207 10.9908 14.3643C11.2749 13.8056 11.6631 13.3771 12.1555 13.0788C12.648 12.7782 13.2079 12.6278 13.8352 12.6278C14.2211 12.6278 14.581 12.6835 14.9148 12.7947C15.2509 12.9036 15.5528 13.0646 15.8203 13.2777C16.0878 13.4884 16.3092 13.7464 16.4844 14.0518C16.6596 14.3549 16.7779 14.7017 16.8395 15.0923ZM20.1649 20.1101C19.6535 20.1101 19.2073 19.9929 18.8261 19.7585C18.4449 19.5241 18.149 19.1963 17.9383 18.7749C17.7276 18.3535 17.6223 17.861 17.6223 17.2976C17.6223 16.7318 17.7276 16.237 17.9383 15.8132C18.149 15.3894 18.4449 15.0604 18.8261 14.826C19.2073 14.5916 19.6535 14.4744 20.1649 14.4744C20.6762 14.4744 21.1225 14.5916 21.5037 14.826C21.8848 15.0604 22.1807 15.3894 22.3914 15.8132C22.6021 16.237 22.7075 16.7318 22.7075 17.2976C22.7075 17.861 22.6021 18.3535 22.3914 18.7749C22.1807 19.1963 21.8848 19.5241 21.5037 19.7585C21.1225 19.9929 20.6762 20.1101 20.1649 20.1101ZM20.1684 19.2188C20.4999 19.2188 20.7745 19.1312 20.9923 18.956C21.2101 18.7808 21.3711 18.5476 21.4752 18.2564C21.5818 17.9652 21.6351 17.6444 21.6351 17.294C21.6351 16.946 21.5818 16.6264 21.4752 16.3352C21.3711 16.0417 21.2101 15.8061 20.9923 15.6286C20.7745 15.451 20.4999 15.3622 20.1684 15.3622C19.8346 15.3622 19.5576 15.451 19.3375 15.6286C19.1197 15.8061 18.9575 16.0417 18.851 16.3352C18.7468 16.6264 18.6947 16.946 18.6947 17.294C18.6947 17.6444 18.7468 17.9652 18.851 18.2564C18.9575 18.5476 19.1197 18.7808 19.3375 18.956C19.5576 19.1312 19.8346 19.2188 20.1684 19.2188ZM27.78 15.8771L26.8177 16.0476C26.7774 15.9245 26.7135 15.8073 26.6259 15.696C26.5407 15.5848 26.4247 15.4936 26.2779 15.4226C26.1311 15.3516 25.9477 15.3161 25.7275 15.3161C25.4268 15.3161 25.1759 15.3835 24.9746 15.5185C24.7734 15.651 24.6728 15.8227 24.6728 16.0334C24.6728 16.2157 24.7403 16.3625 24.8752 16.4737C25.0102 16.585 25.228 16.6761 25.5286 16.7472L26.3951 16.946C26.897 17.062 27.271 17.2408 27.5173 17.4822C27.7635 17.7237 27.8866 18.0374 27.8866 18.4233C27.8866 18.75 27.7919 19.0412 27.6025 19.2969C27.4155 19.5502 27.1539 19.7491 26.8177 19.8935C26.4839 20.0379 26.0968 20.1101 25.6565 20.1101C25.0457 20.1101 24.5473 19.9799 24.1614 19.7195C23.7755 19.4567 23.5388 19.0838 23.4512 18.6009L24.4775 18.4446C24.5414 18.7121 24.6728 18.9145 24.8717 19.0518C25.0705 19.1868 25.3298 19.2543 25.6494 19.2543C25.9974 19.2543 26.2755 19.1821 26.4839 19.0376C26.6922 18.8909 26.7964 18.7121 26.7964 18.5014C26.7964 18.331 26.7325 18.1877 26.6046 18.0717C26.4791 17.9557 26.2862 17.8681 26.0258 17.8089L25.1025 17.6065C24.5935 17.4905 24.2171 17.3059 23.9732 17.0526C23.7317 16.7992 23.611 16.4785 23.611 16.0902C23.611 15.7682 23.701 15.4865 23.8809 15.245C24.0608 15.0036 24.3094 14.8153 24.6266 14.6804C24.9439 14.5431 25.3073 14.4744 25.7168 14.4744C26.3063 14.4744 26.7703 14.6023 27.1089 14.858C27.4474 15.1113 27.6711 15.451 27.78 15.8771ZM31.4002 14.5455V15.3977H28.4208V14.5455H31.4002ZM29.2198 13.2386H30.2816V18.3984C30.2816 18.6044 30.3123 18.7595 30.3739 18.8636C30.4355 18.9654 30.5148 19.0353 30.6118 19.0732C30.7113 19.1087 30.819 19.1264 30.935 19.1264C31.0202 19.1264 31.0948 19.1205 31.1587 19.1087C31.2226 19.0968 31.2723 19.0874 31.3078 19.0803L31.4996 19.9574C31.4381 19.9811 31.3505 20.0047 31.2368 20.0284C31.1232 20.0545 30.9811 20.0687 30.8107 20.071C30.5313 20.0758 30.2709 20.026 30.0294 19.9219C29.788 19.8177 29.5926 19.6567 29.4435 19.4389C29.2944 19.2211 29.2198 18.9477 29.2198 18.6186V13.2386ZM38.873 14.6378C38.8352 14.3016 38.6789 14.0412 38.4043 13.8565C38.1297 13.6695 37.784 13.576 37.3674 13.576C37.0691 13.576 36.811 13.6233 36.5932 13.718C36.3754 13.8104 36.2061 13.9382 36.0854 14.1016C35.967 14.2625 35.9078 14.446 35.9078 14.652C35.9078 14.8248 35.9481 14.974 36.0286 15.0994C36.1114 15.2249 36.2192 15.3303 36.3517 15.4155C36.4867 15.4983 36.6311 15.5682 36.785 15.625C36.9389 15.6795 37.0868 15.7244 37.2289 15.7599L37.9391 15.9446C38.1711 16.0014 38.409 16.0784 38.6529 16.1754C38.8967 16.2725 39.1228 16.4003 39.3311 16.5589C39.5395 16.7176 39.7076 16.9141 39.8354 17.1484C39.9656 17.3828 40.0307 17.6634 40.0307 17.9901C40.0307 18.402 39.9242 18.7678 39.7111 19.0874C39.5004 19.407 39.1938 19.6591 38.7914 19.8438C38.3913 20.0284 37.9071 20.1207 37.339 20.1207C36.7944 20.1207 36.3233 20.0343 35.9256 19.8615C35.5279 19.6887 35.2166 19.4437 34.9917 19.1264C34.7667 18.8068 34.6425 18.428 34.6188 17.9901H35.7196C35.7409 18.2528 35.8262 18.4718 35.9753 18.647C36.1268 18.8198 36.3198 18.9489 36.5542 19.0341C36.7909 19.117 37.0501 19.1584 37.3319 19.1584C37.642 19.1584 37.9178 19.1098 38.1593 19.0128C38.4031 18.9134 38.5949 18.776 38.7346 18.6009C38.8742 18.4233 38.9441 18.2161 38.9441 17.9794C38.9441 17.764 38.8825 17.5876 38.7594 17.4503C38.6387 17.313 38.4741 17.1993 38.2658 17.1094C38.0598 17.0194 37.8266 16.9401 37.5662 16.8714L36.7069 16.6371C36.1245 16.4785 35.6628 16.2453 35.3219 15.9375C34.9834 15.6297 34.8141 15.2225 34.8141 14.7159C34.8141 14.2969 34.9277 13.9311 35.155 13.6186C35.3823 13.3061 35.69 13.0634 36.0783 12.8906C36.4666 12.7154 36.9045 12.6278 37.3922 12.6278C37.8846 12.6278 38.3191 12.7143 38.6955 12.8871C39.0743 13.0599 39.3726 13.2978 39.5904 13.6009C39.8082 13.9015 39.9218 14.2472 39.9313 14.6378H38.873ZM42.6441 20.1207C42.2985 20.1207 41.986 20.0568 41.7066 19.929C41.4272 19.7988 41.2059 19.6106 41.0425 19.3643C40.8816 19.1181 40.8011 18.8163 40.8011 18.4588C40.8011 18.151 40.8603 17.8977 40.9786 17.6989C41.097 17.5 41.2568 17.3426 41.458 17.2266C41.6593 17.1106 41.8842 17.023 42.1327 16.9638C42.3813 16.9046 42.6346 16.8596 42.8927 16.8288C43.2194 16.791 43.4845 16.7602 43.6881 16.7365C43.8917 16.7105 44.0397 16.669 44.132 16.6122C44.2244 16.5554 44.2705 16.4631 44.2705 16.3352V16.3104C44.2705 16.0002 44.1829 15.7599 44.0077 15.5895C43.8349 15.419 43.5769 15.3338 43.2336 15.3338C42.8761 15.3338 42.5944 15.4131 42.3884 15.5717C42.1848 15.728 42.044 15.902 41.9658 16.0938L40.968 15.8665C41.0863 15.535 41.2592 15.2675 41.4864 15.0639C41.7161 14.858 41.98 14.7088 42.2783 14.6165C42.5766 14.5218 42.8903 14.4744 43.2194 14.4744C43.4372 14.4744 43.668 14.5005 43.9119 14.5526C44.1581 14.6023 44.3877 14.6946 44.6008 14.8295C44.8162 14.9645 44.9926 15.1574 45.1299 15.4084C45.2672 15.657 45.3359 15.9801 45.3359 16.3778V20H44.2989V19.2543H44.2563C44.1877 19.3916 44.0847 19.5265 43.9474 19.6591C43.8101 19.7917 43.6337 19.9018 43.4183 19.9893C43.2028 20.0769 42.9448 20.1207 42.6441 20.1207ZM42.8749 19.2685C43.1685 19.2685 43.4194 19.2105 43.6278 19.0945C43.8385 18.9785 43.9983 18.8269 44.1072 18.6399C44.2184 18.4505 44.2741 18.2481 44.2741 18.0327V17.3295C44.2362 17.3674 44.1628 17.4029 44.0539 17.4361C43.9474 17.4669 43.8254 17.4941 43.6881 17.5178C43.5508 17.5391 43.4171 17.5592 43.2869 17.5781C43.1567 17.5947 43.0478 17.6089 42.9602 17.6207C42.7542 17.6468 42.566 17.6906 42.3955 17.7521C42.2274 17.8137 42.0925 17.9025 41.9907 18.0185C41.8913 18.1321 41.8415 18.2836 41.8415 18.473C41.8415 18.7358 41.9386 18.9347 42.1327 19.0696C42.3269 19.2022 42.5743 19.2685 42.8749 19.2685ZM51.021 14.5455L49.043 20H47.9066L45.9251 14.5455H47.065L48.4464 18.7429H48.5032L49.8811 14.5455H51.021ZM51.8189 20V14.5455H52.8806V20H51.8189ZM52.3551 13.7038C52.1704 13.7038 52.0118 13.6423 51.8792 13.5192C51.749 13.3937 51.6839 13.2446 51.6839 13.0717C51.6839 12.8965 51.749 12.7474 51.8792 12.6243C52.0118 12.4988 52.1704 12.4361 52.3551 12.4361C52.5397 12.4361 52.6972 12.4988 52.8274 12.6243C52.96 12.7474 53.0262 12.8965 53.0262 13.0717C53.0262 13.2446 52.96 13.3937 52.8274 13.5192C52.6972 13.6423 52.5397 13.7038 52.3551 13.7038ZM55.1709 16.7614V20H54.1091V14.5455H55.1283V15.4332H55.1957C55.3212 15.1444 55.5177 14.9124 55.7852 14.7372C56.0551 14.562 56.3948 14.4744 56.8044 14.4744C57.1761 14.4744 57.5016 14.5526 57.781 14.7088C58.0603 14.8627 58.2769 15.0923 58.4308 15.3977C58.5847 15.7031 58.6616 16.0807 58.6616 16.5305V20H57.5999V16.6584C57.5999 16.263 57.4969 15.9541 57.2909 15.7315C57.0849 15.5066 56.802 15.3942 56.4422 15.3942C56.196 15.3942 55.977 15.4474 55.7852 15.554C55.5958 15.6605 55.4455 15.8168 55.3342 16.0227C55.2253 16.2263 55.1709 16.4725 55.1709 16.7614ZM62.1726 22.1591C61.7393 22.1591 61.3665 22.1023 61.054 21.9886C60.7438 21.875 60.4905 21.7247 60.294 21.5376C60.0975 21.3506 59.9508 21.1458 59.8537 20.9233L60.7663 20.5469C60.8303 20.651 60.9155 20.7611 61.022 20.8771C61.1309 20.9955 61.2777 21.0961 61.4624 21.179C61.6494 21.2618 61.8897 21.3033 62.1832 21.3033C62.5857 21.3033 62.9183 21.205 63.1811 21.0085C63.4439 20.8144 63.5753 20.5043 63.5753 20.0781V19.0057H63.5078C63.4439 19.1217 63.3516 19.2507 63.2308 19.3928C63.1125 19.5348 62.9491 19.6579 62.7408 19.7621C62.5324 19.8662 62.2614 19.9183 61.9276 19.9183C61.4967 19.9183 61.1084 19.8177 60.7628 19.6165C60.4195 19.4129 60.1473 19.1134 59.946 18.718C59.7472 18.3203 59.6477 17.8314 59.6477 17.2514C59.6477 16.6714 59.746 16.1742 59.9425 15.7599C60.1413 15.3456 60.4136 15.0284 60.7592 14.8082C61.1049 14.5857 61.4967 14.4744 61.9347 14.4744C62.2732 14.4744 62.5466 14.5312 62.755 14.6449C62.9633 14.7562 63.1255 14.8864 63.2415 15.0355C63.3598 15.1847 63.451 15.3161 63.5149 15.4297H63.593V14.5455H64.6335V20.1207C64.6335 20.5895 64.5246 20.9742 64.3068 21.2749C64.089 21.5755 63.7943 21.7981 63.4226 21.9425C63.0533 22.0869 62.6366 22.1591 62.1726 22.1591ZM62.1619 19.0376C62.4673 19.0376 62.7254 18.9666 62.9361 18.8246C63.1491 18.6802 63.3101 18.4742 63.419 18.2067C63.5303 17.9368 63.5859 17.6136 63.5859 17.2372C63.5859 16.8703 63.5315 16.5471 63.4226 16.2678C63.3137 15.9884 63.1539 15.7706 62.9432 15.6143C62.7325 15.4557 62.4721 15.3764 62.1619 15.3764C61.8423 15.3764 61.576 15.4593 61.3629 15.625C61.1499 15.7884 60.9889 16.0109 60.88 16.2926C60.7734 16.5743 60.7202 16.8892 60.7202 17.2372C60.7202 17.5947 60.7746 17.9084 60.8835 18.1783C60.9924 18.4482 61.1534 18.6589 61.3665 18.8104C61.5819 18.9619 61.8471 19.0376 62.1619 19.0376ZM69.9449 15.8771L68.9825 16.0476C68.9423 15.9245 68.8784 15.8073 68.7908 15.696C68.7055 15.5848 68.5895 15.4936 68.4428 15.4226C68.296 15.3516 68.1125 15.3161 67.8923 15.3161C67.5917 15.3161 67.3407 15.3835 67.1395 15.5185C66.9383 15.651 66.8376 15.8227 66.8376 16.0334C66.8376 16.2157 66.9051 16.3625 67.0401 16.4737C67.175 16.585 67.3928 16.6761 67.6935 16.7472L68.5599 16.946C69.0618 17.062 69.4359 17.2408 69.6821 17.4822C69.9283 17.7237 70.0514 18.0374 70.0514 18.4233C70.0514 18.75 69.9567 19.0412 69.7673 19.2969C69.5803 19.5502 69.3187 19.7491 68.9825 19.8935C68.6487 20.0379 68.2616 20.1101 67.8213 20.1101C67.2105 20.1101 66.7122 19.9799 66.3263 19.7195C65.9404 19.4567 65.7036 19.0838 65.6161 18.6009L66.6423 18.4446C66.7062 18.7121 66.8376 18.9145 67.0365 19.0518C67.2354 19.1868 67.4946 19.2543 67.8142 19.2543C68.1622 19.2543 68.4404 19.1821 68.6487 19.0376C68.8571 18.8909 68.9612 18.7121 68.9612 18.5014C68.9612 18.331 68.8973 18.1877 68.7695 18.0717C68.644 17.9557 68.451 17.8681 68.1906 17.8089L67.2673 17.6065C66.7583 17.4905 66.3819 17.3059 66.1381 17.0526C65.8966 16.7992 65.7759 16.4785 65.7759 16.0902C65.7759 15.7682 65.8658 15.4865 66.0457 15.245C66.2257 15.0036 66.4742 14.8153 66.7915 14.6804C67.1087 14.5431 67.4721 14.4744 67.8817 14.4744C68.4712 14.4744 68.9352 14.6023 69.2737 14.858C69.6123 15.1113 69.836 15.451 69.9449 15.8771Z" fill="black" style="fill:black;fill-opacity:1;"/>
<path opacity="0.6" d="M11.7788 37.956V37.4489L14.0161 33.9091H14.384V34.6946H14.1354L12.445 37.3693V37.4091H15.4578V37.956H11.7788ZM14.1751 39V37.8018V37.5657V33.9091H14.7618V39H14.1751ZM17.9099 39.0696C17.5354 39.0696 17.2163 38.9677 16.9529 38.7638C16.6894 38.5584 16.488 38.2609 16.3488 37.8714C16.2096 37.4804 16.14 37.008 16.14 36.4545C16.14 35.9044 16.2096 35.4345 16.3488 35.0451C16.4897 34.654 16.6918 34.3557 16.9553 34.1502C17.2205 33.9431 17.5387 33.8395 17.9099 33.8395C18.2811 33.8395 18.5984 33.9431 18.8619 34.1502C19.1271 34.3557 19.3293 34.654 19.4685 35.0451C19.6093 35.4345 19.6798 35.9044 19.6798 36.4545C19.6798 37.008 19.6102 37.4804 19.471 37.8714C19.3318 38.2609 19.1304 38.5584 18.8669 38.7638C18.6034 38.9677 18.2844 39.0696 17.9099 39.0696ZM17.9099 38.5227C18.2811 38.5227 18.5694 38.3437 18.7749 37.9858C18.9804 37.6278 19.0832 37.1174 19.0832 36.4545C19.0832 36.0137 19.0359 35.6384 18.9415 35.3285C18.8487 35.0186 18.7145 34.7824 18.5388 34.62C18.3648 34.4576 18.1551 34.3764 17.9099 34.3764C17.542 34.3764 17.2545 34.5579 17.0473 34.9208C16.8402 35.2821 16.7366 35.7933 16.7366 36.4545C16.7366 36.8954 16.783 37.2699 16.8758 37.5781C16.9686 37.8864 17.102 38.1209 17.276 38.2816C17.4517 38.4424 17.663 38.5227 17.9099 38.5227ZM22.1449 39.0696C21.7704 39.0696 21.4513 38.9677 21.1879 38.7638C20.9244 38.5584 20.723 38.2609 20.5838 37.8714C20.4446 37.4804 20.375 37.008 20.375 36.4545C20.375 35.9044 20.4446 35.4345 20.5838 35.0451C20.7247 34.654 20.9268 34.3557 21.1903 34.1502C21.4555 33.9431 21.7737 33.8395 22.1449 33.8395C22.5161 33.8395 22.8334 33.9431 23.0969 34.1502C23.3621 34.3557 23.5643 34.654 23.7035 35.0451C23.8443 35.4345 23.9148 35.9044 23.9148 36.4545C23.9148 37.008 23.8452 37.4804 23.706 37.8714C23.5668 38.2609 23.3654 38.5584 23.1019 38.7638C22.8384 38.9677 22.5194 39.0696 22.1449 39.0696ZM22.1449 38.5227C22.5161 38.5227 22.8044 38.3437 23.0099 37.9858C23.2154 37.6278 23.3182 37.1174 23.3182 36.4545C23.3182 36.0137 23.2709 35.6384 23.1765 35.3285C23.0837 35.0186 22.9495 34.7824 22.7738 34.62C22.5998 34.4576 22.3901 34.3764 22.1449 34.3764C21.777 34.3764 21.4895 34.5579 21.2823 34.9208C21.0752 35.2821 20.9716 35.7933 20.9716 36.4545C20.9716 36.8954 21.018 37.2699 21.1108 37.5781C21.2036 37.8864 21.337 38.1209 21.511 38.2816C21.6867 38.4424 21.898 38.5227 22.1449 38.5227ZM25.2762 37.608L25.2662 36.8821H25.3856L27.056 35.1818H27.7819L26.002 36.9815H25.9523L25.2762 37.608ZM24.7293 39V33.9091H25.316V39H24.7293ZM27.1555 39L25.664 37.1108L26.0816 36.7031L27.9012 39H27.1555Z" fill="black" fill-opacity="0.9" style="fill:black;fill-opacity:0.9;"/>
<line x1="34" y1="36.25" x2="210" y2="36.25" stroke="black" stroke-opacity="0.15" style="stroke:black;stroke-opacity:0.15;" stroke-width="0.5"/>
<path opacity="0.6" d="M13.6525 61.5696C13.3244 61.5696 13.0319 61.5133 12.775 61.4006C12.5198 61.2879 12.3168 61.1313 12.166 60.9308C12.0169 60.7286 11.9357 60.4941 11.9224 60.2273H12.5488C12.5621 60.3913 12.6184 60.533 12.7179 60.6523C12.8173 60.77 12.9474 60.8612 13.1081 60.9258C13.2689 60.9904 13.447 61.0227 13.6426 61.0227C13.8613 61.0227 14.0552 60.9846 14.2242 60.9084C14.3933 60.8321 14.5259 60.7261 14.622 60.5902C14.7181 60.4543 14.7661 60.2969 14.7661 60.1179C14.7661 59.9306 14.7197 59.7657 14.6269 59.6232C14.5341 59.479 14.3982 59.3664 14.2193 59.2852C14.0403 59.204 13.8215 59.1634 13.563 59.1634H13.1554V58.6165H13.563C13.7652 58.6165 13.9425 58.58 14.095 58.5071C14.2491 58.4342 14.3692 58.3314 14.4554 58.1989C14.5433 58.0663 14.5872 57.9105 14.5872 57.7315C14.5872 57.5592 14.5491 57.4092 14.4728 57.2816C14.3966 57.154 14.2889 57.0546 14.1497 56.9833C14.0121 56.9121 13.8497 56.8764 13.6625 56.8764C13.4868 56.8764 13.3211 56.9087 13.1653 56.9734C13.0112 57.0363 12.8852 57.1283 12.7875 57.2493C12.6897 57.3686 12.6366 57.5128 12.6284 57.6818H12.0318C12.0417 57.415 12.1221 57.1813 12.2729 56.9808C12.4237 56.7786 12.6209 56.6212 12.8645 56.5085C13.1098 56.3958 13.3791 56.3395 13.6724 56.3395C13.9873 56.3395 14.2574 56.4033 14.4828 56.5309C14.7081 56.6568 14.8813 56.8234 15.0023 57.0305C15.1233 57.2377 15.1838 57.4614 15.1838 57.7017C15.1838 57.9884 15.1084 58.2328 14.9576 58.435C14.8084 58.6372 14.6054 58.7772 14.3485 58.8551V58.8949C14.67 58.9479 14.9211 59.0846 15.1017 59.305C15.2824 59.5238 15.3727 59.7947 15.3727 60.1179C15.3727 60.3946 15.2973 60.6432 15.1465 60.8636C14.9973 61.0824 14.7935 61.2547 14.535 61.3807C14.2764 61.5066 13.9823 61.5696 13.6525 61.5696ZM17.9099 61.5696C17.5354 61.5696 17.2163 61.4677 16.9529 61.2638C16.6894 61.0584 16.488 60.7609 16.3488 60.3714C16.2096 59.9804 16.14 59.508 16.14 58.9545C16.14 58.4044 16.2096 57.9345 16.3488 57.5451C16.4897 57.154 16.6918 56.8557 16.9553 56.6502C17.2205 56.4431 17.5387 56.3395 17.9099 56.3395C18.2811 56.3395 18.5984 56.4431 18.8619 56.6502C19.1271 56.8557 19.3293 57.154 19.4685 57.5451C19.6093 57.9345 19.6798 58.4044 19.6798 58.9545C19.6798 59.508 19.6102 59.9804 19.471 60.3714C19.3318 60.7609 19.1304 61.0584 18.8669 61.2638C18.6034 61.4677 18.2844 61.5696 17.9099 61.5696ZM17.9099 61.0227C18.2811 61.0227 18.5694 60.8437 18.7749 60.4858C18.9804 60.1278 19.0832 59.6174 19.0832 58.9545C19.0832 58.5137 19.0359 58.1384 18.9415 57.8285C18.8487 57.5186 18.7145 57.2824 18.5388 57.12C18.3648 56.9576 18.1551 56.8764 17.9099 56.8764C17.542 56.8764 17.2545 57.0579 17.0473 57.4208C16.8402 57.7821 16.7366 58.2933 16.7366 58.9545C16.7366 59.3954 16.783 59.7699 16.8758 60.0781C16.9686 60.3864 17.102 60.6209 17.276 60.7816C17.4517 60.9424 17.663 61.0227 17.9099 61.0227ZM22.1449 61.5696C21.7704 61.5696 21.4513 61.4677 21.1879 61.2638C20.9244 61.0584 20.723 60.7609 20.5838 60.3714C20.4446 59.9804 20.375 59.508 20.375 58.9545C20.375 58.4044 20.4446 57.9345 20.5838 57.5451C20.7247 57.154 20.9268 56.8557 21.1903 56.6502C21.4555 56.4431 21.7737 56.3395 22.1449 56.3395C22.5161 56.3395 22.8334 56.4431 23.0969 56.6502C23.3621 56.8557 23.5643 57.154 23.7035 57.5451C23.8443 57.9345 23.9148 58.4044 23.9148 58.9545C23.9148 59.508 23.8452 59.9804 23.706 60.3714C23.5668 60.7609 23.3654 61.0584 23.1019 61.2638C22.8384 61.4677 22.5194 61.5696 22.1449 61.5696ZM22.1449 61.0227C22.5161 61.0227 22.8044 60.8437 23.0099 60.4858C23.2154 60.1278 23.3182 59.6174 23.3182 58.9545C23.3182 58.5137 23.2709 58.1384 23.1765 57.8285C23.0837 57.5186 22.9495 57.2824 22.7738 57.12C22.5998 56.9576 22.3901 56.8764 22.1449 56.8764C21.777 56.8764 21.4895 57.0579 21.2823 57.4208C21.0752 57.7821 20.9716 58.2933 20.9716 58.9545C20.9716 59.3954 21.018 59.7699 21.1108 60.0781C21.2036 60.3864 21.337 60.6209 21.511 60.7816C21.6867 60.9424 21.898 61.0227 22.1449 61.0227ZM25.2762 60.108L25.2662 59.3821H25.3856L27.056 57.6818H27.7819L26.002 59.4815H25.9523L25.2762 60.108ZM24.7293 61.5V56.4091H25.316V61.5H24.7293ZM27.1555 61.5L25.664 59.6108L26.0816 59.2031L27.9012 61.5H27.1555Z" fill="black" fill-opacity="0.9" style="fill:black;fill-opacity:0.9;"/>
<line x1="34" y1="58.75" x2="210" y2="58.75" stroke="black" stroke-opacity="0.15" style="stroke:black;stroke-opacity:0.15;" stroke-width="0.5"/>
<path opacity="0.6" d="M12.1511 84V83.5526L13.8315 81.7131C14.0287 81.4976 14.1911 81.3104 14.3187 81.1513C14.4463 80.9905 14.5408 80.8397 14.6021 80.6989C14.6651 80.5563 14.6965 80.4072 14.6965 80.2514C14.6965 80.0724 14.6535 79.9175 14.5673 79.7866C14.4828 79.6557 14.3668 79.5546 14.2193 79.4833C14.0718 79.4121 13.9061 79.3764 13.7221 79.3764C13.5266 79.3764 13.3559 79.417 13.21 79.4982C13.0659 79.5778 12.954 79.6896 12.8745 79.8338C12.7966 79.978 12.7576 80.147 12.7576 80.3409H12.171C12.171 80.0426 12.2398 79.7808 12.3773 79.5554C12.5148 79.33 12.7021 79.1544 12.9391 79.0284C13.1777 78.9025 13.4454 78.8395 13.742 78.8395C14.0403 78.8395 14.3046 78.9025 14.535 79.0284C14.7653 79.1544 14.946 79.3242 15.0769 79.538C15.2078 79.7518 15.2732 79.9896 15.2732 80.2514C15.2732 80.4387 15.2393 80.6218 15.1713 80.8008C15.105 80.9781 14.989 81.1761 14.8233 81.3949C14.6593 81.612 14.4314 81.8771 14.1397 82.1903L12.9963 83.4134V83.4531H15.3627V84H12.1511ZM17.9099 84.0696C17.5354 84.0696 17.2163 83.9677 16.9529 83.7638C16.6894 83.5584 16.488 83.2609 16.3488 82.8714C16.2096 82.4804 16.14 82.008 16.14 81.4545C16.14 80.9044 16.2096 80.4345 16.3488 80.0451C16.4897 79.654 16.6918 79.3557 16.9553 79.1502C17.2205 78.9431 17.5387 78.8395 17.9099 78.8395C18.2811 78.8395 18.5984 78.9431 18.8619 79.1502C19.1271 79.3557 19.3293 79.654 19.4685 80.0451C19.6093 80.4345 19.6798 80.9044 19.6798 81.4545C19.6798 82.008 19.6102 82.4804 19.471 82.8714C19.3318 83.2609 19.1304 83.5584 18.8669 83.7638C18.6034 83.9677 18.2844 84.0696 17.9099 84.0696ZM17.9099 83.5227C18.2811 83.5227 18.5694 83.3437 18.7749 82.9858C18.9804 82.6278 19.0832 82.1174 19.0832 81.4545C19.0832 81.0137 19.0359 80.6384 18.9415 80.3285C18.8487 80.0186 18.7145 79.7824 18.5388 79.62C18.3648 79.4576 18.1551 79.3764 17.9099 79.3764C17.542 79.3764 17.2545 79.5579 17.0473 79.9208C16.8402 80.2821 16.7366 80.7933 16.7366 81.4545C16.7366 81.8954 16.783 82.2699 16.8758 82.5781C16.9686 82.8864 17.102 83.1209 17.276 83.2816C17.4517 83.4424 17.663 83.5227 17.9099 83.5227ZM22.1449 84.0696C21.7704 84.0696 21.4513 83.9677 21.1879 83.7638C20.9244 83.5584 20.723 83.2609 20.5838 82.8714C20.4446 82.4804 20.375 82.008 20.375 81.4545C20.375 80.9044 20.4446 80.4345 20.5838 80.0451C20.7247 79.654 20.9268 79.3557 21.1903 79.1502C21.4555 78.9431 21.7737 78.8395 22.1449 78.8395C22.5161 78.8395 22.8334 78.9431 23.0969 79.1502C23.3621 79.3557 23.5643 79.654 23.7035 80.0451C23.8443 80.4345 23.9148 80.9044 23.9148 81.4545C23.9148 82.008 23.8452 82.4804 23.706 82.8714C23.5668 83.2609 23.3654 83.5584 23.1019 83.7638C22.8384 83.9677 22.5194 84.0696 22.1449 84.0696ZM22.1449 83.5227C22.5161 83.5227 22.8044 83.3437 23.0099 82.9858C23.2154 82.6278 23.3182 82.1174 23.3182 81.4545C23.3182 81.0137 23.2709 80.6384 23.1765 80.3285C23.0837 80.0186 22.9495 79.7824 22.7738 79.62C22.5998 79.4576 22.3901 79.3764 22.1449 79.3764C21.777 79.3764 21.4895 79.5579 21.2823 79.9208C21.0752 80.2821 20.9716 80.7933 20.9716 81.4545C20.9716 81.8954 21.018 82.2699 21.1108 82.5781C21.2036 82.8864 21.337 83.1209 21.511 83.2816C21.6867 83.4424 21.898 83.5227 22.1449 83.5227ZM25.2762 82.608L25.2662 81.8821H25.3856L27.056 80.1818H27.7819L26.002 81.9815H25.9523L25.2762 82.608ZM24.7293 84V78.9091H25.316V84H24.7293ZM27.1555 84L25.664 82.1108L26.0816 81.7031L27.9012 84H27.1555Z" fill="black" fill-opacity="0.9" style="fill:black;fill-opacity:0.9;"/>
<line x1="34" y1="81.25" x2="210" y2="81.25" stroke="black" stroke-opacity="0.15" style="stroke:black;stroke-opacity:0.15;" stroke-width="0.5"/>
<path opacity="0.6" d="M14.9252 101.409V106.5H14.3088V102.055H14.2789L13.036 102.881V102.254L14.3088 101.409H14.9252ZM17.9099 106.57C17.5354 106.57 17.2163 106.468 16.9529 106.264C16.6894 106.058 16.488 105.761 16.3488 105.371C16.2096 104.98 16.14 104.508 16.14 103.955C16.14 103.404 16.2096 102.935 16.3488 102.545C16.4897 102.154 16.6918 101.856 16.9553 101.65C17.2205 101.443 17.5387 101.339 17.9099 101.339C18.2811 101.339 18.5984 101.443 18.8619 101.65C19.1271 101.856 19.3293 102.154 19.4685 102.545C19.6093 102.935 19.6798 103.404 19.6798 103.955C19.6798 104.508 19.6102 104.98 19.471 105.371C19.3318 105.761 19.1304 106.058 18.8669 106.264C18.6034 106.468 18.2844 106.57 17.9099 106.57ZM17.9099 106.023C18.2811 106.023 18.5694 105.844 18.7749 105.486C18.9804 105.128 19.0832 104.617 19.0832 103.955C19.0832 103.514 19.0359 103.138 18.9415 102.828C18.8487 102.519 18.7145 102.282 18.5388 102.12C18.3648 101.958 18.1551 101.876 17.9099 101.876C17.542 101.876 17.2545 102.058 17.0473 102.421C16.8402 102.782 16.7366 103.293 16.7366 103.955C16.7366 104.395 16.783 104.77 16.8758 105.078C16.9686 105.386 17.102 105.621 17.276 105.782C17.4517 105.942 17.663 106.023 17.9099 106.023ZM22.1449 106.57C21.7704 106.57 21.4513 106.468 21.1879 106.264C20.9244 106.058 20.723 105.761 20.5838 105.371C20.4446 104.98 20.375 104.508 20.375 103.955C20.375 103.404 20.4446 102.935 20.5838 102.545C20.7247 102.154 20.9268 101.856 21.1903 101.65C21.4555 101.443 21.7737 101.339 22.1449 101.339C22.5161 101.339 22.8334 101.443 23.0969 101.65C23.3621 101.856 23.5643 102.154 23.7035 102.545C23.8443 102.935 23.9148 103.404 23.9148 103.955C23.9148 104.508 23.8452 104.98 23.706 105.371C23.5668 105.761 23.3654 106.058 23.1019 106.264C22.8384 106.468 22.5194 106.57 22.1449 106.57ZM22.1449 106.023C22.5161 106.023 22.8044 105.844 23.0099 105.486C23.2154 105.128 23.3182 104.617 23.3182 103.955C23.3182 103.514 23.2709 103.138 23.1765 102.828C23.0837 102.519 22.9495 102.282 22.7738 102.12C22.5998 101.958 22.3901 101.876 22.1449 101.876C21.777 101.876 21.4895 102.058 21.2823 102.421C21.0752 102.782 20.9716 103.293 20.9716 103.955C20.9716 104.395 21.018 104.77 21.1108 105.078C21.2036 105.386 21.337 105.621 21.511 105.782C21.6867 105.942 21.898 106.023 22.1449 106.023ZM25.2762 105.108L25.2662 104.382H25.3856L27.056 102.682H27.7819L26.002 104.482H25.9523L25.2762 105.108ZM24.7293 106.5V101.409H25.316V106.5H24.7293ZM27.1555 106.5L25.664 104.611L26.0816 104.203L27.9012 106.5H27.1555Z" fill="black" fill-opacity="0.9" style="fill:black;fill-opacity:0.9;"/>
<line x1="34" y1="103.75" x2="210" y2="103.75" stroke="black" stroke-opacity="0.15" style="stroke:black;stroke-opacity:0.15;" stroke-width="0.5"/>
<path opacity="0.6" d="M22.1449 129.07C21.7704 129.07 21.4513 128.968 21.1879 128.764C20.9244 128.558 20.723 128.261 20.5838 127.871C20.4446 127.48 20.375 127.008 20.375 126.455C20.375 125.904 20.4446 125.435 20.5838 125.045C20.7247 124.654 20.9268 124.356 21.1903 124.15C21.4555 123.943 21.7737 123.839 22.1449 123.839C22.5161 123.839 22.8334 123.943 23.0969 124.15C23.3621 124.356 23.5643 124.654 23.7035 125.045C23.8443 125.435 23.9148 125.904 23.9148 126.455C23.9148 127.008 23.8452 127.48 23.706 127.871C23.5668 128.261 23.3654 128.558 23.1019 128.764C22.8384 128.968 22.5194 129.07 22.1449 129.07ZM22.1449 128.523C22.5161 128.523 22.8044 128.344 23.0099 127.986C23.2154 127.628 23.3182 127.117 23.3182 126.455C23.3182 126.014 23.2709 125.638 23.1765 125.328C23.0837 125.019 22.9495 124.782 22.7738 124.62C22.5998 124.458 22.3901 124.376 22.1449 124.376C21.777 124.376 21.4895 124.558 21.2823 124.921C21.0752 125.282 20.9716 125.793 20.9716 126.455C20.9716 126.895 21.018 127.27 21.1108 127.578C21.2036 127.886 21.337 128.121 21.511 128.282C21.6867 128.442 21.898 128.523 22.1449 128.523ZM25.2762 127.608L25.2662 126.882H25.3856L27.056 125.182H27.7819L26.002 126.982H25.9523L25.2762 127.608ZM24.7293 129V123.909H25.316V129H24.7293ZM27.1555 129L25.664 127.111L26.0816 126.703L27.9012 129H27.1555Z" fill="black" fill-opacity="0.9" style="fill:black;fill-opacity:0.9;"/>
<line x1="34" y1="126.25" x2="210" y2="126.25" stroke="black" stroke-opacity="0.15" style="stroke:black;stroke-opacity:0.15;" stroke-width="0.5"/>
<rect x="46.0361" y="47" width="17.5" height="79" fill="#CAE0D4" style="fill:#CAE0D4;fill:color(display-p3 0.7922 0.8784 0.8314);fill-opacity:1;"/>
<rect x="68.5361" y="70" width="17.5" height="56" fill="#4E9970" style="fill:#4E9970;fill:color(display-p3 0.3059 0.6000 0.4392);fill-opacity:1;"/>
<path opacity="0.6" d="M56.5437 134.182C56.5139 133.93 56.3929 133.734 56.1808 133.595C55.9687 133.456 55.7085 133.386 55.4002 133.386C55.1749 133.386 54.9777 133.423 54.8086 133.496C54.6413 133.569 54.5103 133.669 54.4159 133.797C54.3231 133.924 54.2767 134.069 54.2767 134.232C54.2767 134.367 54.309 134.484 54.3736 134.582C54.4399 134.678 54.5244 134.759 54.6272 134.823C54.7299 134.886 54.8376 134.938 54.9503 134.98C55.063 135.02 55.1666 135.052 55.261 135.077L55.7781 135.216C55.9107 135.251 56.0582 135.299 56.2206 135.36C56.3846 135.421 56.5412 135.505 56.6904 135.611C56.8412 135.716 56.9655 135.85 57.0632 136.014C57.161 136.178 57.2099 136.379 57.2099 136.618C57.2099 136.893 57.1378 137.142 56.9936 137.364C56.8511 137.586 56.6423 137.762 56.3672 137.893C56.0938 138.024 55.7615 138.089 55.3704 138.089C55.0058 138.089 54.6901 138.031 54.4233 137.913C54.1582 137.795 53.9494 137.631 53.7969 137.421C53.6461 137.21 53.5608 136.966 53.5409 136.688H54.1772C54.1938 136.88 54.2584 137.039 54.3711 137.165C54.4855 137.289 54.6297 137.382 54.8037 137.443C54.9793 137.503 55.1682 137.533 55.3704 137.533C55.6057 137.533 55.817 137.495 56.0043 137.418C56.1916 137.34 56.3399 137.233 56.4493 137.095C56.5586 136.956 56.6133 136.794 56.6133 136.608C56.6133 136.439 56.5661 136.301 56.4716 136.195C56.3772 136.089 56.2529 136.003 56.0988 135.937C55.9446 135.871 55.7781 135.812 55.5991 135.763L54.9727 135.584C54.575 135.469 54.2601 135.306 54.0281 135.094C53.7961 134.882 53.6801 134.604 53.6801 134.261C53.6801 133.976 53.7571 133.728 53.9113 133.516C54.067 133.302 54.2758 133.136 54.5377 133.018C54.8012 132.899 55.0953 132.839 55.4201 132.839C55.7483 132.839 56.0399 132.898 56.2951 133.016C56.5503 133.132 56.7525 133.291 56.9017 133.493C57.0525 133.695 57.132 133.925 57.1403 134.182H56.5437ZM60.4102 136.439V134.182H60.9968V138H60.4102V137.354H60.3704C60.2809 137.548 60.1417 137.712 59.9528 137.848C59.7639 137.983 59.5253 138.05 59.2369 138.05C58.9983 138.05 58.7861 137.998 58.6005 137.893C58.4149 137.787 58.2691 137.628 58.163 137.416C58.057 137.202 58.0039 136.933 58.0039 136.608V134.182H58.5906V136.568C58.5906 136.847 58.6685 137.069 58.8243 137.234C58.9817 137.4 59.1822 137.483 59.4258 137.483C59.5717 137.483 59.72 137.446 59.8708 137.371C60.0232 137.297 60.1508 137.182 60.2536 137.028C60.358 136.874 60.4102 136.678 60.4102 136.439ZM61.9313 139.432V134.182H62.4981V134.788H62.5677C62.6108 134.722 62.6704 134.638 62.7467 134.535C62.8246 134.43 62.9356 134.338 63.0798 134.256C63.2256 134.174 63.4228 134.132 63.6714 134.132C63.9929 134.132 64.2763 134.212 64.5215 134.373C64.7668 134.534 64.9582 134.762 65.0957 135.057C65.2333 135.352 65.3021 135.7 65.3021 136.101C65.3021 136.505 65.2333 136.856 65.0957 137.152C64.9582 137.447 64.7676 137.676 64.524 137.838C64.2804 137.999 63.9995 138.08 63.6813 138.08C63.4361 138.08 63.2397 138.039 63.0922 137.958C62.9447 137.875 62.8312 137.781 62.7516 137.677C62.6721 137.571 62.6108 137.483 62.5677 137.413H62.518V139.432H61.9313ZM62.508 136.091C62.508 136.379 62.5503 136.634 62.6348 136.854C62.7193 137.073 62.8428 137.244 63.0052 137.369C63.1676 137.491 63.3665 137.553 63.6018 137.553C63.847 137.553 64.0517 137.488 64.2158 137.359C64.3815 137.228 64.5058 137.052 64.5886 136.832C64.6732 136.61 64.7154 136.363 64.7154 136.091C64.7154 135.822 64.674 135.58 64.5911 135.365C64.5099 135.148 64.3865 134.976 64.2207 134.85C64.0567 134.723 63.8504 134.659 63.6018 134.659C63.3631 134.659 63.1626 134.72 63.0002 134.841C62.8378 134.96 62.7152 135.127 62.6323 135.343C62.5495 135.556 62.508 135.806 62.508 136.091ZM66.057 139.432V134.182H66.6237V134.788H66.6933C66.7364 134.722 66.7961 134.638 66.8723 134.535C66.9502 134.43 67.0612 134.338 67.2054 134.256C67.3512 134.174 67.5484 134.132 67.797 134.132C68.1185 134.132 68.4019 134.212 68.6472 134.373C68.8924 134.534 69.0838 134.762 69.2214 135.057C69.3589 135.352 69.4277 135.7 69.4277 136.101C69.4277 136.505 69.3589 136.856 69.2214 137.152C69.0838 137.447 68.8932 137.676 68.6496 137.838C68.406 137.999 68.1251 138.08 67.807 138.08C67.5617 138.08 67.3653 138.039 67.2178 137.958C67.0703 137.875 66.9568 137.781 66.8773 137.677C66.7977 137.571 66.7364 137.483 66.6933 137.413H66.6436V139.432H66.057ZM66.6337 136.091C66.6337 136.379 66.6759 136.634 66.7604 136.854C66.8449 137.073 66.9684 137.244 67.1308 137.369C67.2932 137.491 67.4921 137.553 67.7274 137.553C67.9727 137.553 68.1773 137.488 68.3414 137.359C68.5071 137.228 68.6314 137.052 68.7143 136.832C68.7988 136.61 68.841 136.363 68.841 136.091C68.841 135.822 68.7996 135.58 68.7168 135.365C68.6355 135.148 68.5121 134.976 68.3464 134.85C68.1823 134.723 67.976 134.659 67.7274 134.659C67.4888 134.659 67.2882 134.72 67.1258 134.841C66.9634 134.96 66.8408 135.127 66.7579 135.343C66.6751 135.556 66.6337 135.806 66.6337 136.091ZM71.7337 138.08C71.389 138.08 71.0866 137.998 70.8264 137.833C70.5679 137.669 70.3657 137.44 70.2199 137.145C70.0757 136.85 70.0036 136.505 70.0036 136.111C70.0036 135.713 70.0757 135.366 70.2199 135.069C70.3657 134.773 70.5679 134.542 70.8264 134.378C71.0866 134.214 71.389 134.132 71.7337 134.132C72.0784 134.132 72.38 134.214 72.6385 134.378C72.8987 134.542 73.1009 134.773 73.2451 135.069C73.3909 135.366 73.4638 135.713 73.4638 136.111C73.4638 136.505 73.3909 136.85 73.2451 137.145C73.1009 137.44 72.8987 137.669 72.6385 137.833C72.38 137.998 72.0784 138.08 71.7337 138.08ZM71.7337 137.553C71.9956 137.553 72.211 137.485 72.38 137.351C72.5491 137.217 72.6742 137.04 72.7554 136.822C72.8366 136.603 72.8772 136.366 72.8772 136.111C72.8772 135.856 72.8366 135.618 72.7554 135.397C72.6742 135.177 72.5491 134.999 72.38 134.863C72.211 134.727 71.9956 134.659 71.7337 134.659C71.4719 134.659 71.2564 134.727 71.0874 134.863C70.9184 134.999 70.7933 135.177 70.7121 135.397C70.6308 135.618 70.5902 135.856 70.5902 136.111C70.5902 136.366 70.6308 136.603 70.7121 136.822C70.7933 137.04 70.9184 137.217 71.0874 137.351C71.2564 137.485 71.4719 137.553 71.7337 137.553ZM74.2193 138V134.182H74.7861V134.759H74.8259C74.8955 134.57 75.0214 134.416 75.2037 134.299C75.386 134.181 75.5915 134.122 75.8202 134.122C75.8633 134.122 75.9171 134.123 75.9818 134.125C76.0464 134.126 76.0953 134.129 76.1284 134.132V134.729C76.1085 134.724 76.063 134.716 75.9917 134.706C75.9221 134.695 75.8484 134.689 75.7705 134.689C75.5849 134.689 75.4191 134.728 75.2733 134.806C75.1291 134.882 75.0148 134.988 74.9303 135.124C74.8474 135.258 74.806 135.411 74.806 135.584V138H74.2193ZM78.5836 134.182V134.679H76.6049V134.182H78.5836ZM77.1816 133.267H77.7683V136.906C77.7683 137.072 77.7923 137.196 77.8403 137.279C77.8901 137.36 77.953 137.415 78.0293 137.443C78.1072 137.47 78.1892 137.483 78.2754 137.483C78.34 137.483 78.393 137.48 78.4344 137.473C78.4759 137.465 78.509 137.458 78.5339 137.453L78.6532 137.98C78.6134 137.995 78.5579 138.01 78.4866 138.025C78.4154 138.041 78.3251 138.05 78.2157 138.05C78.05 138.05 77.8876 138.014 77.7285 137.943C77.571 137.872 77.4401 137.763 77.3357 137.617C77.233 137.471 77.1816 137.287 77.1816 137.065V133.267Z" fill="black" fill-opacity="0.9" style="fill:black;fill-opacity:0.9;"/>
<rect x="101.712" y="83" width="17.5" height="43" fill="#CAE0D4" style="fill:#CAE0D4;fill:color(display-p3 0.7922 0.8784 0.8314);fill-opacity:1;"/>
<rect x="124.212" y="95" width="17.5" height="31" fill="#4E9970" style="fill:#4E9970;fill:color(display-p3 0.3059 0.6000 0.4392);fill-opacity:1;"/>
<path opacity="0.6" d="M109.077 135.455C109.077 135.991 108.98 136.455 108.786 136.847C108.592 137.238 108.326 137.539 107.988 137.751C107.65 137.964 107.264 138.07 106.83 138.07C106.396 138.07 106.01 137.964 105.672 137.751C105.333 137.539 105.067 137.238 104.874 136.847C104.68 136.455 104.583 135.991 104.583 135.455C104.583 134.918 104.68 134.454 104.874 134.062C105.067 133.671 105.333 133.37 105.672 133.158C106.01 132.946 106.396 132.839 106.83 132.839C107.264 132.839 107.65 132.946 107.988 133.158C108.326 133.37 108.592 133.671 108.786 134.062C108.98 134.454 109.077 134.918 109.077 135.455ZM108.48 135.455C108.48 135.014 108.407 134.642 108.259 134.338C108.113 134.035 107.915 133.806 107.665 133.65C107.417 133.494 107.138 133.416 106.83 133.416C106.522 133.416 106.242 133.494 105.992 133.65C105.744 133.806 105.546 134.035 105.398 134.338C105.252 134.642 105.179 135.014 105.179 135.455C105.179 135.895 105.252 136.267 105.398 136.571C105.546 136.874 105.744 137.103 105.992 137.259C106.242 137.415 106.522 137.493 106.83 137.493C107.138 137.493 107.417 137.415 107.665 137.259C107.915 137.103 108.113 136.874 108.259 136.571C108.407 136.267 108.48 135.895 108.48 135.455ZM109.894 139.432V134.182H110.461V134.788H110.53C110.574 134.722 110.633 134.638 110.709 134.535C110.787 134.43 110.898 134.338 111.043 134.256C111.188 134.174 111.386 134.132 111.634 134.132C111.956 134.132 112.239 134.212 112.484 134.373C112.73 134.534 112.921 134.762 113.059 135.057C113.196 135.352 113.265 135.7 113.265 136.101C113.265 136.505 113.196 136.856 113.059 137.152C112.921 137.447 112.73 137.676 112.487 137.838C112.243 137.999 111.962 138.08 111.644 138.08C111.399 138.08 111.202 138.039 111.055 137.958C110.907 137.875 110.794 137.781 110.714 137.677C110.635 137.571 110.574 137.483 110.53 137.413H110.481V139.432H109.894ZM110.471 136.091C110.471 136.379 110.513 136.634 110.598 136.854C110.682 137.073 110.806 137.244 110.968 137.369C111.13 137.491 111.329 137.553 111.565 137.553C111.81 137.553 112.015 137.488 112.179 137.359C112.344 137.228 112.469 137.052 112.551 136.832C112.636 136.61 112.678 136.363 112.678 136.091C112.678 135.822 112.637 135.58 112.554 135.365C112.473 135.148 112.349 134.976 112.184 134.85C112.019 134.723 111.813 134.659 111.565 134.659C111.326 134.659 111.125 134.72 110.963 134.841C110.801 134.96 110.678 135.127 110.595 135.343C110.512 135.556 110.471 135.806 110.471 136.091ZM115.621 138.08C115.253 138.08 114.935 137.998 114.669 137.836C114.403 137.672 114.199 137.443 114.055 137.15C113.912 136.855 113.841 136.512 113.841 136.121C113.841 135.73 113.912 135.385 114.055 135.087C114.199 134.787 114.399 134.553 114.656 134.386C114.915 134.217 115.216 134.132 115.561 134.132C115.76 134.132 115.956 134.165 116.15 134.232C116.344 134.298 116.52 134.406 116.68 134.555C116.839 134.702 116.965 134.898 117.06 135.141C117.154 135.385 117.202 135.685 117.202 136.041V136.29H114.258V135.783H116.605C116.605 135.567 116.562 135.375 116.476 135.206C116.391 135.037 116.27 134.904 116.113 134.806C115.957 134.708 115.773 134.659 115.561 134.659C115.327 134.659 115.125 134.717 114.954 134.833C114.785 134.947 114.655 135.097 114.564 135.281C114.473 135.464 114.427 135.662 114.427 135.872V136.21C114.427 136.499 114.477 136.743 114.577 136.944C114.678 137.142 114.818 137.294 114.997 137.398C115.176 137.501 115.384 137.553 115.621 137.553C115.775 137.553 115.914 137.531 116.038 137.488C116.164 137.443 116.273 137.377 116.364 137.289C116.455 137.2 116.525 137.089 116.575 136.956L117.142 137.115C117.082 137.307 116.982 137.476 116.841 137.622C116.7 137.766 116.526 137.879 116.319 137.96C116.112 138.04 115.879 138.08 115.621 138.08ZM117.954 138V134.182H118.521V134.759H118.56C118.63 134.57 118.756 134.416 118.938 134.299C119.121 134.181 119.326 134.122 119.555 134.122C119.598 134.122 119.652 134.123 119.716 134.125C119.781 134.126 119.83 134.129 119.863 134.132V134.729C119.843 134.724 119.798 134.716 119.726 134.706C119.657 134.695 119.583 134.689 119.505 134.689C119.319 134.689 119.154 134.728 119.008 134.806C118.864 134.882 118.749 134.988 118.665 135.124C118.582 135.258 118.541 135.411 118.541 135.584V138H117.954ZM121.542 138.089C121.3 138.089 121.081 138.044 120.883 137.953C120.686 137.86 120.529 137.727 120.413 137.553C120.297 137.377 120.239 137.165 120.239 136.916C120.239 136.697 120.283 136.52 120.369 136.384C120.455 136.247 120.57 136.139 120.714 136.061C120.858 135.983 121.018 135.925 121.192 135.887C121.367 135.847 121.544 135.816 121.721 135.793C121.953 135.763 122.141 135.74 122.285 135.725C122.431 135.709 122.537 135.682 122.603 135.643C122.671 135.605 122.705 135.539 122.705 135.445V135.425C122.705 135.179 122.638 134.989 122.504 134.853C122.371 134.717 122.17 134.649 121.9 134.649C121.62 134.649 121.4 134.71 121.241 134.833C121.082 134.956 120.97 135.087 120.906 135.226L120.349 135.027C120.448 134.795 120.581 134.614 120.747 134.485C120.914 134.354 121.096 134.263 121.293 134.212C121.492 134.159 121.688 134.132 121.88 134.132C122.003 134.132 122.144 134.147 122.303 134.177C122.463 134.205 122.618 134.264 122.768 134.353C122.918 134.443 123.043 134.578 123.143 134.759C123.242 134.939 123.292 135.181 123.292 135.484V138H122.705V137.483H122.676C122.636 137.566 122.569 137.654 122.477 137.749C122.384 137.843 122.26 137.924 122.106 137.99C121.952 138.056 121.764 138.089 121.542 138.089ZM121.632 137.562C121.864 137.562 122.059 137.517 122.218 137.426C122.379 137.335 122.5 137.217 122.581 137.073C122.664 136.929 122.705 136.777 122.705 136.618V136.081C122.681 136.111 122.626 136.138 122.541 136.163C122.458 136.186 122.362 136.207 122.253 136.225C122.145 136.242 122.04 136.257 121.937 136.27C121.836 136.281 121.754 136.291 121.691 136.3C121.539 136.32 121.396 136.352 121.264 136.397C121.133 136.44 121.027 136.505 120.945 136.593C120.866 136.679 120.826 136.797 120.826 136.946C120.826 137.15 120.902 137.304 121.052 137.408C121.205 137.511 121.398 137.562 121.632 137.562ZM125.883 134.182V134.679H123.905V134.182H125.883ZM124.481 133.267H125.068V136.906C125.068 137.072 125.092 137.196 125.14 137.279C125.19 137.36 125.253 137.415 125.329 137.443C125.407 137.47 125.489 137.483 125.575 137.483C125.64 137.483 125.693 137.48 125.734 137.473C125.776 137.465 125.809 137.458 125.834 137.453L125.953 137.98C125.913 137.995 125.858 138.01 125.786 138.025C125.715 138.041 125.625 138.05 125.515 138.05C125.35 138.05 125.187 138.014 125.028 137.943C124.871 137.872 124.74 137.763 124.635 137.617C124.533 137.471 124.481 137.287 124.481 137.065V133.267ZM126.626 138V134.182H127.212V138H126.626ZM126.924 133.545C126.81 133.545 126.711 133.507 126.628 133.429C126.547 133.351 126.506 133.257 126.506 133.148C126.506 133.038 126.547 132.945 126.628 132.867C126.711 132.789 126.81 132.75 126.924 132.75C127.038 132.75 127.136 132.789 127.217 132.867C127.3 132.945 127.342 133.038 127.342 133.148C127.342 133.257 127.3 133.351 127.217 133.429C127.136 133.507 127.038 133.545 126.924 133.545ZM129.698 138.08C129.353 138.08 129.051 137.998 128.791 137.833C128.532 137.669 128.33 137.44 128.184 137.145C128.04 136.85 127.968 136.505 127.968 136.111C127.968 135.713 128.04 135.366 128.184 135.069C128.33 134.773 128.532 134.542 128.791 134.378C129.051 134.214 129.353 134.132 129.698 134.132C130.043 134.132 130.344 134.214 130.603 134.378C130.863 134.542 131.065 134.773 131.209 135.069C131.355 135.366 131.428 135.713 131.428 136.111C131.428 136.505 131.355 136.85 131.209 137.145C131.065 137.44 130.863 137.669 130.603 137.833C130.344 137.998 130.043 138.08 129.698 138.08ZM129.698 137.553C129.96 137.553 130.175 137.485 130.344 137.351C130.513 137.217 130.638 137.04 130.72 136.822C130.801 136.603 130.841 136.366 130.841 136.111C130.841 135.856 130.801 135.618 130.72 135.397C130.638 135.177 130.513 134.999 130.344 134.863C130.175 134.727 129.96 134.659 129.698 134.659C129.436 134.659 129.221 134.727 129.052 134.863C128.883 134.999 128.758 135.177 128.676 135.397C128.595 135.618 128.555 135.856 128.555 136.111C128.555 136.366 128.595 136.603 128.676 136.822C128.758 137.04 128.883 137.217 129.052 137.351C129.221 137.485 129.436 137.553 129.698 137.553ZM132.77 135.703V138H132.184V134.182H132.75V134.778H132.8C132.89 134.585 133.026 134.429 133.208 134.311C133.39 134.192 133.625 134.132 133.914 134.132C134.172 134.132 134.398 134.185 134.592 134.291C134.786 134.396 134.937 134.555 135.045 134.768C135.153 134.981 135.206 135.249 135.206 135.574V138H134.62V135.614C134.62 135.314 134.542 135.08 134.386 134.913C134.23 134.744 134.017 134.659 133.745 134.659C133.557 134.659 133.39 134.7 133.243 134.781C133.097 134.862 132.982 134.981 132.897 135.136C132.813 135.292 132.77 135.481 132.77 135.703ZM138.843 135.037L138.316 135.186C138.283 135.098 138.234 135.013 138.169 134.93C138.106 134.846 138.02 134.776 137.911 134.721C137.801 134.667 137.661 134.639 137.491 134.639C137.257 134.639 137.062 134.693 136.906 134.801C136.752 134.907 136.675 135.042 136.675 135.206C136.675 135.352 136.728 135.467 136.834 135.551C136.94 135.636 137.106 135.706 137.332 135.763L137.898 135.902C138.24 135.985 138.494 136.112 138.661 136.282C138.829 136.451 138.913 136.669 138.913 136.936C138.913 137.155 138.85 137.35 138.724 137.523C138.599 137.695 138.425 137.831 138.202 137.93C137.978 138.03 137.718 138.08 137.421 138.08C137.032 138.08 136.709 137.995 136.454 137.826C136.199 137.657 136.037 137.41 135.969 137.085L136.526 136.946C136.579 137.152 136.679 137.306 136.827 137.408C136.976 137.511 137.171 137.562 137.411 137.562C137.685 137.562 137.902 137.504 138.062 137.388C138.225 137.271 138.306 137.13 138.306 136.966C138.306 136.833 138.26 136.722 138.167 136.633C138.074 136.542 137.931 136.474 137.739 136.429L137.103 136.28C136.753 136.197 136.496 136.069 136.332 135.895C136.17 135.719 136.089 135.499 136.089 135.236C136.089 135.02 136.149 134.83 136.27 134.664C136.393 134.498 136.559 134.368 136.77 134.274C136.982 134.179 137.222 134.132 137.491 134.132C137.868 134.132 138.165 134.215 138.381 134.381C138.598 134.546 138.752 134.765 138.843 135.037Z" fill="black" fill-opacity="0.9" style="fill:black;fill-opacity:0.9;"/>
<rect x="157.387" y="41" width="17.5" height="85" fill="#CAE0D4" style="fill:#CAE0D4;fill:color(display-p3 0.7922 0.8784 0.8314);fill-opacity:1;"/>
<rect x="179.888" y="80" width="17.5" height="46" fill="#4E9970" style="fill:#4E9970;fill:color(display-p3 0.3059 0.6000 0.4392);fill-opacity:1;"/>
<path opacity="0.6" d="M164 134.182C163.97 133.93 163.849 133.734 163.637 133.595C163.425 133.456 163.165 133.386 162.857 133.386C162.631 133.386 162.434 133.423 162.265 133.496C162.098 133.569 161.967 133.669 161.872 133.797C161.779 133.924 161.733 134.069 161.733 134.232C161.733 134.367 161.765 134.484 161.83 134.582C161.896 134.678 161.981 134.759 162.084 134.823C162.186 134.886 162.294 134.938 162.407 134.98C162.519 135.02 162.623 135.052 162.717 135.077L163.234 135.216C163.367 135.251 163.514 135.299 163.677 135.36C163.841 135.421 163.998 135.505 164.147 135.611C164.298 135.716 164.422 135.85 164.52 136.014C164.617 136.178 164.666 136.379 164.666 136.618C164.666 136.893 164.594 137.142 164.45 137.364C164.307 137.586 164.099 137.762 163.824 137.893C163.55 138.024 163.218 138.089 162.827 138.089C162.462 138.089 162.146 138.031 161.88 137.913C161.615 137.795 161.406 137.631 161.253 137.421C161.102 137.21 161.017 136.966 160.997 136.688H161.634C161.65 136.88 161.715 137.039 161.827 137.165C161.942 137.289 162.086 137.382 162.26 137.443C162.436 137.503 162.625 137.533 162.827 137.533C163.062 137.533 163.273 137.495 163.461 137.418C163.648 137.34 163.796 137.233 163.906 137.095C164.015 136.956 164.07 136.794 164.07 136.608C164.07 136.439 164.022 136.301 163.928 136.195C163.834 136.089 163.709 136.003 163.555 135.937C163.401 135.871 163.234 135.812 163.055 135.763L162.429 135.584C162.031 135.469 161.716 135.306 161.484 135.094C161.252 134.882 161.136 134.604 161.136 134.261C161.136 133.976 161.213 133.728 161.368 133.516C161.523 133.302 161.732 133.136 161.994 133.018C162.258 132.899 162.552 132.839 162.876 132.839C163.205 132.839 163.496 132.898 163.751 133.016C164.007 133.132 164.209 133.291 164.358 133.493C164.509 133.695 164.588 133.925 164.597 134.182H164ZM167.061 138.08C166.693 138.08 166.376 137.998 166.109 137.836C165.844 137.672 165.639 137.443 165.495 137.15C165.353 136.855 165.281 136.512 165.281 136.121C165.281 135.73 165.353 135.385 165.495 135.087C165.639 134.787 165.84 134.553 166.097 134.386C166.355 134.217 166.657 134.132 167.001 134.132C167.2 134.132 167.397 134.165 167.591 134.232C167.784 134.298 167.961 134.406 168.12 134.555C168.279 134.702 168.406 134.898 168.5 135.141C168.595 135.385 168.642 135.685 168.642 136.041V136.29H165.699V135.783H168.046C168.046 135.567 168.002 135.375 167.916 135.206C167.832 135.037 167.711 134.904 167.553 134.806C167.398 134.708 167.214 134.659 167.001 134.659C166.768 134.659 166.566 134.717 166.395 134.833C166.226 134.947 166.096 135.097 166.005 135.281C165.914 135.464 165.868 135.662 165.868 135.872V136.21C165.868 136.499 165.918 136.743 166.017 136.944C166.118 137.142 166.258 137.294 166.437 137.398C166.616 137.501 166.824 137.553 167.061 137.553C167.215 137.553 167.354 137.531 167.479 137.488C167.605 137.443 167.713 137.377 167.804 137.289C167.896 137.2 167.966 137.089 168.016 136.956L168.582 137.115C168.523 137.307 168.423 137.476 168.282 137.622C168.141 137.766 167.967 137.879 167.76 137.96C167.552 138.04 167.32 138.08 167.061 138.08ZM169.981 132.909V138H169.394V132.909H169.981ZM172.616 134.182V134.679H170.558V134.182H172.616ZM171.174 138V133.655C171.174 133.436 171.226 133.254 171.328 133.108C171.431 132.962 171.564 132.853 171.728 132.78C171.893 132.707 172.066 132.67 172.248 132.67C172.392 132.67 172.51 132.682 172.601 132.705C172.692 132.728 172.76 132.75 172.805 132.77L172.636 133.277C172.606 133.267 172.565 133.255 172.512 133.24C172.46 133.225 172.392 133.217 172.308 133.217C172.114 133.217 171.974 133.266 171.888 133.364C171.803 133.462 171.761 133.605 171.761 133.794V138H171.174ZM175.287 135.544V136.091H173.06V135.544H175.287ZM179.043 134.182C179.013 133.93 178.892 133.734 178.68 133.595C178.468 133.456 178.208 133.386 177.9 133.386C177.674 133.386 177.477 133.423 177.308 133.496C177.141 133.569 177.01 133.669 176.915 133.797C176.823 133.924 176.776 134.069 176.776 134.232C176.776 134.367 176.808 134.484 176.873 134.582C176.939 134.678 177.024 134.759 177.127 134.823C177.229 134.886 177.337 134.938 177.45 134.98C177.563 135.02 177.666 135.052 177.761 135.077L178.278 135.216C178.41 135.251 178.558 135.299 178.72 135.36C178.884 135.421 179.041 135.505 179.19 135.611C179.341 135.716 179.465 135.85 179.563 136.014C179.661 136.178 179.709 136.379 179.709 136.618C179.709 136.893 179.637 137.142 179.493 137.364C179.351 137.586 179.142 137.762 178.867 137.893C178.593 138.024 178.261 138.089 177.87 138.089C177.505 138.089 177.19 138.031 176.923 137.913C176.658 137.795 176.449 137.631 176.296 137.421C176.146 137.21 176.06 136.966 176.04 136.688H176.677C176.693 136.88 176.758 137.039 176.871 137.165C176.985 137.289 177.129 137.382 177.303 137.443C177.479 137.503 177.668 137.533 177.87 137.533C178.105 137.533 178.317 137.495 178.504 137.418C178.691 137.34 178.839 137.233 178.949 137.095C179.058 136.956 179.113 136.794 179.113 136.608C179.113 136.439 179.066 136.301 178.971 136.195C178.877 136.089 178.752 136.003 178.598 135.937C178.444 135.871 178.278 135.812 178.099 135.763L177.472 135.584C177.074 135.469 176.76 135.306 176.528 135.094C176.296 134.882 176.18 134.604 176.18 134.261C176.18 133.976 176.257 133.728 176.411 133.516C176.567 133.302 176.775 133.136 177.037 133.018C177.301 132.899 177.595 132.839 177.92 132.839C178.248 132.839 178.539 132.898 178.795 133.016C179.05 133.132 179.252 133.291 179.401 133.493C179.552 133.695 179.632 133.925 179.64 134.182H179.043ZM182.104 138.08C181.736 138.08 181.419 137.998 181.152 137.836C180.887 137.672 180.682 137.443 180.538 137.15C180.396 136.855 180.324 136.512 180.324 136.121C180.324 135.73 180.396 135.385 180.538 135.087C180.682 134.787 180.883 134.553 181.14 134.386C181.398 134.217 181.7 134.132 182.045 134.132C182.244 134.132 182.44 134.165 182.634 134.232C182.828 134.298 183.004 134.406 183.163 134.555C183.322 134.702 183.449 134.898 183.544 135.141C183.638 135.385 183.685 135.685 183.685 136.041V136.29H180.742V135.783H183.089C183.089 135.567 183.046 135.375 182.959 135.206C182.875 135.037 182.754 134.904 182.596 134.806C182.441 134.708 182.257 134.659 182.045 134.659C181.811 134.659 181.609 134.717 181.438 134.833C181.269 134.947 181.139 135.097 181.048 135.281C180.957 135.464 180.911 135.662 180.911 135.872V136.21C180.911 136.499 180.961 136.743 181.06 136.944C181.161 137.142 181.301 137.294 181.48 137.398C181.659 137.501 181.867 137.553 182.104 137.553C182.258 137.553 182.398 137.531 182.522 137.488C182.648 137.443 182.756 137.377 182.848 137.289C182.939 137.2 183.009 137.089 183.059 136.956L183.626 137.115C183.566 137.307 183.466 137.476 183.325 137.622C183.184 137.766 183.01 137.879 182.803 137.96C182.596 138.04 182.363 138.08 182.104 138.08ZM184.438 138V134.182H185.004V134.759H185.044C185.114 134.57 185.24 134.416 185.422 134.299C185.604 134.181 185.81 134.122 186.039 134.122C186.082 134.122 186.135 134.123 186.2 134.125C186.265 134.126 186.314 134.129 186.347 134.132V134.729C186.327 134.724 186.281 134.716 186.21 134.706C186.14 134.695 186.067 134.689 185.989 134.689C185.803 134.689 185.637 134.728 185.492 134.806C185.347 134.882 185.233 134.988 185.149 135.124C185.066 135.258 185.024 135.411 185.024 135.584V138H184.438ZM190.141 134.182L188.729 138H188.132L186.72 134.182H187.356L188.41 137.224H188.45L189.504 134.182H190.141ZM192.239 138.08C191.871 138.08 191.554 137.998 191.287 137.836C191.022 137.672 190.817 137.443 190.673 137.15C190.53 136.855 190.459 136.512 190.459 136.121C190.459 135.73 190.53 135.385 190.673 135.087C190.817 134.787 191.018 134.553 191.274 134.386C191.533 134.217 191.835 134.132 192.179 134.132C192.378 134.132 192.575 134.165 192.768 134.232C192.962 134.298 193.139 134.406 193.298 134.555C193.457 134.702 193.584 134.898 193.678 135.141C193.773 135.385 193.82 135.685 193.82 136.041V136.29H190.877V135.783H193.223C193.223 135.567 193.18 135.375 193.094 135.206C193.01 135.037 192.889 134.904 192.731 134.806C192.575 134.708 192.391 134.659 192.179 134.659C191.946 134.659 191.743 134.717 191.573 134.833C191.404 134.947 191.274 135.097 191.183 135.281C191.091 135.464 191.046 135.662 191.046 135.872V136.21C191.046 136.499 191.096 136.743 191.195 136.944C191.296 137.142 191.436 137.294 191.615 137.398C191.794 137.501 192.002 137.553 192.239 137.553C192.393 137.553 192.532 137.531 192.657 137.488C192.783 137.443 192.891 137.377 192.982 137.289C193.073 137.2 193.144 137.089 193.194 136.956L193.76 137.115C193.701 137.307 193.6 137.476 193.46 137.622C193.319 137.766 193.145 137.879 192.937 137.96C192.73 138.04 192.498 138.08 192.239 138.08Z" fill="black" fill-opacity="0.9" style="fill:black;fill-opacity:0.9;"/>
</svg>
