<svg xmlns="http://www.w3.org/2000/svg" xmlns:xlink="http://www.w3.org/1999/xlink" width="1024" zoomAndPan="magnify" viewBox="0 0 768 767.999994" height="1024" preserveAspectRatio="xMidYMid meet" version="1.0"><defs><g/><clipPath id="472825fe0b"><path d="M 0 0 L 768 0 L 768 667.5 L 0 667.5 Z M 0 0 " clip-rule="nonzero"/></clipPath></defs><rect x="-76.8" width="921.6" fill="#ffffff" y="-76.799999" height="921.599993" fill-opacity="1"/><rect x="-76.8" width="921.6" fill="#d42638" y="-76.799999" height="921.599993" fill-opacity="1"/><g clip-path="url(#472825fe0b)"><path fill="#d42638" d="M 0 -100.5 L 768 -100.5 L 768 667.5 L 0 667.5 Z M 0 -100.5 " fill-opacity="1" fill-rule="nonzero"/></g><path fill="#ffffff" d="M 387.71875 37.207031 C 389.863281 39.441406 391.402344 42.210938 393.554688 44.46875 C 401.308594 52.875 407.378906 62.226562 413.160156 72.066406 C 421.410156 86.859375 428.160156 102.710938 427.539062 120 C 427.949219 132.488281 425.09375 144.425781 420.839844 156.074219 C 416.578125 166.828125 410.886719 176.707031 404.683594 186.433594 C 398.316406 195.800781 391.433594 204.816406 385.394531 214.433594 C 377.585938 226.949219 371.136719 240.34375 365.828125 254.101562 C 361.6875 264.710938 358.933594 276.03125 357.039062 287.234375 C 356.511719 290.183594 356.347656 293.355469 355.320312 296.167969 C 353.300781 296.476562 351.667969 296.332031 350.128906 294.898438 C 345.683594 290.835938 341.203125 286.824219 336.898438 282.601562 C 332.226562 278.542969 327.636719 274.34375 323.714844 269.535156 C 314.347656 259.785156 306.523438 248.398438 300.988281 236.046875 C 297.164062 227.308594 294.988281 218.003906 294.050781 208.53125 C 292.859375 194.429688 293.761719 179.902344 297.421875 166.207031 C 300.800781 153.644531 308.242188 141.449219 314.714844 130.230469 C 330.988281 102.898438 353.386719 78.863281 373.410156 53.902344 C 377.21875 49.101562 380.953125 44.289062 384.105469 39.023438 C 384.953125 37.484375 386.023438 37.214844 387.71875 37.207031 Z M 387.71875 37.207031 " fill-opacity="1" fill-rule="nonzero"/><path fill="#ffffff" d="M 482.09375 150.367188 C 482.753906 151.359375 483.414062 152.332031 483.90625 153.421875 C 487.597656 161.820312 489.945312 171.050781 491.933594 180 C 493.621094 188.640625 494.4375 197.445312 494.257812 206.25 C 494.65625 217.808594 492.234375 229.664062 488.902344 240.691406 C 484.867188 252.898438 479.070312 264.414062 470.863281 274.371094 C 463.453125 283.320312 454.972656 290.960938 445.753906 297.996094 C 436.09375 305.761719 425.976562 313.246094 416.859375 321.601562 C 407.21875 330.765625 398.308594 339.847656 392.585938 352.074219 C 388.296875 360.796875 387.398438 370.695312 386.496094 380.234375 C 386.257812 389.683594 386.332031 399.128906 387.226562 408.539062 C 388.550781 405.089844 389.289062 401.503906 390.449219 397.996094 C 393.171875 389.519531 396.464844 381.210938 400.125 373.09375 C 408.023438 356.496094 419.820312 342.839844 433.476562 330.726562 C 443.078125 322.582031 453.421875 315.425781 464.152344 308.878906 C 480.71875 298.574219 498.433594 289.726562 515.210938 279.683594 C 520.484375 276.359375 525.683594 273.40625 530.429688 269.414062 C 532.539062 267.628906 534.710938 265.949219 537.089844 264.53125 C 538.417969 265.746094 539.476562 266.699219 539.796875 268.574219 C 543.140625 283.738281 543.613281 299.722656 540.742188 315.007812 C 537.703125 331.476562 531.261719 347.144531 520.746094 360.269531 C 512.371094 370.566406 501.976562 379.402344 490.792969 386.535156 C 474.9375 396.765625 457.371094 403.417969 440.421875 411.203125 C 429.414062 416.453125 418.898438 422.558594 411.703125 432.726562 C 405.976562 440.460938 404.550781 451.125 405.15625 460.492188 C 405.621094 473.773438 408.757812 487.085938 413.101562 499.605469 C 416.0625 508.171875 420.824219 515.398438 426 522.742188 C 427.222656 524.496094 428.722656 526.199219 429.636719 528.136719 C 429.886719 529.296875 429.824219 530.535156 429.886719 531.71875 C 427.589844 532.328125 425.378906 532.640625 423 532.648438 C 400.003906 532.621094 377.003906 532.628906 354 532.640625 C 349.066406 532.605469 344.355469 532.964844 339.496094 531.832031 C 339.261719 530.40625 338.851562 529.378906 339.863281 528.136719 C 345.082031 520.816406 350.390625 513.703125 353.671875 505.125 C 357.164062 495.285156 359.527344 485.015625 360.613281 474.628906 C 361.058594 468.082031 362.003906 461.835938 361.117188 455.265625 C 360.742188 442.5 355.640625 430.460938 346.328125 421.679688 C 337.785156 412.695312 326.085938 406.019531 315.171875 400.335938 C 299.101562 391.738281 283.648438 383.40625 269.550781 371.699219 C 261.007812 365.003906 253.597656 357.136719 246.726562 348.765625 C 230.683594 328.835938 223.191406 302.917969 224.984375 277.5 C 225.570312 258.253906 231.121094 238.957031 239.886719 221.863281 C 240.601562 220.738281 241.597656 219.832031 242.984375 219.734375 C 244.972656 220.402344 246.757812 222.058594 248.355469 223.386719 C 251.632812 226.222656 255.210938 228.570312 258.871094 230.871094 C 267.359375 236.40625 275.902344 242.226562 283.539062 248.902344 C 288.511719 252.9375 293.460938 256.988281 298.253906 261.246094 C 306.089844 268.664062 313.402344 276.683594 320.316406 284.960938 C 329.429688 295.800781 337.222656 307.679688 343.253906 320.496094 C 350.296875 335.722656 355.328125 352.5 357.976562 369.058594 L 358.746094 369.03125 C 359.191406 364.273438 359.289062 359.511719 359.871094 354.773438 C 360.628906 339.390625 362.339844 324.03125 365.070312 308.871094 C 367.621094 295.019531 370.808594 281.519531 376.613281 268.621094 C 382.191406 256.3125 388.140625 243.503906 396.074219 232.53125 C 400.507812 225.898438 405.78125 219.789062 411.1875 213.9375 C 431.09375 193.261719 454.636719 177.097656 475.28125 157.289062 C 477.652344 155.234375 479.128906 151.449219 482.09375 150.367188 Z M 482.09375 150.367188 " fill-opacity="1" fill-rule="nonzero"/><g fill="#ffffff" fill-opacity="1"><g transform="translate(55.05732, 713.134069)"><g><path d="M 74.65625 -53.1875 C 71.175781 -53.1875 68.253906 -54.210938 65.890625 -56.265625 C 63.523438 -58.328125 62.03125 -61.285156 61.40625 -65.140625 C 60.65625 -69.367188 59.472656 -72.507812 57.859375 -74.5625 C 56.242188 -76.613281 53.753906 -77.640625 50.390625 -77.640625 C 44.296875 -77.640625 40.066406 -74.804688 37.703125 -69.140625 C 35.335938 -63.484375 34.15625 -54.804688 34.15625 -43.109375 C 34.15625 -20.835938 41.867188 -9.703125 57.296875 -9.703125 C 62.773438 -9.703125 67.503906 -11.410156 71.484375 -14.828125 C 75.460938 -18.253906 78.945312 -23.453125 81.9375 -30.421875 L 92.203125 -24.640625 C 88.222656 -15.679688 83.085938 -8.867188 76.796875 -4.203125 C 70.515625 0.460938 62.398438 2.796875 52.453125 2.796875 C 42.867188 2.796875 34.46875 0.835938 27.25 -3.078125 C 20.03125 -6.992188 14.460938 -12.4375 10.546875 -19.40625 C 6.628906 -26.375 4.671875 -34.273438 4.671875 -43.109375 C 4.671875 -51.816406 6.597656 -59.65625 10.453125 -66.625 C 14.304688 -73.59375 19.71875 -79.035156 26.6875 -82.953125 C 33.65625 -86.878906 41.554688 -88.84375 50.390625 -88.84375 C 57.484375 -88.84375 63.828125 -87.847656 69.421875 -85.859375 C 75.023438 -83.867188 79.378906 -81.128906 82.484375 -77.640625 C 85.597656 -74.160156 87.15625 -70.242188 87.15625 -65.890625 C 87.15625 -61.898438 85.941406 -58.785156 83.515625 -56.546875 C 81.085938 -54.304688 78.132812 -53.1875 74.65625 -53.1875 Z M 74.65625 -53.1875 "/></g></g></g><g fill="#ffffff" fill-opacity="1"><g transform="translate(151.360375, 713.134069)"><g><path d="M 59.90625 -9.328125 C 49.582031 -1.492188 39.566406 2.421875 29.859375 2.421875 C 22.273438 2.421875 16.179688 0.460938 11.578125 -3.453125 C 6.972656 -7.367188 4.671875 -12.5 4.671875 -18.84375 C 4.671875 -28.800781 9.582031 -36.269531 19.40625 -41.25 C 29.238281 -46.226562 42.554688 -50.269531 59.359375 -53.375 L 59.359375 -62.15625 C 59.359375 -68.125 58.703125 -72.226562 57.390625 -74.46875 C 56.085938 -76.707031 53.441406 -77.828125 49.453125 -77.828125 C 45.972656 -77.828125 43.144531 -76.863281 40.96875 -74.9375 C 38.789062 -73.007812 37.015625 -69.804688 35.640625 -65.328125 C 33.160156 -57.859375 28.3125 -54.125 21.09375 -54.125 C 17.851562 -54.125 15.269531 -55.117188 13.34375 -57.109375 C 11.414062 -59.097656 10.453125 -61.960938 10.453125 -65.703125 C 10.453125 -70.179688 12.253906 -74.191406 15.859375 -77.734375 C 19.472656 -81.285156 24.453125 -84.023438 30.796875 -85.953125 C 37.140625 -87.878906 44.359375 -88.84375 52.453125 -88.84375 C 63.023438 -88.84375 71.609375 -86.632812 78.203125 -82.21875 C 84.796875 -77.800781 88.09375 -70.675781 88.09375 -60.84375 L 88.09375 -17.734375 C 88.09375 -13.003906 89.773438 -10.640625 93.140625 -10.640625 C 95.003906 -10.640625 96.804688 -11.070312 98.546875 -11.9375 L 98.546875 -2.421875 C 95.929688 -0.804688 93.097656 0.367188 90.046875 1.109375 C 87.003906 1.859375 83.429688 2.234375 79.328125 2.234375 C 68.253906 2.234375 61.78125 -1.617188 59.90625 -9.328125 Z M 59.359375 -42.546875 C 51.015625 -40.929688 44.726562 -38.785156 40.5 -36.109375 C 36.269531 -33.441406 34.15625 -29.679688 34.15625 -24.828125 C 34.15625 -21.585938 35.117188 -19.097656 37.046875 -17.359375 C 38.972656 -15.617188 41.429688 -14.75 44.421875 -14.75 C 49.273438 -14.75 54.253906 -16.550781 59.359375 -20.15625 Z M 59.359375 -42.546875 "/></g></g></g><g fill="#ffffff" fill-opacity="1"><g transform="translate(253.449042, 713.134069)"><g><path d="M 3.546875 -7.84375 C 7.773438 -8.332031 10.570312 -9.109375 11.9375 -10.171875 C 13.3125 -11.234375 14 -13.191406 14 -16.046875 L 14 -104.890625 C 14 -106.878906 13.625 -108.304688 12.875 -109.171875 C 12.132812 -110.046875 10.953125 -110.484375 9.328125 -110.484375 L 3.546875 -110.484375 L 3.546875 -117.765625 L 32.109375 -133.453125 L 42.546875 -133.453125 L 42.546875 -16.046875 C 42.546875 -13.191406 43.226562 -11.234375 44.59375 -10.171875 C 45.96875 -9.109375 48.769531 -8.332031 53 -7.84375 L 53 0 L 3.546875 0 Z M 3.546875 -7.84375 "/></g></g></g><g fill="#ffffff" fill-opacity="1"><g transform="translate(309.999084, 713.134069)"><g><path d="M 3.546875 -7.84375 C 7.773438 -8.332031 10.570312 -9.109375 11.9375 -10.171875 C 13.3125 -11.234375 14 -13.191406 14 -16.046875 L 14 -104.890625 C 14 -106.878906 13.625 -108.304688 12.875 -109.171875 C 12.132812 -110.046875 10.953125 -110.484375 9.328125 -110.484375 L 3.546875 -110.484375 L 3.546875 -117.765625 L 32.109375 -133.453125 L 42.546875 -133.453125 L 42.546875 -16.046875 C 42.546875 -13.191406 43.226562 -11.234375 44.59375 -10.171875 C 45.96875 -9.109375 48.769531 -8.332031 53 -7.84375 L 53 0 L 3.546875 0 Z M 3.546875 -7.84375 "/></g></g></g><g fill="#ffffff" fill-opacity="1"><g transform="translate(366.549126, 713.134069)"><g><path d="M 61.96875 -0.5625 C 59.226562 0.3125 55.957031 1.054688 52.15625 1.671875 C 48.363281 2.296875 44.789062 2.609375 41.4375 2.609375 C 31.976562 2.609375 24.820312 0.679688 19.96875 -3.171875 C 15.113281 -7.023438 12.6875 -13.554688 12.6875 -22.765625 L 12.6875 -74.09375 L 2.421875 -74.09375 L 2.421875 -81.375 C 10.140625 -84.238281 16.300781 -88.34375 20.90625 -93.6875 C 25.507812 -99.039062 28.804688 -105.882812 30.796875 -114.21875 L 41.4375 -114.21875 L 41.4375 -86.046875 L 61.96875 -86.046875 L 61.96875 -74.09375 L 41.4375 -74.09375 L 41.4375 -22.765625 C 41.4375 -14.304688 44.796875 -10.078125 51.515625 -10.078125 C 53.128906 -10.078125 54.929688 -10.265625 56.921875 -10.640625 C 58.910156 -11.015625 60.59375 -11.445312 61.96875 -11.9375 Z M 61.96875 -0.5625 "/></g></g></g><g fill="#ffffff" fill-opacity="1"><g transform="translate(431.870944, 713.134069)"><g><path d="M 69.0625 -59.171875 C 66.195312 -59.171875 63.953125 -59.695312 62.328125 -60.75 C 60.710938 -61.8125 59.222656 -63.273438 57.859375 -65.140625 C 56.734375 -66.503906 55.796875 -67.46875 55.046875 -68.03125 C 54.304688 -68.59375 53.378906 -68.875 52.265625 -68.875 C 48.398438 -68.875 45.160156 -67.128906 42.546875 -63.640625 L 42.546875 -16.046875 C 42.546875 -13.191406 43.226562 -11.234375 44.59375 -10.171875 C 45.96875 -9.109375 48.769531 -8.332031 53 -7.84375 L 53 0 L 3.546875 0 L 3.546875 -7.84375 C 7.773438 -8.332031 10.570312 -9.109375 11.9375 -10.171875 C 13.3125 -11.234375 14 -13.191406 14 -16.046875 L 14 -60.28125 C 14 -62.269531 13.625 -63.703125 12.875 -64.578125 C 12.132812 -65.453125 10.953125 -65.890625 9.328125 -65.890625 L 3.546875 -65.890625 L 3.546875 -73.15625 L 32.109375 -88.84375 L 42.546875 -88.84375 L 42.546875 -77.828125 C 45.410156 -81.066406 48.894531 -83.710938 53 -85.765625 C 57.113281 -87.816406 61.285156 -88.84375 65.515625 -88.84375 C 70.609375 -88.84375 74.617188 -87.503906 77.546875 -84.828125 C 80.472656 -82.148438 81.9375 -78.507812 81.9375 -73.90625 C 81.9375 -69.425781 80.691406 -65.847656 78.203125 -63.171875 C 75.710938 -60.503906 72.664062 -59.171875 69.0625 -59.171875 Z M 69.0625 -59.171875 "/></g></g></g><g fill="#ffffff" fill-opacity="1"><g transform="translate(515.10958, 713.134069)"><g><path d="M 34.34375 -47.96875 C 34.21875 -46.84375 34.15625 -45.222656 34.15625 -43.109375 C 34.15625 -31.910156 35.988281 -23.539062 39.65625 -18 C 43.332031 -12.46875 49.210938 -9.703125 57.296875 -9.703125 C 62.773438 -9.703125 67.90625 -11.503906 72.6875 -15.109375 C 77.476562 -18.722656 81.492188 -23.828125 84.734375 -30.421875 L 95 -24.640625 C 90.644531 -15.804688 85.234375 -9.023438 78.765625 -4.296875 C 72.296875 0.429688 63.957031 2.796875 53.75 2.796875 C 43.675781 2.796875 34.9375 0.835938 27.53125 -3.078125 C 20.125 -6.992188 14.460938 -12.40625 10.546875 -19.3125 C 6.628906 -26.21875 4.671875 -34.148438 4.671875 -43.109375 C 4.671875 -51.816406 6.597656 -59.65625 10.453125 -66.625 C 14.304688 -73.59375 19.75 -79.035156 26.78125 -82.953125 C 33.8125 -86.878906 41.804688 -88.84375 50.765625 -88.84375 C 64.078125 -88.84375 74.34375 -85.203125 81.5625 -77.921875 C 88.78125 -70.640625 92.390625 -60.65625 92.390625 -47.96875 Z M 65.328125 -59.90625 C 65.328125 -65.382812 64.050781 -69.707031 61.5 -72.875 C 58.945312 -76.050781 55.554688 -77.640625 51.328125 -77.640625 C 46.347656 -77.640625 42.582031 -76.207031 40.03125 -73.34375 C 37.476562 -70.488281 35.769531 -66.007812 34.90625 -59.90625 Z M 65.328125 -59.90625 "/></g></g></g><g fill="#ffffff" fill-opacity="1"><g transform="translate(614.025472, 713.134069)"><g><path d="M 34.34375 -47.96875 C 34.21875 -46.84375 34.15625 -45.222656 34.15625 -43.109375 C 34.15625 -31.910156 35.988281 -23.539062 39.65625 -18 C 43.332031 -12.46875 49.210938 -9.703125 57.296875 -9.703125 C 62.773438 -9.703125 67.90625 -11.503906 72.6875 -15.109375 C 77.476562 -18.722656 81.492188 -23.828125 84.734375 -30.421875 L 95 -24.640625 C 90.644531 -15.804688 85.234375 -9.023438 78.765625 -4.296875 C 72.296875 0.429688 63.957031 2.796875 53.75 2.796875 C 43.675781 2.796875 34.9375 0.835938 27.53125 -3.078125 C 20.125 -6.992188 14.460938 -12.40625 10.546875 -19.3125 C 6.628906 -26.21875 4.671875 -34.148438 4.671875 -43.109375 C 4.671875 -51.816406 6.597656 -59.65625 10.453125 -66.625 C 14.304688 -73.59375 19.75 -79.035156 26.78125 -82.953125 C 33.8125 -86.878906 41.804688 -88.84375 50.765625 -88.84375 C 64.078125 -88.84375 74.34375 -85.203125 81.5625 -77.921875 C 88.78125 -70.640625 92.390625 -60.65625 92.390625 -47.96875 Z M 65.328125 -59.90625 C 65.328125 -65.382812 64.050781 -69.707031 61.5 -72.875 C 58.945312 -76.050781 55.554688 -77.640625 51.328125 -77.640625 C 46.347656 -77.640625 42.582031 -76.207031 40.03125 -73.34375 C 37.476562 -70.488281 35.769531 -66.007812 34.90625 -59.90625 Z M 65.328125 -59.90625 "/></g></g></g><g fill="#ffffff" fill-opacity="1"><g transform="translate(712.946156, 713.134069)"><g/></g></g></svg>