<svg width="146" height="53" viewBox="0 0 146 53" fill="none" xmlns="http://www.w3.org/2000/svg">
<rect width="146" height="53" rx="4" fill="white" fill-opacity="0.8" style="fill:white;fill-opacity:0.8;"/>
<path d="M15.5341 13.3636V25H13.7727V15.125H13.7045L10.9205 16.9432V15.2614L13.8239 13.3636H15.5341ZM22.413 25.1932C21.5152 25.1894 20.7482 24.9527 20.1118 24.483C19.4755 24.0133 18.9887 23.3295 18.6516 22.4318C18.3145 21.5341 18.1459 20.4527 18.1459 19.1875C18.1459 17.9261 18.3145 16.8485 18.6516 15.9545C18.9925 15.0606 19.4811 14.3788 20.1175 13.9091C20.7577 13.4394 21.5228 13.2045 22.413 13.2045C23.3031 13.2045 24.0664 13.4413 24.7027 13.9148C25.3391 14.3845 25.8258 15.0663 26.163 15.9602C26.5039 16.8504 26.6743 17.9261 26.6743 19.1875C26.6743 20.4564 26.5058 21.5398 26.1686 22.4375C25.8315 23.3314 25.3448 24.0152 24.7084 24.4886C24.072 24.9583 23.3069 25.1932 22.413 25.1932ZM22.413 23.6761C23.2008 23.6761 23.8164 23.2917 24.2595 22.5227C24.7065 21.7538 24.93 20.642 24.93 19.1875C24.93 18.2216 24.8277 17.4053 24.6232 16.7386C24.4224 16.0682 24.1327 15.5606 23.7539 15.2159C23.3789 14.8674 22.9319 14.6932 22.413 14.6932C21.6289 14.6932 21.0133 15.0795 20.5664 15.8523C20.1194 16.625 19.894 17.7367 19.8902 19.1875C19.8902 20.1572 19.9906 20.9773 20.1914 21.6477C20.3959 22.3144 20.6857 22.8201 21.0607 23.1648C21.4357 23.5057 21.8864 23.6761 22.413 23.6761ZM32.4324 25.1591C31.9135 25.1515 31.4021 25.0568 30.8984 24.875C30.3984 24.6932 29.9438 24.3902 29.5347 23.9659C29.1256 23.5417 28.798 22.9716 28.5518 22.2557C28.3093 21.5398 28.1881 20.6458 28.1881 19.5739C28.1881 18.5587 28.2885 17.6572 28.4893 16.8693C28.6938 16.0814 28.9874 15.4167 29.3699 14.875C29.7525 14.3295 30.2146 13.9148 30.7563 13.6307C31.298 13.3466 31.9059 13.2045 32.5802 13.2045C33.2734 13.2045 33.8889 13.3409 34.4268 13.6136C34.9646 13.8864 35.4002 14.2633 35.7336 14.7443C36.0707 15.2254 36.2847 15.7727 36.3756 16.3864H34.6427C34.5252 15.9015 34.2923 15.5057 33.9438 15.1989C33.5953 14.892 33.1408 14.7386 32.5802 14.7386C31.7279 14.7386 31.0631 15.1098 30.5859 15.8523C30.1124 16.5947 29.8737 17.6269 29.8699 18.9489H29.9552C30.1559 18.6193 30.4021 18.339 30.6938 18.108C30.9893 17.8731 31.3188 17.6932 31.6824 17.5682C32.0499 17.4394 32.4362 17.375 32.8415 17.375C33.5158 17.375 34.1256 17.5398 34.6711 17.8693C35.2203 18.1951 35.6578 18.6458 35.9836 19.2216C36.3093 19.7973 36.4722 20.4564 36.4722 21.1989C36.4722 21.9413 36.3037 22.6136 35.9665 23.2159C35.6332 23.8182 35.1635 24.2955 34.5574 24.6477C33.9514 24.9962 33.2431 25.1667 32.4324 25.1591ZM32.4268 23.6818C32.8737 23.6818 33.2734 23.572 33.6256 23.3523C33.9779 23.1326 34.2563 22.8371 34.4609 22.4659C34.6654 22.0947 34.7677 21.6799 34.7677 21.2216C34.7677 20.7746 34.6673 20.3674 34.4665 20C34.2696 19.6326 33.9968 19.3409 33.6484 19.125C33.3037 18.9091 32.9097 18.8011 32.4665 18.8011C32.1294 18.8011 31.8169 18.8655 31.529 18.9943C31.2449 19.1231 30.9949 19.3011 30.779 19.5284C30.5631 19.7557 30.3927 20.017 30.2677 20.3125C30.1465 20.6042 30.0859 20.9129 30.0859 21.2386C30.0859 21.6742 30.1862 22.0777 30.387 22.4489C30.5915 22.8201 30.8699 23.1193 31.2222 23.3466C31.5783 23.5701 31.9798 23.6818 32.4268 23.6818ZM38.8326 25.108C38.522 25.108 38.255 24.9981 38.0315 24.7784C37.808 24.5549 37.6963 24.286 37.6963 23.9716C37.6963 23.661 37.808 23.3958 38.0315 23.1761C38.255 22.9527 38.522 22.8409 38.8326 22.8409C39.1432 22.8409 39.4103 22.9527 39.6338 23.1761C39.8572 23.3958 39.969 23.661 39.969 23.9716C39.969 24.1799 39.9159 24.3712 39.8099 24.5455C39.7076 24.7159 39.5713 24.8523 39.4008 24.9545C39.2303 25.0568 39.0409 25.108 38.8326 25.108ZM41.997 25L47.0765 14.9545V14.8693H41.2015V13.3636H48.8947V14.9205L43.8322 25H41.997ZM52.2722 19.8182V25H50.5733V13.3636H52.2494V17.6932H52.3574C52.5619 17.2235 52.8744 16.8504 53.2949 16.5739C53.7153 16.2973 54.2646 16.1591 54.9426 16.1591C55.5411 16.1591 56.0638 16.2822 56.5108 16.5284C56.9616 16.7746 57.31 17.142 57.5563 17.6307C57.8063 18.1155 57.9313 18.7216 57.9313 19.4489V25H56.2324V19.6534C56.2324 19.0133 56.0676 18.517 55.7381 18.1648C55.4085 17.8087 54.9502 17.6307 54.3631 17.6307C53.9616 17.6307 53.6017 17.7159 53.2835 17.8864C52.9691 18.0568 52.721 18.3068 52.5392 18.6364C52.3612 18.9621 52.2722 19.3561 52.2722 19.8182Z" fill="black" style="fill:black;fill-opacity:1;"/>
<rect x="106.25" y="11.75" width="29.5" height="15.5" rx="2.75" fill="#4E9970" fill-opacity="0.1" style="fill:#4E9970;fill:color(display-p3 0.3059 0.6000 0.4392);fill-opacity:0.1;"/>
<rect x="106.25" y="11.75" width="29.5" height="15.5" rx="2.75" stroke="#4E9970" style="stroke:#4E9970;stroke:color(display-p3 0.3059 0.6000 0.4392);stroke-opacity:1;" stroke-width="0.5"/>
<path d="M115.167 18.3333V21.6667H111.833M111 17.5L115 21.5" stroke="#4E9970" style="stroke:#4E9970;stroke:color(display-p3 0.3059 0.6000 0.4392);stroke-opacity:1;" stroke-linecap="round" stroke-linejoin="round"/>
<path d="M121.421 16.9091V22H120.651V17.6797H120.621L119.403 18.4751V17.7393L120.673 16.9091H121.421ZM122.798 22V21.4432L124.521 19.6584C124.705 19.4645 124.857 19.2946 124.976 19.1488C125.097 19.0013 125.187 18.8613 125.247 18.7287C125.306 18.5961 125.336 18.4553 125.336 18.3061C125.336 18.1371 125.297 17.9912 125.217 17.8686C125.137 17.7443 125.029 17.649 124.891 17.5827C124.754 17.5148 124.599 17.4808 124.426 17.4808C124.244 17.4808 124.085 17.5181 123.949 17.5927C123.813 17.6673 123.709 17.7725 123.636 17.9084C123.563 18.0443 123.527 18.2034 123.527 18.3857H122.793C122.793 18.0758 122.865 17.8048 123.007 17.5728C123.15 17.3408 123.345 17.161 123.594 17.0334C123.842 16.9041 124.125 16.8395 124.441 16.8395C124.761 16.8395 125.043 16.9033 125.287 17.0309C125.532 17.1568 125.723 17.3292 125.861 17.5479C125.998 17.765 126.067 18.0103 126.067 18.2837C126.067 18.4727 126.031 18.6574 125.96 18.8381C125.891 19.0187 125.769 19.2201 125.595 19.4421C125.421 19.6625 125.179 19.9302 124.869 20.245L123.857 21.304V21.3413H126.149V22H122.798ZM129.749 21.0455V20.777C129.749 20.5848 129.788 20.4091 129.868 20.25C129.949 20.0893 130.067 19.9608 130.221 19.8647C130.377 19.7669 130.565 19.718 130.785 19.718C131.011 19.718 131.199 19.7661 131.352 19.8622C131.504 19.9583 131.62 20.0868 131.697 20.2475C131.777 20.4083 131.817 20.5848 131.817 20.777V21.0455C131.817 21.2377 131.777 21.4142 131.697 21.5749C131.618 21.734 131.501 21.8625 131.347 21.9602C131.194 22.0563 131.007 22.1044 130.785 22.1044C130.561 22.1044 130.373 22.0563 130.218 21.9602C130.064 21.8625 129.947 21.734 129.868 21.5749C129.788 21.4142 129.749 21.2377 129.749 21.0455ZM130.328 20.777V21.0455C130.328 21.188 130.362 21.3172 130.43 21.4332C130.498 21.5492 130.616 21.6072 130.785 21.6072C130.953 21.6072 131.069 21.5492 131.136 21.4332C131.202 21.3172 131.235 21.188 131.235 21.0455V20.777C131.235 20.6345 131.203 20.5052 131.138 20.3892C131.075 20.2732 130.958 20.2152 130.785 20.2152C130.619 20.2152 130.502 20.2732 130.432 20.3892C130.363 20.5052 130.328 20.6345 130.328 20.777ZM127.188 18.1321V17.8636C127.188 17.6714 127.228 17.4949 127.308 17.3342C127.389 17.1734 127.506 17.045 127.661 16.9489C127.816 16.8527 128.004 16.8047 128.225 16.8047C128.45 16.8047 128.639 16.8527 128.792 16.9489C128.944 17.045 129.059 17.1734 129.137 17.3342C129.215 17.4949 129.254 17.6714 129.254 17.8636V18.1321C129.254 18.3243 129.214 18.5008 129.135 18.6616C129.057 18.8207 128.941 18.9491 128.787 19.0469C128.634 19.143 128.447 19.1911 128.225 19.1911C127.999 19.1911 127.81 19.143 127.656 19.0469C127.503 18.9491 127.387 18.8207 127.308 18.6616C127.228 18.5008 127.188 18.3243 127.188 18.1321ZM127.77 17.8636V18.1321C127.77 18.2746 127.803 18.4039 127.869 18.5199C127.937 18.6359 128.056 18.6939 128.225 18.6939C128.391 18.6939 128.507 18.6359 128.573 18.5199C128.641 18.4039 128.675 18.2746 128.675 18.1321V17.8636C128.675 17.7211 128.642 17.5919 128.578 17.4759C128.513 17.3598 128.395 17.3018 128.225 17.3018C128.059 17.3018 127.941 17.3598 127.872 17.4759C127.804 17.5919 127.77 17.7211 127.77 17.8636ZM127.424 22L130.924 16.9091H131.518L128.018 22H127.424Z" fill="#4E9970" style="fill:#4E9970;fill:color(display-p3 0.3059 0.6000 0.4392);fill-opacity:1;"/>
<path d="M10.483 34.5085V33.7273H15.9375V34.5085H13.6506V41H12.7699V34.5085H10.483ZM18.608 41.1136C18.1155 41.1136 17.6835 40.9964 17.3118 40.7621C16.9425 40.5277 16.6536 40.1998 16.4453 39.7784C16.2393 39.357 16.1364 38.8646 16.1364 38.3011C16.1364 37.733 16.2393 37.237 16.4453 36.8132C16.6536 36.3894 16.9425 36.0604 17.3118 35.826C17.6835 35.5916 18.1155 35.4744 18.608 35.4744C19.1004 35.4744 19.5313 35.5916 19.9006 35.826C20.2723 36.0604 20.5611 36.3894 20.767 36.8132C20.9754 37.237 21.0795 37.733 21.0795 38.3011C21.0795 38.8646 20.9754 39.357 20.767 39.7784C20.5611 40.1998 20.2723 40.5277 19.9006 40.7621C19.5313 40.9964 19.1004 41.1136 18.608 41.1136ZM18.608 40.3608C18.982 40.3608 19.2898 40.2649 19.5312 40.0732C19.7727 39.8814 19.9515 39.6293 20.0675 39.3168C20.1835 39.0043 20.2415 38.6657 20.2415 38.3011C20.2415 37.9366 20.1835 37.5968 20.0675 37.282C19.9515 36.9671 19.7727 36.7126 19.5312 36.5185C19.2898 36.3243 18.982 36.2273 18.608 36.2273C18.2339 36.2273 17.9261 36.3243 17.6847 36.5185C17.4432 36.7126 17.2644 36.9671 17.1484 37.282C17.0324 37.5968 16.9744 37.9366 16.9744 38.3011C16.9744 38.6657 17.0324 39.0043 17.1484 39.3168C17.2644 39.6293 17.4432 39.8814 17.6847 40.0732C17.9261 40.2649 18.2339 40.3608 18.608 40.3608ZM24.731 35.5455V36.2557H21.9043V35.5455H24.731ZM22.7282 34.2386H23.5662V39.4375C23.5662 39.6742 23.6006 39.8518 23.6692 39.9702C23.7402 40.0862 23.8302 40.1643 23.9391 40.2045C24.0504 40.2424 24.1676 40.2614 24.2907 40.2614C24.383 40.2614 24.4587 40.2566 24.5179 40.2472C24.5771 40.2353 24.6245 40.2259 24.66 40.2188L24.8304 40.9716C24.7736 40.9929 24.6943 41.0142 24.5925 41.0355C24.4907 41.0592 24.3617 41.071 24.2054 41.071C23.9687 41.071 23.7367 41.0201 23.5094 40.9183C23.2845 40.8165 23.0975 40.6615 22.9483 40.4531C22.8016 40.2448 22.7282 39.982 22.7282 39.6648V34.2386ZM27.5968 41.1278C27.2511 41.1278 26.9374 41.0627 26.6557 40.9325C26.374 40.8 26.1503 40.6094 25.9846 40.3608C25.8188 40.1098 25.736 39.8068 25.736 39.4517C25.736 39.1392 25.7975 38.8859 25.9206 38.6918C26.0437 38.4953 26.2083 38.3414 26.4142 38.2301C26.6202 38.1188 26.8475 38.036 27.0961 37.9815C27.347 37.9247 27.5991 37.8797 27.8525 37.8466C28.1839 37.804 28.4526 37.772 28.6586 37.7507C28.8669 37.727 29.0184 37.688 29.1131 37.6335C29.2102 37.5791 29.2587 37.4844 29.2587 37.3494V37.321C29.2587 36.9706 29.1628 36.6984 28.9711 36.5043C28.7817 36.3101 28.494 36.2131 28.1081 36.2131C27.708 36.2131 27.3944 36.3007 27.1671 36.4759C26.9398 36.651 26.78 36.8381 26.6877 37.0369L25.8922 36.7528C26.0343 36.4214 26.2237 36.1634 26.4604 35.9787C26.6995 35.7917 26.9599 35.6615 27.2417 35.5881C27.5257 35.5123 27.8051 35.4744 28.0797 35.4744C28.2549 35.4744 28.4561 35.4957 28.6834 35.5384C28.9131 35.5786 29.1344 35.6626 29.3475 35.7905C29.5629 35.9183 29.7417 36.1113 29.8837 36.3693C30.0257 36.6274 30.0968 36.973 30.0968 37.4062V41H29.2587V40.2614H29.2161C29.1593 40.3797 29.0646 40.5064 28.932 40.6413C28.7994 40.7763 28.623 40.8911 28.4029 40.9858C28.1827 41.0805 27.914 41.1278 27.5968 41.1278ZM27.7246 40.375C28.056 40.375 28.3354 40.3099 28.5627 40.1797C28.7923 40.0495 28.9651 39.8814 29.0811 39.6754C29.1995 39.4695 29.2587 39.2528 29.2587 39.0256V38.2585C29.2232 38.3011 29.1451 38.3402 29.0243 38.3757C28.906 38.4089 28.7686 38.4384 28.6124 38.4645C28.4585 38.4882 28.3082 38.5095 28.1614 38.5284C28.017 38.545 27.8998 38.5592 27.8098 38.571C27.592 38.5994 27.3884 38.6456 27.199 38.7095C27.012 38.7711 26.8605 38.8646 26.7445 38.9901C26.6309 39.1132 26.574 39.2812 26.574 39.4943C26.574 39.7855 26.6818 40.0057 26.8972 40.1548C27.115 40.3016 27.3908 40.375 27.7246 40.375ZM32.4645 33.7273V41H31.6264V33.7273H32.4645ZM38.8716 41.1136C38.4171 41.1136 38.0158 40.9988 37.6678 40.7692C37.3198 40.5372 37.0475 40.2105 36.851 39.7891C36.6545 39.3653 36.5563 38.8646 36.5563 38.2869C36.5563 37.714 36.6545 37.2169 36.851 36.7955C37.0475 36.3741 37.321 36.0485 37.6713 35.8189C38.0217 35.5893 38.4266 35.4744 38.8858 35.4744C39.2409 35.4744 39.5215 35.5336 39.7275 35.652C39.9358 35.768 40.0944 35.9006 40.2033 36.0497C40.3146 36.1965 40.401 36.3172 40.4625 36.4119H40.5336V33.7273H41.3716V41H40.562V40.1619H40.4625C40.401 40.2614 40.3134 40.3868 40.1998 40.5384C40.0861 40.6875 39.9239 40.8213 39.7132 40.9396C39.5025 41.0556 39.222 41.1136 38.8716 41.1136ZM38.9853 40.3608C39.3214 40.3608 39.6055 40.2732 39.8375 40.098C40.0695 39.9205 40.2459 39.6754 40.3667 39.3629C40.4874 39.0481 40.5478 38.6847 40.5478 38.2727C40.5478 37.8655 40.4886 37.5092 40.3702 37.2038C40.2518 36.8961 40.0766 36.657 39.8446 36.4865C39.6126 36.3137 39.3262 36.2273 38.9853 36.2273C38.6301 36.2273 38.3342 36.3184 38.0975 36.5007C37.8631 36.6806 37.6867 36.9257 37.5684 37.2358C37.4524 37.5436 37.3944 37.8892 37.3944 38.2727C37.3944 38.661 37.4535 39.0137 37.5719 39.331C37.6926 39.6458 37.8702 39.8968 38.1046 40.0838C38.3413 40.2685 38.6349 40.3608 38.9853 40.3608ZM46.4604 38.7699V35.5455H47.2985V41H46.4604V40.0767H46.4036C46.2757 40.3537 46.0769 40.5893 45.807 40.7834C45.5371 40.9751 45.1962 41.071 44.7843 41.071C44.4434 41.071 44.1403 40.9964 43.8752 40.8473C43.61 40.6958 43.4017 40.4685 43.2502 40.1655C43.0987 39.8601 43.0229 39.4754 43.0229 39.0114V35.5455H43.861V38.9545C43.861 39.3523 43.9722 39.6695 44.1948 39.9062C44.4197 40.143 44.7061 40.2614 45.0542 40.2614C45.2625 40.2614 45.4744 40.2081 45.6898 40.1016C45.9076 39.995 46.0899 39.8317 46.2367 39.6115C46.3858 39.3913 46.4604 39.1108 46.4604 38.7699ZM48.8335 41V35.5455H49.6431V36.3693H49.6999C49.7994 36.0994 49.9793 35.8804 50.2397 35.7124C50.5001 35.5443 50.7937 35.4602 51.1204 35.4602C51.1819 35.4602 51.2589 35.4614 51.3512 35.4638C51.4435 35.4661 51.5134 35.4697 51.5607 35.4744V36.3267C51.5323 36.3196 51.4672 36.3089 51.3654 36.2947C51.266 36.2782 51.1606 36.2699 51.0494 36.2699C50.7842 36.2699 50.5475 36.3255 50.3391 36.4368C50.1332 36.5457 49.9698 36.6972 49.8491 36.8913C49.7307 37.0831 49.6715 37.3021 49.6715 37.5483V41H48.8335ZM54.1593 41.1278C53.8136 41.1278 53.4999 41.0627 53.2182 40.9325C52.9365 40.8 52.7128 40.6094 52.5471 40.3608C52.3813 40.1098 52.2985 39.8068 52.2985 39.4517C52.2985 39.1392 52.36 38.8859 52.4831 38.6918C52.6062 38.4953 52.7708 38.3414 52.9767 38.2301C53.1827 38.1188 53.41 38.036 53.6586 37.9815C53.9095 37.9247 54.1616 37.8797 54.415 37.8466C54.7464 37.804 55.0151 37.772 55.2211 37.7507C55.4294 37.727 55.5809 37.688 55.6756 37.6335C55.7727 37.5791 55.8212 37.4844 55.8212 37.3494V37.321C55.8212 36.9706 55.7253 36.6984 55.5336 36.5043C55.3442 36.3101 55.0565 36.2131 54.6706 36.2131C54.2705 36.2131 53.9569 36.3007 53.7296 36.4759C53.5023 36.651 53.3425 36.8381 53.2502 37.0369L52.4547 36.7528C52.5968 36.4214 52.7862 36.1634 53.0229 35.9787C53.262 35.7917 53.5224 35.6615 53.8042 35.5881C54.0882 35.5123 54.3676 35.4744 54.6422 35.4744C54.8174 35.4744 55.0186 35.4957 55.2459 35.5384C55.4756 35.5786 55.6969 35.6626 55.91 35.7905C56.1254 35.9183 56.3042 36.1113 56.4462 36.3693C56.5882 36.6274 56.6593 36.973 56.6593 37.4062V41H55.8212V40.2614H55.7786C55.7218 40.3797 55.6271 40.5064 55.4945 40.6413C55.3619 40.7763 55.1855 40.8911 54.9654 40.9858C54.7452 41.0805 54.4765 41.1278 54.1593 41.1278ZM54.2871 40.375C54.6185 40.375 54.8979 40.3099 55.1252 40.1797C55.3548 40.0495 55.5276 39.8814 55.6436 39.6754C55.762 39.4695 55.8212 39.2528 55.8212 39.0256V38.2585C55.7857 38.3011 55.7076 38.3402 55.5868 38.3757C55.4685 38.4089 55.3311 38.4384 55.1749 38.4645C55.021 38.4882 54.8707 38.5095 54.7239 38.5284C54.5795 38.545 54.4623 38.5592 54.3723 38.571C54.1545 38.5994 53.9509 38.6456 53.7615 38.7095C53.5745 38.7711 53.423 38.8646 53.307 38.9901C53.1934 39.1132 53.1365 39.2812 53.1365 39.4943C53.1365 39.7855 53.2443 40.0057 53.4597 40.1548C53.6775 40.3016 53.9533 40.375 54.2871 40.375ZM60.5611 35.5455V36.2557H57.7344V35.5455H60.5611ZM58.5582 34.2386H59.3963V39.4375C59.3963 39.6742 59.4306 39.8518 59.4993 39.9702C59.5703 40.0862 59.6603 40.1643 59.7692 40.2045C59.8804 40.2424 59.9976 40.2614 60.1207 40.2614C60.2131 40.2614 60.2888 40.2566 60.348 40.2472C60.4072 40.2353 60.4545 40.2259 60.4901 40.2188L60.6605 40.9716C60.6037 40.9929 60.5244 41.0142 60.4226 41.0355C60.3208 41.0592 60.1918 41.071 60.0355 41.071C59.7988 41.071 59.5668 41.0201 59.3395 40.9183C59.1146 40.8165 58.9276 40.6615 58.7784 40.4531C58.6316 40.2448 58.5582 39.982 58.5582 39.6648V34.2386ZM61.8217 41V35.5455H62.6598V41H61.8217ZM62.2479 34.6364C62.0845 34.6364 61.9437 34.5807 61.8253 34.4695C61.7093 34.3582 61.6513 34.2244 61.6513 34.0682C61.6513 33.9119 61.7093 33.7782 61.8253 33.6669C61.9437 33.5556 62.0845 33.5 62.2479 33.5C62.4112 33.5 62.5509 33.5556 62.6669 33.6669C62.7853 33.7782 62.8445 33.9119 62.8445 34.0682C62.8445 34.2244 62.7853 34.3582 62.6669 34.4695C62.5509 34.5807 62.4112 34.6364 62.2479 34.6364ZM66.4107 41.1136C65.9183 41.1136 65.4862 40.9964 65.1145 40.7621C64.7452 40.5277 64.4564 40.1998 64.248 39.7784C64.0421 39.357 63.9391 38.8646 63.9391 38.3011C63.9391 37.733 64.0421 37.237 64.248 36.8132C64.4564 36.3894 64.7452 36.0604 65.1145 35.826C65.4862 35.5916 65.9183 35.4744 66.4107 35.4744C66.9031 35.4744 67.334 35.5916 67.7033 35.826C68.075 36.0604 68.3638 36.3894 68.5698 36.8132C68.7781 37.237 68.8823 37.733 68.8823 38.3011C68.8823 38.8646 68.7781 39.357 68.5698 39.7784C68.3638 40.1998 68.075 40.5277 67.7033 40.7621C67.334 40.9964 66.9031 41.1136 66.4107 41.1136ZM66.4107 40.3608C66.7847 40.3608 67.0925 40.2649 67.334 40.0732C67.5755 39.8814 67.7542 39.6293 67.8702 39.3168C67.9862 39.0043 68.0442 38.6657 68.0442 38.3011C68.0442 37.9366 67.9862 37.5968 67.8702 37.282C67.7542 36.9671 67.5755 36.7126 67.334 36.5185C67.0925 36.3243 66.7847 36.2273 66.4107 36.2273C66.0366 36.2273 65.7289 36.3243 65.4874 36.5185C65.2459 36.7126 65.0672 36.9671 64.9512 37.282C64.8352 37.5968 64.7772 37.9366 64.7772 38.3011C64.7772 38.6657 64.8352 39.0043 64.9512 39.3168C65.0672 39.6293 65.2459 39.8814 65.4874 40.0732C65.7289 40.2649 66.0366 40.3608 66.4107 40.3608ZM70.9996 37.7188V41H70.1616V35.5455H70.9712V36.3977H71.0423C71.1701 36.1207 71.3642 35.8982 71.6246 35.7301C71.8851 35.5597 72.2212 35.4744 72.6332 35.4744C73.0025 35.4744 73.3256 35.5502 73.6026 35.7017C73.8796 35.8509 74.0951 36.0781 74.2489 36.3835C74.4028 36.6866 74.4798 37.0701 74.4798 37.5341V41H73.6417V37.5909C73.6417 37.1624 73.5304 36.8286 73.3079 36.5895C73.0853 36.348 72.7799 36.2273 72.3917 36.2273C72.1242 36.2273 71.8851 36.2853 71.6744 36.4013C71.466 36.5173 71.3015 36.6866 71.1808 36.9091C71.06 37.1316 70.9996 37.4015 70.9996 37.7188Z" fill="black" fill-opacity="0.5" style="fill:black;fill-opacity:0.5;"/>
</svg>
