<svg width="160" height="53" viewBox="0 0 160 53" fill="none" xmlns="http://www.w3.org/2000/svg">
<rect width="160" height="53" rx="4" fill="white" fill-opacity="0.8" style="fill:white;fill-opacity:0.8;"/>
<path d="M14.7102 26.4545V11.9091H15.642V26.4545H14.7102ZM17.625 16.4205C17.5644 15.8826 17.3144 15.4659 16.875 15.1705C16.4356 14.8712 15.8826 14.7216 15.2159 14.7216C14.7386 14.7216 14.3258 14.7973 13.9773 14.9489C13.6288 15.0966 13.358 15.3011 13.1648 15.5625C12.9754 15.8201 12.8807 16.1136 12.8807 16.4432C12.8807 16.7197 12.9451 16.9583 13.0739 17.1591C13.2064 17.3598 13.3788 17.5284 13.5909 17.6648C13.8068 17.7973 14.0379 17.9091 14.2841 18C14.5303 18.0871 14.767 18.1591 14.9943 18.2159L16.1307 18.5114C16.5019 18.6023 16.8826 18.7254 17.2727 18.8807C17.6629 19.036 18.0246 19.2405 18.358 19.4943C18.6913 19.7481 18.9602 20.0625 19.1648 20.4375C19.3731 20.8125 19.4773 21.2614 19.4773 21.7841C19.4773 22.4432 19.3068 23.0284 18.9659 23.5398C18.6288 24.0511 18.1383 24.4545 17.4943 24.75C16.8542 25.0455 16.0795 25.1932 15.1705 25.1932C14.2992 25.1932 13.5455 25.0549 12.9091 24.7784C12.2727 24.5019 11.7746 24.1098 11.4148 23.6023C11.0549 23.0909 10.8561 22.4848 10.8182 21.7841H12.5795C12.6136 22.2045 12.75 22.5549 12.9886 22.8352C13.2311 23.1117 13.5398 23.3182 13.9148 23.4545C14.2936 23.5871 14.7083 23.6534 15.1591 23.6534C15.6553 23.6534 16.0966 23.5758 16.483 23.4205C16.8731 23.2614 17.1799 23.0417 17.4034 22.7614C17.6269 22.4773 17.7386 22.1458 17.7386 21.767C17.7386 21.4223 17.6402 21.1402 17.4432 20.9205C17.25 20.7008 16.9867 20.5189 16.6534 20.375C16.3239 20.2311 15.9508 20.1042 15.5341 19.9943L14.1591 19.6193C13.2273 19.3655 12.4886 18.9924 11.9432 18.5C11.4015 18.0076 11.1307 17.3561 11.1307 16.5455C11.1307 15.875 11.3125 15.2898 11.6761 14.7898C12.0398 14.2898 12.5322 13.9015 13.1534 13.625C13.7746 13.3447 14.4754 13.2045 15.2557 13.2045C16.0436 13.2045 16.7386 13.3428 17.3409 13.6193C17.947 13.8958 18.4242 14.2765 18.7727 14.7614C19.1212 15.2424 19.303 15.7955 19.3182 16.4205H17.625ZM21.0962 25V23.7273L25.0337 19.6477C25.4541 19.2045 25.8007 18.8163 26.0735 18.483C26.35 18.1458 26.5564 17.8258 26.6928 17.5227C26.8291 17.2197 26.8973 16.8977 26.8973 16.5568C26.8973 16.1705 26.8064 15.8371 26.6246 15.5568C26.4428 15.2727 26.1947 15.0549 25.8803 14.9034C25.5659 14.7481 25.2117 14.6705 24.8178 14.6705C24.4011 14.6705 24.0375 14.7557 23.7269 14.9261C23.4163 15.0966 23.1776 15.3371 23.011 15.6477C22.8443 15.9583 22.761 16.322 22.761 16.7386H21.0848C21.0848 16.0303 21.2477 15.411 21.5735 14.8807C21.8992 14.3504 22.3462 13.9394 22.9144 13.6477C23.4826 13.3523 24.1284 13.2045 24.8519 13.2045C25.5829 13.2045 26.2269 13.3504 26.7837 13.642C27.3443 13.9299 27.7818 14.3239 28.0962 14.8239C28.4106 15.3201 28.5678 15.8807 28.5678 16.5057C28.5678 16.9375 28.4863 17.3598 28.3235 17.7727C28.1644 18.1856 27.886 18.6458 27.4882 19.1534C27.0905 19.6572 26.5375 20.2689 25.8291 20.9886L23.5166 23.4091V23.4943H28.7553V25H21.0962ZM32.8216 23.4091L32.7364 24.0284C32.6796 24.483 32.583 24.9564 32.4466 25.4489C32.3141 25.9451 32.1758 26.4053 32.0319 26.8295C31.8917 27.2538 31.7762 27.5909 31.6853 27.8409H30.4807C30.53 27.6061 30.5982 27.2879 30.6853 26.8864C30.7724 26.4886 30.8576 26.0436 30.941 25.5511C31.0243 25.0587 31.0868 24.5568 31.1285 24.0455L31.1853 23.4091H32.8216ZM34.6338 22.7273V21.3068L39.6622 13.3636H40.7815V15.4545H40.0713L36.4747 21.1477V21.2386H43.3667V22.7273H34.6338ZM40.1508 25V22.2955L40.1622 21.6477V13.3636H41.8269V25H40.1508ZM48.8677 25.1591C48.1556 25.1591 47.5155 25.0227 46.9473 24.75C46.3829 24.4735 45.9321 24.0947 45.595 23.6136C45.2579 23.1326 45.078 22.5833 45.0552 21.9659H46.7598C46.8014 22.4659 47.023 22.8769 47.4245 23.1989C47.8261 23.5208 48.3071 23.6818 48.8677 23.6818C49.3147 23.6818 49.7105 23.5795 50.0552 23.375C50.4037 23.1667 50.6764 22.8807 50.8734 22.517C51.0742 22.1534 51.1745 21.7386 51.1745 21.2727C51.1745 20.7992 51.0723 20.3769 50.8677 20.0057C50.6632 19.6345 50.381 19.3428 50.0211 19.1307C49.6651 18.9186 49.256 18.8106 48.7939 18.8068C48.4416 18.8068 48.0874 18.8674 47.7314 18.9886C47.3753 19.1098 47.0874 19.2689 46.8677 19.4659L45.2598 19.2273L45.9132 13.3636H52.3109V14.8693H47.3734L47.0041 18.125H47.0723C47.2995 17.9053 47.6007 17.7216 47.9757 17.5739C48.3545 17.4261 48.7598 17.3523 49.1916 17.3523C49.8999 17.3523 50.5306 17.5208 51.0836 17.858C51.6405 18.1951 52.078 18.6553 52.3961 19.2386C52.7181 19.8182 52.8772 20.4848 52.8734 21.2386C52.8772 21.9924 52.7067 22.6648 52.362 23.2557C52.0211 23.8466 51.5477 24.3125 50.9416 24.6534C50.3393 24.9905 49.648 25.1591 48.8677 25.1591ZM58.6798 25.1591C57.8995 25.1591 57.2026 25.0246 56.5889 24.7557C55.9791 24.4867 55.4961 24.1136 55.1401 23.6364C54.7878 23.1553 54.5984 22.5985 54.5719 21.9659H56.356C56.3787 22.3106 56.4942 22.6098 56.7026 22.8636C56.9147 23.1136 57.1912 23.3068 57.5321 23.4432C57.873 23.5795 58.2518 23.6477 58.6685 23.6477C59.1268 23.6477 59.5321 23.5682 59.8844 23.4091C60.2404 23.25 60.5188 23.0284 60.7196 22.7443C60.9204 22.4564 61.0207 22.125 61.0207 21.75C61.0207 21.3598 60.9204 21.017 60.7196 20.7216C60.5226 20.4223 60.2329 20.1875 59.8503 20.017C59.4715 19.8466 59.0132 19.7614 58.4753 19.7614H57.4923V18.3295H58.4753C58.9071 18.3295 59.2859 18.2519 59.6116 18.0966C59.9412 17.9413 60.1988 17.7254 60.3844 17.4489C60.57 17.1686 60.6628 16.8409 60.6628 16.4659C60.6628 16.1061 60.5813 15.7936 60.4185 15.5284C60.2594 15.2595 60.0321 15.0492 59.7366 14.8977C59.445 14.7462 59.1003 14.6705 58.7026 14.6705C58.3238 14.6705 57.9696 14.7405 57.6401 14.8807C57.3143 15.017 57.0491 15.214 56.8446 15.4716C56.6401 15.7254 56.5302 16.0303 56.5151 16.3864H54.8162C54.8351 15.7576 55.0207 15.2045 55.373 14.7273C55.7291 14.25 56.1988 13.8769 56.7821 13.608C57.3654 13.339 58.0132 13.2045 58.7253 13.2045C59.4715 13.2045 60.1154 13.3504 60.6571 13.642C61.2026 13.9299 61.623 14.3144 61.9185 14.7955C62.2177 15.2765 62.3654 15.803 62.3616 16.375C62.3654 17.0265 62.1836 17.5795 61.8162 18.0341C61.4526 18.4886 60.9677 18.7936 60.3616 18.9489V19.0398C61.1344 19.1572 61.7329 19.464 62.1571 19.9602C62.5851 20.4564 62.7973 21.072 62.7935 21.8068C62.7973 22.447 62.6192 23.0208 62.2594 23.5284C61.9033 24.036 61.4166 24.4356 60.7991 24.7273C60.1817 25.0152 59.4753 25.1591 58.6798 25.1591ZM65.4195 25.108C65.1089 25.108 64.8418 24.9981 64.6184 24.7784C64.3949 24.5549 64.2831 24.286 64.2831 23.9716C64.2831 23.661 64.3949 23.3958 64.6184 23.1761C64.8418 22.9527 65.1089 22.8409 65.4195 22.8409C65.7301 22.8409 65.9971 22.9527 66.2206 23.1761C66.4441 23.3958 66.5559 23.661 66.5559 23.9716C66.5559 24.1799 66.5028 24.3712 66.3968 24.5455C66.2945 24.7159 66.1581 24.8523 65.9877 24.9545C65.8172 25.0568 65.6278 25.108 65.4195 25.108ZM71.4972 13.3636V25H69.7359V15.125H69.6677L66.8836 16.9432V15.2614L69.787 13.3636H71.4972ZM78.3761 25.1932C77.4784 25.1894 76.7113 24.9527 76.0749 24.483C75.4386 24.0133 74.9518 23.3295 74.6147 22.4318C74.2776 21.5341 74.109 20.4527 74.109 19.1875C74.109 17.9261 74.2776 16.8485 74.6147 15.9545C74.9556 15.0606 75.4443 14.3788 76.0806 13.9091C76.7208 13.4394 77.4859 13.2045 78.3761 13.2045C79.2662 13.2045 80.0295 13.4413 80.6659 13.9148C81.3022 14.3845 81.789 15.0663 82.1261 15.9602C82.467 16.8504 82.6374 17.9261 82.6374 19.1875C82.6374 20.4564 82.4689 21.5398 82.1318 22.4375C81.7946 23.3314 81.3079 24.0152 80.6715 24.4886C80.0352 24.9583 79.27 25.1932 78.3761 25.1932ZM78.3761 23.6761C79.164 23.6761 79.7795 23.2917 80.2227 22.5227C80.6696 21.7538 80.8931 20.642 80.8931 19.1875C80.8931 18.2216 80.7909 17.4053 80.5863 16.7386C80.3855 16.0682 80.0958 15.5606 79.717 15.2159C79.342 14.8674 78.895 14.6932 78.3761 14.6932C77.592 14.6932 76.9765 15.0795 76.5295 15.8523C76.0825 16.625 75.8571 17.7367 75.8534 19.1875C75.8534 20.1572 75.9537 20.9773 76.1545 21.6477C76.359 22.3144 76.6488 22.8201 77.0238 23.1648C77.3988 23.5057 77.8496 23.6761 78.3761 23.6761Z" fill="black" style="fill:black;fill-opacity:1;"/>
<rect x="120.25" y="11.75" width="29.5" height="15.5" rx="2.75" fill="#4E9970" fill-opacity="0.1" style="fill:#4E9970;fill:color(display-p3 0.3059 0.6000 0.4392);fill-opacity:0.1;"/>
<rect x="120.25" y="11.75" width="29.5" height="15.5" rx="2.75" stroke="#4E9970" style="stroke:#4E9970;stroke:color(display-p3 0.3059 0.6000 0.4392);stroke-opacity:1;" stroke-width="0.5"/>
<path d="M129.167 18.3333V21.6667H125.833M125 17.5L129 21.5" stroke="#4E9970" style="stroke:#4E9970;stroke:color(display-p3 0.3059 0.6000 0.4392);stroke-opacity:1;" stroke-linecap="round" stroke-linejoin="round"/>
<path d="M135.421 16.9091V22H134.651V17.6797H134.621L133.403 18.4751V17.7393L134.673 16.9091H135.421ZM138.491 16.8395C138.718 16.8411 138.942 16.8826 139.162 16.9638C139.383 17.045 139.582 17.1776 139.759 17.3615C139.938 17.5455 140.08 17.794 140.186 18.1072C140.294 18.4188 140.349 18.8066 140.35 19.2706C140.35 19.7164 140.306 20.1133 140.216 20.4613C140.127 20.8076 139.998 21.1001 139.831 21.3388C139.665 21.5774 139.464 21.7589 139.227 21.8832C138.99 22.0075 138.723 22.0696 138.426 22.0696C138.123 22.0696 137.854 22.0099 137.619 21.8906C137.383 21.7713 137.192 21.6064 137.044 21.396C136.897 21.1838 136.805 20.9402 136.768 20.6651H137.527C137.576 20.8839 137.677 21.0612 137.83 21.1971C137.984 21.3313 138.183 21.3984 138.426 21.3984C138.799 21.3984 139.09 21.236 139.299 20.9112C139.508 20.5848 139.613 20.129 139.615 19.544H139.575C139.489 19.6866 139.381 19.8092 139.252 19.9119C139.124 20.0147 138.981 20.0942 138.822 20.1506C138.663 20.2069 138.493 20.2351 138.312 20.2351C138.019 20.2351 137.752 20.163 137.512 20.0188C137.271 19.8746 137.08 19.6766 136.938 19.4247C136.795 19.1728 136.724 18.8853 136.724 18.5621C136.724 18.2406 136.797 17.949 136.942 17.6871C137.09 17.4253 137.295 17.2182 137.559 17.0657C137.824 16.9116 138.135 16.8362 138.491 16.8395ZM138.494 17.4858C138.3 17.4858 138.125 17.5339 137.969 17.63C137.815 17.7244 137.693 17.8529 137.604 18.0153C137.514 18.176 137.469 18.355 137.469 18.5522C137.469 18.7494 137.513 18.9284 137.599 19.0891C137.687 19.2482 137.806 19.375 137.957 19.4695C138.109 19.5623 138.283 19.6087 138.479 19.6087C138.625 19.6087 138.76 19.5805 138.886 19.5241C139.012 19.4678 139.123 19.3899 139.217 19.2905C139.311 19.1894 139.385 19.075 139.438 18.9474C139.491 18.8198 139.518 18.6856 139.518 18.5447C139.518 18.3575 139.473 18.1835 139.384 18.0227C139.296 17.862 139.175 17.7327 139.021 17.6349C138.866 17.5355 138.691 17.4858 138.494 17.4858ZM143.906 21.0455V20.777C143.906 20.5848 143.946 20.4091 144.025 20.25C144.106 20.0893 144.224 19.9608 144.378 19.8647C144.534 19.7669 144.722 19.718 144.942 19.718C145.168 19.718 145.357 19.7661 145.509 19.8622C145.662 19.9583 145.777 20.0868 145.855 20.2475C145.934 20.4083 145.974 20.5848 145.974 20.777V21.0455C145.974 21.2377 145.934 21.4142 145.855 21.5749C145.775 21.734 145.658 21.8625 145.504 21.9602C145.352 22.0563 145.164 22.1044 144.942 22.1044C144.719 22.1044 144.53 22.0563 144.376 21.9602C144.222 21.8625 144.105 21.734 144.025 21.5749C143.946 21.4142 143.906 21.2377 143.906 21.0455ZM144.485 20.777V21.0455C144.485 21.188 144.519 21.3172 144.587 21.4332C144.655 21.5492 144.773 21.6072 144.942 21.6072C145.11 21.6072 145.227 21.5492 145.293 21.4332C145.359 21.3172 145.392 21.188 145.392 21.0455V20.777C145.392 20.6345 145.36 20.5052 145.295 20.3892C145.232 20.2732 145.115 20.2152 144.942 20.2152C144.777 20.2152 144.659 20.2732 144.589 20.3892C144.52 20.5052 144.485 20.6345 144.485 20.777ZM141.345 18.1321V17.8636C141.345 17.6714 141.385 17.4949 141.465 17.3342C141.546 17.1734 141.664 17.045 141.818 16.9489C141.974 16.8527 142.162 16.8047 142.382 16.8047C142.607 16.8047 142.796 16.8527 142.949 16.9489C143.101 17.045 143.216 17.1734 143.294 17.3342C143.372 17.4949 143.411 17.6714 143.411 17.8636V18.1321C143.411 18.3243 143.371 18.5008 143.292 18.6616C143.214 18.8207 143.098 18.9491 142.944 19.0469C142.791 19.143 142.604 19.1911 142.382 19.1911C142.157 19.1911 141.967 19.143 141.813 19.0469C141.66 18.9491 141.544 18.8207 141.465 18.6616C141.385 18.5008 141.345 18.3243 141.345 18.1321ZM141.927 17.8636V18.1321C141.927 18.2746 141.96 18.4039 142.027 18.5199C142.094 18.6359 142.213 18.6939 142.382 18.6939C142.548 18.6939 142.664 18.6359 142.73 18.5199C142.798 18.4039 142.832 18.2746 142.832 18.1321V17.8636C142.832 17.7211 142.8 17.5919 142.735 17.4759C142.67 17.3598 142.553 17.3018 142.382 17.3018C142.216 17.3018 142.099 17.3598 142.029 17.4759C141.961 17.5919 141.927 17.7211 141.927 17.8636ZM141.582 22L145.082 16.9091H145.676L142.176 22H141.582Z" fill="#4E9970" style="fill:#4E9970;fill:color(display-p3 0.3059 0.6000 0.4392);fill-opacity:1;"/>
<path d="M17.017 37.3636C17.017 38.1307 16.8786 38.7936 16.6016 39.3523C16.3246 39.911 15.9446 40.3419 15.4616 40.6449C14.9787 40.9479 14.4271 41.0994 13.8068 41.0994C13.1866 41.0994 12.6349 40.9479 12.152 40.6449C11.669 40.3419 11.2891 39.911 11.0121 39.3523C10.7351 38.7936 10.5966 38.1307 10.5966 37.3636C10.5966 36.5966 10.7351 35.9337 11.0121 35.375C11.2891 34.8163 11.669 34.3854 12.152 34.0824C12.6349 33.7794 13.1866 33.6278 13.8068 33.6278C14.4271 33.6278 14.9787 33.7794 15.4616 34.0824C15.9446 34.3854 16.3246 34.8163 16.6016 35.375C16.8786 35.9337 17.017 36.5966 17.017 37.3636ZM16.1648 37.3636C16.1648 36.7339 16.0594 36.2024 15.8487 35.7692C15.6404 35.3359 15.3575 35.008 15 34.7855C14.6449 34.563 14.2472 34.4517 13.8068 34.4517C13.3665 34.4517 12.9676 34.563 12.6101 34.7855C12.255 35.008 11.9721 35.3359 11.7614 35.7692C11.553 36.2024 11.4489 36.7339 11.4489 37.3636C11.4489 37.9934 11.553 38.5249 11.7614 38.9581C11.9721 39.3913 12.255 39.7192 12.6101 39.9418C12.9676 40.1643 13.3665 40.2756 13.8068 40.2756C14.2472 40.2756 14.6449 40.1643 15 39.9418C15.3575 39.7192 15.6404 39.3913 15.8487 38.9581C16.0594 38.5249 16.1648 37.9934 16.1648 37.3636ZM18.3842 43.0455V35.5455H19.1939V36.4119H19.2933C19.3549 36.3172 19.4401 36.1965 19.549 36.0497C19.6603 35.9006 19.8189 35.768 20.0249 35.652C20.2332 35.5336 20.5149 35.4744 20.87 35.4744C21.3293 35.4744 21.7341 35.5893 22.0845 35.8189C22.4349 36.0485 22.7083 36.3741 22.9048 36.7955C23.1013 37.2169 23.1996 37.714 23.1996 38.2869C23.1996 38.8646 23.1013 39.3653 22.9048 39.7891C22.7083 40.2105 22.4361 40.5372 22.0881 40.7692C21.7401 40.9988 21.3388 41.1136 20.8842 41.1136C20.5339 41.1136 20.2533 41.0556 20.0426 40.9396C19.8319 40.8213 19.6697 40.6875 19.5561 40.5384C19.4425 40.3868 19.3549 40.2614 19.2933 40.1619H19.2223V43.0455H18.3842ZM19.2081 38.2727C19.2081 38.6847 19.2685 39.0481 19.3892 39.3629C19.5099 39.6754 19.6863 39.9205 19.9183 40.098C20.1503 40.2732 20.4344 40.3608 20.7706 40.3608C21.121 40.3608 21.4134 40.2685 21.6477 40.0838C21.8845 39.8968 22.062 39.6458 22.1804 39.331C22.3011 39.0137 22.3615 38.661 22.3615 38.2727C22.3615 37.8892 22.3023 37.5436 22.1839 37.2358C22.0679 36.9257 21.8916 36.6806 21.6548 36.5007C21.4205 36.3184 21.1257 36.2273 20.7706 36.2273C20.4297 36.2273 20.1432 36.3137 19.9112 36.4865C19.6792 36.657 19.504 36.8961 19.3857 37.2038C19.2673 37.5092 19.2081 37.8655 19.2081 38.2727ZM26.7649 41.1136C26.2393 41.1136 25.786 40.9976 25.4048 40.7656C25.026 40.5312 24.7337 40.2045 24.5277 39.7855C24.3241 39.3641 24.2223 38.8741 24.2223 38.3153C24.2223 37.7566 24.3241 37.2642 24.5277 36.8381C24.7337 36.4096 25.0201 36.0758 25.3871 35.8366C25.7564 35.5952 26.1873 35.4744 26.6797 35.4744C26.9638 35.4744 27.2443 35.5218 27.5213 35.6165C27.7983 35.7112 28.0504 35.8651 28.2777 36.0781C28.505 36.2888 28.6861 36.5682 28.821 36.9162C28.956 37.2642 29.0234 37.6927 29.0234 38.2017V38.5568H24.8189V37.8324H28.1712C28.1712 37.5246 28.1096 37.25 27.9865 37.0085C27.8658 36.767 27.6929 36.5765 27.468 36.4368C27.2455 36.2971 26.9827 36.2273 26.6797 36.2273C26.3459 36.2273 26.0571 36.3101 25.8132 36.4759C25.5717 36.6392 25.3859 36.8523 25.2557 37.1151C25.1255 37.3778 25.0604 37.6596 25.0604 37.9602V38.4432C25.0604 38.8551 25.1314 39.2043 25.2734 39.4908C25.4179 39.7749 25.6179 39.9915 25.8736 40.1406C26.1293 40.2874 26.4264 40.3608 26.7649 40.3608C26.9851 40.3608 27.1839 40.33 27.3615 40.2685C27.5414 40.2045 27.6965 40.1098 27.8267 39.9844C27.9569 39.8565 28.0575 39.6979 28.1286 39.5085L28.9382 39.7358C28.853 40.0104 28.7098 40.2519 28.5085 40.4602C28.3073 40.6662 28.0587 40.8272 27.7628 40.9432C27.4669 41.0568 27.1342 41.1136 26.7649 41.1136ZM30.2983 41V35.5455H31.108V36.3693H31.1648C31.2642 36.0994 31.4441 35.8804 31.7045 35.7124C31.965 35.5443 32.2585 35.4602 32.5852 35.4602C32.6468 35.4602 32.7237 35.4614 32.8161 35.4638C32.9084 35.4661 32.9782 35.4697 33.0256 35.4744V36.3267C32.9972 36.3196 32.9321 36.3089 32.8303 36.2947C32.7308 36.2782 32.6255 36.2699 32.5142 36.2699C32.2491 36.2699 32.0123 36.3255 31.804 36.4368C31.598 36.5457 31.4347 36.6972 31.3139 36.8913C31.1955 37.0831 31.1364 37.3021 31.1364 37.5483V41H30.2983ZM35.6241 41.1278C35.2785 41.1278 34.9648 41.0627 34.6831 40.9325C34.4013 40.8 34.1776 40.6094 34.0119 40.3608C33.8462 40.1098 33.7633 39.8068 33.7633 39.4517C33.7633 39.1392 33.8249 38.8859 33.948 38.6918C34.0711 38.4953 34.2356 38.3414 34.4416 38.2301C34.6475 38.1188 34.8748 38.036 35.1234 37.9815C35.3743 37.9247 35.6265 37.8797 35.8798 37.8466C36.2112 37.804 36.4799 37.772 36.6859 37.7507C36.8942 37.727 37.0458 37.688 37.1404 37.6335C37.2375 37.5791 37.286 37.4844 37.286 37.3494V37.321C37.286 36.9706 37.1902 36.6984 36.9984 36.5043C36.809 36.3101 36.5214 36.2131 36.1355 36.2131C35.7354 36.2131 35.4217 36.3007 35.1944 36.4759C34.9672 36.651 34.8074 36.8381 34.715 37.0369L33.9196 36.7528C34.0616 36.4214 34.251 36.1634 34.4877 35.9787C34.7269 35.7917 34.9873 35.6615 35.269 35.5881C35.5531 35.5123 35.8324 35.4744 36.1071 35.4744C36.2823 35.4744 36.4835 35.4957 36.7108 35.5384C36.9404 35.5786 37.1618 35.6626 37.3748 35.7905C37.5903 35.9183 37.769 36.1113 37.911 36.3693C38.0531 36.6274 38.1241 36.973 38.1241 37.4062V41H37.286V40.2614H37.2434C37.1866 40.3797 37.0919 40.5064 36.9593 40.6413C36.8268 40.7763 36.6504 40.8911 36.4302 40.9858C36.21 41.0805 35.9413 41.1278 35.6241 41.1278ZM35.752 40.375C36.0834 40.375 36.3627 40.3099 36.59 40.1797C36.8197 40.0495 36.9925 39.8814 37.1085 39.6754C37.2269 39.4695 37.286 39.2528 37.286 39.0256V38.2585C37.2505 38.3011 37.1724 38.3402 37.0517 38.3757C36.9333 38.4089 36.796 38.4384 36.6397 38.4645C36.4859 38.4882 36.3355 38.5095 36.1887 38.5284C36.0443 38.545 35.9271 38.5592 35.8372 38.571C35.6194 38.5994 35.4158 38.6456 35.2264 38.7095C35.0394 38.7711 34.8878 38.8646 34.7718 38.9901C34.6582 39.1132 34.6014 39.2812 34.6014 39.4943C34.6014 39.7855 34.7091 40.0057 34.9245 40.1548C35.1423 40.3016 35.4181 40.375 35.752 40.375ZM42.0259 35.5455V36.2557H39.1992V35.5455H42.0259ZM40.0231 34.2386H40.8612V39.4375C40.8612 39.6742 40.8955 39.8518 40.9641 39.9702C41.0352 40.0862 41.1251 40.1643 41.234 40.2045C41.3453 40.2424 41.4625 40.2614 41.5856 40.2614C41.6779 40.2614 41.7537 40.2566 41.8129 40.2472C41.872 40.2353 41.9194 40.2259 41.9549 40.2188L42.1254 40.9716C42.0685 40.9929 41.9892 41.0142 41.8874 41.0355C41.7856 41.0592 41.6566 41.071 41.5004 41.071C41.2636 41.071 41.0316 41.0201 40.8043 40.9183C40.5794 40.8165 40.3924 40.6615 40.2433 40.4531C40.0965 40.2448 40.0231 39.982 40.0231 39.6648V34.2386ZM43.2866 41V35.5455H44.1246V41H43.2866ZM43.7127 34.6364C43.5494 34.6364 43.4085 34.5807 43.2901 34.4695C43.1741 34.3582 43.1161 34.2244 43.1161 34.0682C43.1161 33.9119 43.1741 33.7782 43.2901 33.6669C43.4085 33.5556 43.5494 33.5 43.7127 33.5C43.8761 33.5 44.0157 33.5556 44.1317 33.6669C44.2501 33.7782 44.3093 33.9119 44.3093 34.0682C44.3093 34.2244 44.2501 34.3582 44.1317 34.4695C44.0157 34.5807 43.8761 34.6364 43.7127 34.6364ZM47.8755 41.1136C47.3831 41.1136 46.9511 40.9964 46.5794 40.7621C46.21 40.5277 45.9212 40.1998 45.7129 39.7784C45.5069 39.357 45.4039 38.8646 45.4039 38.3011C45.4039 37.733 45.5069 37.237 45.7129 36.8132C45.9212 36.3894 46.21 36.0604 46.5794 35.826C46.9511 35.5916 47.3831 35.4744 47.8755 35.4744C48.368 35.4744 48.7988 35.5916 49.1681 35.826C49.5398 36.0604 49.8287 36.3894 50.0346 36.8132C50.243 37.237 50.3471 37.733 50.3471 38.3011C50.3471 38.8646 50.243 39.357 50.0346 39.7784C49.8287 40.1998 49.5398 40.5277 49.1681 40.7621C48.7988 40.9964 48.368 41.1136 47.8755 41.1136ZM47.8755 40.3608C48.2496 40.3608 48.5574 40.2649 48.7988 40.0732C49.0403 39.8814 49.219 39.6293 49.335 39.3168C49.4511 39.0043 49.5091 38.6657 49.5091 38.3011C49.5091 37.9366 49.4511 37.5968 49.335 37.282C49.219 36.9671 49.0403 36.7126 48.7988 36.5185C48.5574 36.3243 48.2496 36.2273 47.8755 36.2273C47.5015 36.2273 47.1937 36.3243 46.9522 36.5185C46.7108 36.7126 46.532 36.9671 46.416 37.282C46.3 37.5968 46.242 37.9366 46.242 38.3011C46.242 38.6657 46.3 39.0043 46.416 39.3168C46.532 39.6293 46.7108 39.8814 46.9522 40.0732C47.1937 40.2649 47.5015 40.3608 47.8755 40.3608ZM52.4645 37.7188V41H51.6264V35.5455H52.4361V36.3977H52.5071C52.6349 36.1207 52.8291 35.8982 53.0895 35.7301C53.3499 35.5597 53.6861 35.4744 54.098 35.4744C54.4673 35.4744 54.7905 35.5502 55.0675 35.7017C55.3445 35.8509 55.5599 36.0781 55.7138 36.3835C55.8677 36.6866 55.9446 37.0701 55.9446 37.5341V41H55.1065V37.5909C55.1065 37.1624 54.9953 36.8286 54.7727 36.5895C54.5502 36.348 54.2448 36.2273 53.8565 36.2273C53.589 36.2273 53.3499 36.2853 53.1392 36.4013C52.9309 36.5173 52.7663 36.6866 52.6456 36.9091C52.5249 37.1316 52.4645 37.4015 52.4645 37.7188ZM59.0811 41.1278C58.7355 41.1278 58.4218 41.0627 58.1401 40.9325C57.8584 40.8 57.6346 40.6094 57.4689 40.3608C57.3032 40.1098 57.2203 39.8068 57.2203 39.4517C57.2203 39.1392 57.2819 38.8859 57.405 38.6918C57.5281 38.4953 57.6926 38.3414 57.8986 38.2301C58.1046 38.1188 58.3319 38.036 58.5804 37.9815C58.8314 37.9247 59.0835 37.8797 59.3368 37.8466C59.6683 37.804 59.937 37.772 60.1429 37.7507C60.3513 37.727 60.5028 37.688 60.5975 37.6335C60.6945 37.5791 60.7431 37.4844 60.7431 37.3494V37.321C60.7431 36.9706 60.6472 36.6984 60.4554 36.5043C60.266 36.3101 59.9784 36.2131 59.5925 36.2131C59.1924 36.2131 58.8787 36.3007 58.6515 36.4759C58.4242 36.651 58.2644 36.8381 58.1721 37.0369L57.3766 36.7528C57.5186 36.4214 57.708 36.1634 57.9448 35.9787C58.1839 35.7917 58.4443 35.6615 58.726 35.5881C59.0101 35.5123 59.2895 35.4744 59.5641 35.4744C59.7393 35.4744 59.9405 35.4957 60.1678 35.5384C60.3974 35.5786 60.6188 35.6626 60.8319 35.7905C61.0473 35.9183 61.226 36.1113 61.3681 36.3693C61.5101 36.6274 61.5811 36.973 61.5811 37.4062V41H60.7431V40.2614H60.7005C60.6436 40.3797 60.5489 40.5064 60.4164 40.6413C60.2838 40.7763 60.1074 40.8911 59.8873 40.9858C59.6671 41.0805 59.3984 41.1278 59.0811 41.1278ZM59.209 40.375C59.5404 40.375 59.8198 40.3099 60.0471 40.1797C60.2767 40.0495 60.4495 39.8814 60.5655 39.6754C60.6839 39.4695 60.7431 39.2528 60.7431 39.0256V38.2585C60.7076 38.3011 60.6294 38.3402 60.5087 38.3757C60.3903 38.4089 60.253 38.4384 60.0968 38.4645C59.9429 38.4882 59.7926 38.5095 59.6458 38.5284C59.5014 38.545 59.3842 38.5592 59.2942 38.571C59.0764 38.5994 58.8728 38.6456 58.6834 38.7095C58.4964 38.7711 58.3449 38.8646 58.2289 38.9901C58.1152 39.1132 58.0584 39.2812 58.0584 39.4943C58.0584 39.7855 58.1661 40.0057 58.3816 40.1548C58.5994 40.3016 58.8752 40.375 59.209 40.375ZM63.9489 33.7273V41H63.1108V33.7273H63.9489ZM68.41 41V33.7273H72.7992V34.5085H69.2907V36.9659H72.5719V37.7472H69.2907V40.2188H72.856V41H68.41ZM74.8979 35.5455L76.2047 37.7756L77.5115 35.5455H78.4775L76.7161 38.2727L78.4775 41H77.5115L76.2047 38.8835L74.8979 41H73.932L75.665 38.2727L73.932 35.5455H74.8979ZM79.6733 43.0455V35.5455H80.483V36.4119H80.5824C80.6439 36.3172 80.7292 36.1965 80.8381 36.0497C80.9493 35.9006 81.108 35.768 81.3139 35.652C81.5223 35.5336 81.804 35.4744 82.1591 35.4744C82.6184 35.4744 83.0232 35.5893 83.3736 35.8189C83.724 36.0485 83.9974 36.3741 84.1939 36.7955C84.3904 37.2169 84.4886 37.714 84.4886 38.2869C84.4886 38.8646 84.3904 39.3653 84.1939 39.7891C83.9974 40.2105 83.7251 40.5372 83.3771 40.7692C83.0291 40.9988 82.6278 41.1136 82.1733 41.1136C81.8229 41.1136 81.5424 41.0556 81.3317 40.9396C81.121 40.8213 80.9588 40.6875 80.8452 40.5384C80.7315 40.3868 80.6439 40.2614 80.5824 40.1619H80.5114V43.0455H79.6733ZM80.4972 38.2727C80.4972 38.6847 80.5575 39.0481 80.6783 39.3629C80.799 39.6754 80.9754 39.9205 81.2074 40.098C81.4394 40.2732 81.7235 40.3608 82.0597 40.3608C82.41 40.3608 82.7024 40.2685 82.9368 40.0838C83.1735 39.8968 83.3511 39.6458 83.4695 39.331C83.5902 39.0137 83.6506 38.661 83.6506 38.2727C83.6506 37.8892 83.5914 37.5436 83.473 37.2358C83.357 36.9257 83.1806 36.6806 82.9439 36.5007C82.7095 36.3184 82.4148 36.2273 82.0597 36.2273C81.7188 36.2273 81.4323 36.3137 81.2003 36.4865C80.9683 36.657 80.7931 36.8961 80.6747 37.2038C80.5563 37.5092 80.4972 37.8655 80.4972 38.2727ZM88.054 41.1136C87.5284 41.1136 87.075 40.9976 86.6939 40.7656C86.3151 40.5312 86.0227 40.2045 85.8168 39.7855C85.6132 39.3641 85.5114 38.8741 85.5114 38.3153C85.5114 37.7566 85.6132 37.2642 85.8168 36.8381C86.0227 36.4096 86.3092 36.0758 86.6761 35.8366C87.0455 35.5952 87.4763 35.4744 87.9688 35.4744C88.2528 35.4744 88.5334 35.5218 88.8104 35.6165C89.0874 35.7112 89.3395 35.8651 89.5668 36.0781C89.794 36.2888 89.9751 36.5682 90.1101 36.9162C90.245 37.2642 90.3125 37.6927 90.3125 38.2017V38.5568H86.108V37.8324H89.4602C89.4602 37.5246 89.3987 37.25 89.2756 37.0085C89.1548 36.767 88.982 36.5765 88.7571 36.4368C88.5346 36.2971 88.2718 36.2273 87.9688 36.2273C87.6349 36.2273 87.3461 36.3101 87.1023 36.4759C86.8608 36.6392 86.675 36.8523 86.5447 37.1151C86.4145 37.3778 86.3494 37.6596 86.3494 37.9602V38.4432C86.3494 38.8551 86.4205 39.2043 86.5625 39.4908C86.7069 39.7749 86.907 39.9915 87.1626 40.1406C87.4183 40.2874 87.7154 40.3608 88.054 40.3608C88.2741 40.3608 88.473 40.33 88.6506 40.2685C88.8305 40.2045 88.9856 40.1098 89.1158 39.9844C89.246 39.8565 89.3466 39.6979 89.4176 39.5085L90.2273 39.7358C90.142 40.0104 89.9988 40.2519 89.7976 40.4602C89.5964 40.6662 89.3478 40.8272 89.0518 40.9432C88.7559 41.0568 88.4233 41.1136 88.054 41.1136ZM92.4254 37.7188V41H91.5874V35.5455H92.397V36.3977H92.468C92.5959 36.1207 92.79 35.8982 93.0504 35.7301C93.3108 35.5597 93.647 35.4744 94.0589 35.4744C94.4283 35.4744 94.7514 35.5502 95.0284 35.7017C95.3054 35.8509 95.5208 36.0781 95.6747 36.3835C95.8286 36.6866 95.9055 37.0701 95.9055 37.5341V41H95.0675V37.5909C95.0675 37.1624 94.9562 36.8286 94.7337 36.5895C94.5111 36.348 94.2057 36.2273 93.8175 36.2273C93.55 36.2273 93.3108 36.2853 93.1001 36.4013C92.8918 36.5173 92.7273 36.6866 92.6065 36.9091C92.4858 37.1316 92.4254 37.4015 92.4254 37.7188ZM101.301 36.767L100.548 36.9801C100.5 36.8546 100.431 36.7327 100.338 36.6143C100.248 36.4936 100.125 36.3942 99.9689 36.3161C99.8127 36.2379 99.6126 36.1989 99.3688 36.1989C99.035 36.1989 98.7568 36.2758 98.5343 36.4297C98.3141 36.5812 98.204 36.7741 98.204 37.0085C98.204 37.2169 98.2798 37.3814 98.4313 37.5021C98.5828 37.6229 98.8195 37.7235 99.1415 37.804L99.9512 38.0028C100.439 38.1212 100.802 38.3023 101.041 38.5462C101.28 38.7876 101.4 39.099 101.4 39.4801C101.4 39.7926 101.31 40.072 101.13 40.3182C100.953 40.5644 100.704 40.7585 100.384 40.9006C100.065 41.0426 99.6931 41.1136 99.2694 41.1136C98.713 41.1136 98.2525 40.9929 97.888 40.7514C97.5234 40.5099 97.2926 40.1572 97.1955 39.6932L97.9909 39.4943C98.0667 39.7879 98.2099 40.008 98.4206 40.1548C98.6337 40.3016 98.9119 40.375 99.2551 40.375C99.6458 40.375 99.9559 40.2921 100.186 40.1264C100.418 39.9583 100.534 39.7571 100.534 39.5227C100.534 39.3333 100.467 39.1747 100.335 39.0469C100.202 38.9167 99.9985 38.8196 99.7239 38.7557L98.8148 38.5426C98.3153 38.4242 97.9483 38.2408 97.714 37.9922C97.4819 37.7412 97.3659 37.4276 97.3659 37.0511C97.3659 36.7434 97.4524 36.4711 97.6252 36.2344C97.8004 35.9976 98.0383 35.8118 98.339 35.6768C98.642 35.5419 98.9853 35.4744 99.3688 35.4744C99.9086 35.4744 100.332 35.5928 100.64 35.8295C100.95 36.0663 101.17 36.3788 101.301 36.767ZM104.949 41.1136C104.423 41.1136 103.97 40.9976 103.588 40.7656C103.21 40.5312 102.917 40.2045 102.711 39.7855C102.508 39.3641 102.406 38.8741 102.406 38.3153C102.406 37.7566 102.508 37.2642 102.711 36.8381C102.917 36.4096 103.204 36.0758 103.571 35.8366C103.94 35.5952 104.371 35.4744 104.863 35.4744C105.147 35.4744 105.428 35.5218 105.705 35.6165C105.982 35.7112 106.234 35.8651 106.461 36.0781C106.689 36.2888 106.87 36.5682 107.005 36.9162C107.14 37.2642 107.207 37.6927 107.207 38.2017V38.5568H103.002V37.8324H106.355C106.355 37.5246 106.293 37.25 106.17 37.0085C106.049 36.767 105.877 36.5765 105.652 36.4368C105.429 36.2971 105.166 36.2273 104.863 36.2273C104.529 36.2273 104.241 36.3101 103.997 36.4759C103.755 36.6392 103.569 36.8523 103.439 37.1151C103.309 37.3778 103.244 37.6596 103.244 37.9602V38.4432C103.244 38.8551 103.315 39.2043 103.457 39.4908C103.601 39.7749 103.801 39.9915 104.057 40.1406C104.313 40.2874 104.61 40.3608 104.949 40.3608C105.169 40.3608 105.368 40.33 105.545 40.2685C105.725 40.2045 105.88 40.1098 106.01 39.9844C106.141 39.8565 106.241 39.6979 106.312 39.5085L107.122 39.7358C107.037 40.0104 106.893 40.2519 106.692 40.4602C106.491 40.6662 106.242 40.8272 105.946 40.9432C105.65 41.0568 105.318 41.1136 104.949 41.1136Z" fill="black" fill-opacity="0.5" style="fill:black;fill-opacity:0.5;"/>
</svg>
