<svg width="193" height="179" viewBox="0 0 193 179" fill="none" xmlns="http://www.w3.org/2000/svg">
<rect width="193" height="179" rx="4" fill="white" fill-opacity="0.8" style="fill:white;fill-opacity:0.8;"/>
<path d="M16.8395 15.0923H15.7315C15.6889 14.8556 15.6096 14.6473 15.4936 14.4673C15.3776 14.2874 15.2356 14.1347 15.0675 14.0092C14.8994 13.8838 14.7112 13.7891 14.5028 13.7251C14.2969 13.6612 14.0779 13.6293 13.8459 13.6293C13.4268 13.6293 13.0516 13.7346 12.7202 13.9453C12.3911 14.156 12.1307 14.465 11.9389 14.8722C11.7495 15.2794 11.6548 15.7765 11.6548 16.3636C11.6548 16.9555 11.7495 17.455 11.9389 17.8622C12.1307 18.2694 12.3923 18.5772 12.7237 18.7855C13.0552 18.9938 13.428 19.098 13.8423 19.098C14.072 19.098 14.2898 19.0672 14.4957 19.0057C14.7041 18.9418 14.8923 18.8482 15.0604 18.7251C15.2285 18.602 15.3705 18.4517 15.4865 18.2741C15.6049 18.0942 15.6866 17.8883 15.7315 17.6562L16.8395 17.6598C16.7803 18.0173 16.6655 18.3464 16.495 18.647C16.3269 18.9453 16.1103 19.2034 15.8452 19.4212C15.5824 19.6366 15.2817 19.8035 14.9432 19.9219C14.6046 20.0402 14.2353 20.0994 13.8352 20.0994C13.2055 20.0994 12.6444 19.9503 12.152 19.652C11.6596 19.3513 11.2713 18.9216 10.9872 18.3629C10.7055 17.8042 10.5646 17.1378 10.5646 16.3636C10.5646 15.5871 10.7067 14.9207 10.9908 14.3643C11.2749 13.8056 11.6631 13.3771 12.1555 13.0788C12.648 12.7782 13.2079 12.6278 13.8352 12.6278C14.2211 12.6278 14.581 12.6835 14.9148 12.7947C15.2509 12.9036 15.5528 13.0646 15.8203 13.2777C16.0878 13.4884 16.3092 13.7464 16.4844 14.0518C16.6596 14.3549 16.7779 14.7017 16.8395 15.0923ZM18.9291 16.7614V20H17.8673V12.7273H18.9149V15.4332H18.9824C19.1102 15.1397 19.3055 14.9065 19.5683 14.7337C19.8311 14.5608 20.1743 14.4744 20.5981 14.4744C20.9722 14.4744 21.2989 14.5514 21.5782 14.7053C21.86 14.8591 22.0778 15.0888 22.2316 15.3942C22.3879 15.6972 22.466 16.076 22.466 16.5305V20H21.4042V16.6584C21.4042 16.2583 21.3012 15.9482 21.0953 15.728C20.8893 15.5054 20.6029 15.3942 20.2359 15.3942C19.985 15.3942 19.76 15.4474 19.5612 15.554C19.3647 15.6605 19.2096 15.8168 19.096 16.0227C18.9847 16.2263 18.9291 16.4725 18.9291 16.7614ZM26.0338 20.1101C25.4964 20.1101 25.0335 19.9953 24.6453 19.7656C24.2594 19.5336 23.9611 19.2081 23.7504 18.7891C23.5421 18.3677 23.4379 17.8741 23.4379 17.3082C23.4379 16.7495 23.5421 16.2571 23.7504 15.831C23.9611 15.4048 24.2547 15.0722 24.6311 14.8331C25.0099 14.594 25.4526 14.4744 25.9592 14.4744C26.267 14.4744 26.5653 14.5253 26.8541 14.6271C27.1429 14.7289 27.4021 14.8887 27.6318 15.1065C27.8614 15.3243 28.0425 15.6072 28.1751 15.9553C28.3077 16.3009 28.374 16.7211 28.374 17.2159V17.5923H24.038V16.7969H27.3335C27.3335 16.5175 27.2767 16.2701 27.163 16.0547C27.0494 15.8369 26.8896 15.6652 26.6836 15.5398C26.48 15.4143 26.2409 15.3516 25.9663 15.3516C25.668 15.3516 25.4076 15.425 25.1851 15.5717C24.9649 15.7161 24.7944 15.9055 24.6737 16.1399C24.5553 16.3719 24.4961 16.6241 24.4961 16.8963V17.5178C24.4961 17.8823 24.5601 18.1925 24.6879 18.4482C24.8181 18.7038 24.9992 18.8991 25.2312 19.0341C25.4632 19.1667 25.7343 19.233 26.0444 19.233C26.2457 19.233 26.4291 19.2045 26.5949 19.1477C26.7606 19.0885 26.9038 19.0009 27.0245 18.8849C27.1453 18.7689 27.2376 18.6257 27.3015 18.4553L28.3065 18.6364C28.226 18.9323 28.0816 19.1915 27.8733 19.4141C27.6673 19.6342 27.4081 19.8059 27.0956 19.929C26.7854 20.0497 26.4315 20.1101 26.0338 20.1101ZM31.6496 20.1101C31.1217 20.1101 30.6672 19.9905 30.286 19.7514C29.9072 19.5099 29.616 19.1773 29.4124 18.7536C29.2088 18.3298 29.107 17.8445 29.107 17.2976C29.107 16.7436 29.2112 16.2547 29.4195 15.831C29.6279 15.4048 29.9214 15.0722 30.3002 14.8331C30.679 14.594 31.1253 14.4744 31.639 14.4744C32.0533 14.4744 32.4226 14.5514 32.7469 14.7053C33.0713 14.8568 33.3329 15.0698 33.5317 15.3445C33.733 15.6191 33.8525 15.9399 33.8904 16.3068H32.857C32.8002 16.0511 32.67 15.831 32.4664 15.6463C32.2652 15.4616 31.9953 15.3693 31.6567 15.3693C31.3608 15.3693 31.1016 15.4474 30.879 15.6037C30.6589 15.7576 30.4872 15.9777 30.3641 16.2642C30.241 16.5483 30.1795 16.8845 30.1795 17.2727C30.1795 17.6705 30.2398 18.0137 30.3606 18.3026C30.4813 18.5914 30.6518 18.8151 30.8719 18.9737C31.0945 19.1323 31.3561 19.2116 31.6567 19.2116C31.858 19.2116 32.0403 19.175 32.2036 19.1016C32.3693 19.0258 32.5078 18.9181 32.6191 18.7784C32.7327 18.6387 32.812 18.4706 32.857 18.2741H33.8904C33.8525 18.6269 33.7377 18.9418 33.546 19.2188C33.3542 19.4957 33.0973 19.7135 32.7754 19.8722C32.4558 20.0308 32.0805 20.1101 31.6496 20.1101ZM35.8025 18.1499L35.7953 16.8537H35.98L38.1533 14.5455H39.4246L36.9459 17.1733H36.779L35.8025 18.1499ZM34.8259 20V12.7273H35.8877V20H34.8259ZM38.2705 20L36.3174 17.4077L37.0489 16.6655L39.5738 20H38.2705ZM45.0784 20H42.724V12.7273H45.153C45.8656 12.7273 46.4776 12.8729 46.9889 13.1641C47.5003 13.4529 47.8921 13.8684 48.1643 14.4105C48.439 14.9503 48.5763 15.5978 48.5763 16.353C48.5763 17.1106 48.4378 17.7616 48.1608 18.3061C47.8862 18.8506 47.4884 19.2696 46.9676 19.5632C46.4468 19.8544 45.817 20 45.0784 20ZM43.8213 19.0412H45.018C45.572 19.0412 46.0325 18.937 46.3994 18.7287C46.7664 18.518 47.041 18.2138 47.2233 17.8161C47.4056 17.416 47.4967 16.9283 47.4967 16.353C47.4967 15.7824 47.4056 15.2983 47.2233 14.9006C47.0434 14.5028 46.7747 14.201 46.4172 13.995C46.0597 13.7891 45.6158 13.6861 45.0855 13.6861H43.8213V19.0412ZM52.0064 20.1101C51.469 20.1101 51.0062 19.9953 50.6179 19.7656C50.232 19.5336 49.9337 19.2081 49.723 18.7891C49.5147 18.3677 49.4105 17.8741 49.4105 17.3082C49.4105 16.7495 49.5147 16.2571 49.723 15.831C49.9337 15.4048 50.2273 15.0722 50.6037 14.8331C50.9825 14.594 51.4252 14.4744 51.9319 14.4744C52.2396 14.4744 52.5379 14.5253 52.8267 14.6271C53.1156 14.7289 53.3748 14.8887 53.6044 15.1065C53.8341 15.3243 54.0152 15.6072 54.1478 15.9553C54.2803 16.3009 54.3466 16.7211 54.3466 17.2159V17.5923H50.0107V16.7969H53.3061C53.3061 16.5175 53.2493 16.2701 53.1357 16.0547C53.0221 15.8369 52.8622 15.6652 52.6563 15.5398C52.4527 15.4143 52.2136 15.3516 51.939 15.3516C51.6407 15.3516 51.3802 15.425 51.1577 15.5717C50.9375 15.7161 50.7671 15.9055 50.6463 16.1399C50.528 16.3719 50.4688 16.6241 50.4688 16.8963V17.5178C50.4688 17.8823 50.5327 18.1925 50.6605 18.4482C50.7908 18.7038 50.9719 18.8991 51.2039 19.0341C51.4359 19.1667 51.7069 19.233 52.0171 19.233C52.2183 19.233 52.4018 19.2045 52.5675 19.1477C52.7332 19.0885 52.8765 19.0009 52.9972 18.8849C53.1179 18.7689 53.2103 18.6257 53.2742 18.4553L54.2792 18.6364C54.1987 18.9323 54.0542 19.1915 53.8459 19.4141C53.6399 19.6342 53.3807 19.8059 53.0682 19.929C52.7581 20.0497 52.4042 20.1101 52.0064 20.1101ZM56.3865 12.7273V20H55.3247V12.7273H56.3865ZM57.615 20V14.5455H58.6767V20H57.615ZM58.1512 13.7038C57.9665 13.7038 57.8079 13.6423 57.6753 13.5192C57.5451 13.3937 57.48 13.2446 57.48 13.0717C57.48 12.8965 57.5451 12.7474 57.6753 12.6243C57.8079 12.4988 57.9665 12.4361 58.1512 12.4361C58.3358 12.4361 58.4933 12.4988 58.6235 12.6243C58.756 12.7474 58.8223 12.8965 58.8223 13.0717C58.8223 13.2446 58.756 13.3937 58.6235 13.5192C58.4933 13.6423 58.3358 13.7038 58.1512 13.7038ZM64.5714 14.5455L62.5934 20H61.457L59.4755 14.5455H60.6154L61.9968 18.7429H62.0536L63.4315 14.5455H64.5714ZM67.5346 20.1101C66.9971 20.1101 66.5343 19.9953 66.1461 19.7656C65.7602 19.5336 65.4619 19.2081 65.2512 18.7891C65.0428 18.3677 64.9387 17.8741 64.9387 17.3082C64.9387 16.7495 65.0428 16.2571 65.2512 15.831C65.4619 15.4048 65.7554 15.0722 66.1319 14.8331C66.5106 14.594 66.9533 14.4744 67.46 14.4744C67.7677 14.4744 68.066 14.5253 68.3549 14.6271C68.6437 14.7289 68.9029 14.8887 69.1326 15.1065C69.3622 15.3243 69.5433 15.6072 69.6759 15.9553C69.8085 16.3009 69.8748 16.7211 69.8748 17.2159V17.5923H65.5388V16.7969H68.8343C68.8343 16.5175 68.7774 16.2701 68.6638 16.0547C68.5502 15.8369 68.3904 15.6652 68.1844 15.5398C67.9808 15.4143 67.7417 15.3516 67.4671 15.3516C67.1688 15.3516 66.9084 15.425 66.6858 15.5717C66.4657 15.7161 66.2952 15.9055 66.1745 16.1399C66.0561 16.3719 65.9969 16.6241 65.9969 16.8963V17.5178C65.9969 17.8823 66.0608 18.1925 66.1887 18.4482C66.3189 18.7038 66.5 18.8991 66.732 19.0341C66.964 19.1667 67.2351 19.233 67.5452 19.233C67.7464 19.233 67.9299 19.2045 68.0956 19.1477C68.2614 19.0885 68.4046 19.0009 68.5253 18.8849C68.6461 18.7689 68.7384 18.6257 68.8023 18.4553L69.8073 18.6364C69.7268 18.9323 69.5824 19.1915 69.374 19.4141C69.1681 19.6342 68.9088 19.8059 68.5963 19.929C68.2862 20.0497 67.9323 20.1101 67.5346 20.1101ZM70.8528 20V14.5455H71.8791V15.4119H71.9359C72.0354 15.1184 72.2106 14.8875 72.4615 14.7195C72.7148 14.549 73.0013 14.4638 73.3209 14.4638C73.3872 14.4638 73.4653 14.4661 73.5553 14.4709C73.6476 14.4756 73.7198 14.4815 73.7719 14.4886V15.5043C73.7293 15.4924 73.6535 15.4794 73.5446 15.4652C73.4357 15.4486 73.3268 15.4403 73.2179 15.4403C72.9669 15.4403 72.7432 15.4936 72.5467 15.6001C72.3526 15.7043 72.1987 15.8499 72.0851 16.0369C71.9714 16.2216 71.9146 16.4323 71.9146 16.669V20H70.8528ZM75.3279 22.0455C75.1693 22.0455 75.0249 22.0324 74.8947 22.0064C74.7645 21.9827 74.6674 21.9567 74.6035 21.9283L74.8592 21.0582C75.0533 21.1103 75.2261 21.1328 75.3776 21.1257C75.5291 21.1186 75.6629 21.0618 75.7789 20.9553C75.8973 20.8487 76.0014 20.6747 76.0914 20.4332L76.2228 20.071L74.2271 14.5455H75.3634L76.7448 18.7784H76.8016L78.183 14.5455H79.3229L77.0751 20.728C76.9709 21.0121 76.8383 21.2524 76.6773 21.4489C76.5164 21.6477 76.3246 21.7969 76.1021 21.8963C75.8795 21.9957 75.6215 22.0455 75.3279 22.0455ZM82.6525 12.7273H83.9842L86.2995 18.3807H86.3848L88.7001 12.7273H90.0318V20H88.9877V14.7372H88.9203L86.7754 19.9893H85.9089L83.764 14.7337H83.6966V20H82.6525V12.7273ZM92.9293 20.1207C92.5836 20.1207 92.2711 20.0568 91.9918 19.929C91.7124 19.7988 91.4911 19.6106 91.3277 19.3643C91.1667 19.1181 91.0862 18.8163 91.0862 18.4588C91.0862 18.151 91.1454 17.8977 91.2638 17.6989C91.3822 17.5 91.542 17.3426 91.7432 17.2266C91.9444 17.1106 92.1693 17.023 92.4179 16.9638C92.6665 16.9046 92.9198 16.8596 93.1778 16.8288C93.5045 16.791 93.7697 16.7602 93.9733 16.7365C94.1769 16.7105 94.3249 16.669 94.4172 16.6122C94.5095 16.5554 94.5557 16.4631 94.5557 16.3352V16.3104C94.5557 16.0002 94.4681 15.7599 94.2929 15.5895C94.1201 15.419 93.862 15.3338 93.5188 15.3338C93.1613 15.3338 92.8795 15.4131 92.6736 15.5717C92.47 15.728 92.3291 15.902 92.251 16.0938L91.2531 15.8665C91.3715 15.535 91.5443 15.2675 91.7716 15.0639C92.0012 14.858 92.2652 14.7088 92.5635 14.6165C92.8618 14.5218 93.1755 14.4744 93.5045 14.4744C93.7224 14.4744 93.9532 14.5005 94.197 14.5526C94.4432 14.6023 94.6729 14.6946 94.8859 14.8295C95.1014 14.9645 95.2777 15.1574 95.4151 15.4084C95.5524 15.657 95.621 15.9801 95.621 16.3778V20H94.5841V19.2543H94.5415C94.4728 19.3916 94.3698 19.5265 94.2325 19.6591C94.0952 19.7917 93.9188 19.9018 93.7034 19.9893C93.488 20.0769 93.2299 20.1207 92.9293 20.1207ZM93.1601 19.2685C93.4536 19.2685 93.7046 19.2105 93.9129 19.0945C94.1236 18.9785 94.2834 18.8269 94.3923 18.6399C94.5036 18.4505 94.5592 18.2481 94.5592 18.0327V17.3295C94.5214 17.3674 94.448 17.4029 94.3391 17.4361C94.2325 17.4669 94.1106 17.4941 93.9733 17.5178C93.836 17.5391 93.7022 17.5592 93.572 17.5781C93.4418 17.5947 93.3329 17.6089 93.2453 17.6207C93.0393 17.6468 92.8511 17.6906 92.6807 17.7521C92.5126 17.8137 92.3777 17.9025 92.2759 18.0185C92.1764 18.1321 92.1267 18.2836 92.1267 18.473C92.1267 18.7358 92.2238 18.9347 92.4179 19.0696C92.612 19.2022 92.8594 19.2685 93.1601 19.2685ZM97.8971 16.7614V20H96.8353V14.5455H97.8544V15.4332H97.9219C98.0474 15.1444 98.2439 14.9124 98.5114 14.7372C98.7813 14.562 99.121 14.4744 99.5306 14.4744C99.9023 14.4744 100.228 14.5526 100.507 14.7088C100.786 14.8627 101.003 15.0923 101.157 15.3977C101.311 15.7031 101.388 16.0807 101.388 16.5305V20H100.326V16.6584C100.326 16.263 100.223 15.9541 100.017 15.7315C99.8111 15.5066 99.5282 15.3942 99.1684 15.3942C98.9221 15.3942 98.7032 15.4474 98.5114 15.554C98.322 15.6605 98.1717 15.8168 98.0604 16.0227C97.9515 16.2263 97.8971 16.4725 97.8971 16.7614ZM104.199 20.1207C103.854 20.1207 103.541 20.0568 103.262 19.929C102.982 19.7988 102.761 19.6106 102.598 19.3643C102.437 19.1181 102.356 18.8163 102.356 18.4588C102.356 18.151 102.415 17.8977 102.534 17.6989C102.652 17.5 102.812 17.3426 103.013 17.2266C103.214 17.1106 103.439 17.023 103.688 16.9638C103.936 16.9046 104.19 16.8596 104.448 16.8288C104.774 16.791 105.04 16.7602 105.243 16.7365C105.447 16.7105 105.595 16.669 105.687 16.6122C105.779 16.5554 105.826 16.4631 105.826 16.3352V16.3104C105.826 16.0002 105.738 15.7599 105.563 15.5895C105.39 15.419 105.132 15.3338 104.789 15.3338C104.431 15.3338 104.149 15.4131 103.944 15.5717C103.74 15.728 103.599 15.902 103.521 16.0938L102.523 15.8665C102.641 15.535 102.814 15.2675 103.042 15.0639C103.271 14.858 103.535 14.7088 103.833 14.6165C104.132 14.5218 104.445 14.4744 104.774 14.4744C104.992 14.4744 105.223 14.5005 105.467 14.5526C105.713 14.6023 105.943 14.6946 106.156 14.8295C106.371 14.9645 106.548 15.1574 106.685 15.4084C106.822 15.657 106.891 15.9801 106.891 16.3778V20H105.854V19.2543H105.811C105.743 19.3916 105.64 19.5265 105.502 19.6591C105.365 19.7917 105.189 19.9018 104.973 19.9893C104.758 20.0769 104.5 20.1207 104.199 20.1207ZM104.43 19.2685C104.724 19.2685 104.975 19.2105 105.183 19.0945C105.394 18.9785 105.553 18.8269 105.662 18.6399C105.774 18.4505 105.829 18.2481 105.829 18.0327V17.3295C105.791 17.3674 105.718 17.4029 105.609 17.4361C105.502 17.4669 105.381 17.4941 105.243 17.5178C105.106 17.5391 104.972 17.5592 104.842 17.5781C104.712 17.5947 104.603 17.6089 104.515 17.6207C104.309 17.6468 104.121 17.6906 103.951 17.7521C103.783 17.8137 103.648 17.9025 103.546 18.0185C103.446 18.1321 103.397 18.2836 103.397 18.473C103.397 18.7358 103.494 18.9347 103.688 19.0696C103.882 19.2022 104.129 19.2685 104.43 19.2685ZM110.392 22.1591C109.959 22.1591 109.586 22.1023 109.274 21.9886C108.963 21.875 108.71 21.7247 108.514 21.5376C108.317 21.3506 108.17 21.1458 108.073 20.9233L108.986 20.5469C109.05 20.651 109.135 20.7611 109.242 20.8771C109.35 20.9955 109.497 21.0961 109.682 21.179C109.869 21.2618 110.109 21.3033 110.403 21.3033C110.805 21.3033 111.138 21.205 111.401 21.0085C111.663 20.8144 111.795 20.5043 111.795 20.0781V19.0057H111.727C111.663 19.1217 111.571 19.2507 111.45 19.3928C111.332 19.5348 111.169 19.6579 110.96 19.7621C110.752 19.8662 110.481 19.9183 110.147 19.9183C109.716 19.9183 109.328 19.8177 108.982 19.6165C108.639 19.4129 108.367 19.1134 108.166 18.718C107.967 18.3203 107.867 17.8314 107.867 17.2514C107.867 16.6714 107.966 16.1742 108.162 15.7599C108.361 15.3456 108.633 15.0284 108.979 14.8082C109.324 14.5857 109.716 14.4744 110.154 14.4744C110.493 14.4744 110.766 14.5312 110.974 14.6449C111.183 14.7562 111.345 14.8864 111.461 15.0355C111.579 15.1847 111.671 15.3161 111.734 15.4297H111.813V14.5455H112.853V20.1207C112.853 20.5895 112.744 20.9742 112.526 21.2749C112.309 21.5755 112.014 21.7981 111.642 21.9425C111.273 22.0869 110.856 22.1591 110.392 22.1591ZM110.381 19.0376C110.687 19.0376 110.945 18.9666 111.156 18.8246C111.369 18.6802 111.53 18.4742 111.639 18.2067C111.75 17.9368 111.805 17.6136 111.805 17.2372C111.805 16.8703 111.751 16.5471 111.642 16.2678C111.533 15.9884 111.373 15.7706 111.163 15.6143C110.952 15.4557 110.692 15.3764 110.381 15.3764C110.062 15.3764 109.796 15.4593 109.582 15.625C109.369 15.7884 109.208 16.0109 109.099 16.2926C108.993 16.5743 108.94 16.8892 108.94 17.2372C108.94 17.5947 108.994 17.9084 109.103 18.1783C109.212 18.4482 109.373 18.6589 109.586 18.8104C109.801 18.9619 110.067 19.0376 110.381 19.0376ZM116.428 20.1101C115.891 20.1101 115.428 19.9953 115.039 19.7656C114.654 19.5336 114.355 19.2081 114.145 18.7891C113.936 18.3677 113.832 17.8741 113.832 17.3082C113.832 16.7495 113.936 16.2571 114.145 15.831C114.355 15.4048 114.649 15.0722 115.025 14.8331C115.404 14.594 115.847 14.4744 116.353 14.4744C116.661 14.4744 116.959 14.5253 117.248 14.6271C117.537 14.7289 117.796 14.8887 118.026 15.1065C118.256 15.3243 118.437 15.6072 118.569 15.9553C118.702 16.3009 118.768 16.7211 118.768 17.2159V17.5923H114.432V16.7969H117.728C117.728 16.5175 117.671 16.2701 117.557 16.0547C117.444 15.8369 117.284 15.6652 117.078 15.5398C116.874 15.4143 116.635 15.3516 116.36 15.3516C116.062 15.3516 115.802 15.425 115.579 15.5717C115.359 15.7161 115.189 15.9055 115.068 16.1399C114.949 16.3719 114.89 16.6241 114.89 16.8963V17.5178C114.89 17.8823 114.954 18.1925 115.082 18.4482C115.212 18.7038 115.393 18.8991 115.625 19.0341C115.857 19.1667 116.128 19.233 116.439 19.233C116.64 19.233 116.823 19.2045 116.989 19.1477C117.155 19.0885 117.298 19.0009 117.419 18.8849C117.539 18.7689 117.632 18.6257 117.696 18.4553L118.701 18.6364C118.62 18.9323 118.476 19.1915 118.267 19.4141C118.061 19.6342 117.802 19.8059 117.49 19.929C117.18 20.0497 116.826 20.1101 116.428 20.1101ZM119.746 20V14.5455H120.765V15.4332H120.833C120.946 15.1326 121.132 14.8982 121.39 14.7301C121.648 14.5597 121.957 14.4744 122.317 14.4744C122.682 14.4744 122.987 14.5597 123.233 14.7301C123.482 14.9006 123.665 15.1349 123.784 15.4332H123.841C123.971 15.142 124.178 14.91 124.462 14.7372C124.746 14.562 125.085 14.4744 125.478 14.4744C125.973 14.4744 126.376 14.6295 126.689 14.9396C127.004 15.2498 127.161 15.7173 127.161 16.3423V20H126.099V16.4418C126.099 16.0724 125.999 15.8049 125.797 15.6392C125.596 15.4735 125.356 15.3906 125.076 15.3906C124.731 15.3906 124.462 15.4972 124.27 15.7102C124.079 15.9209 123.983 16.192 123.983 16.5234V20H122.924V16.3743C122.924 16.0784 122.832 15.8404 122.647 15.6605C122.463 15.4806 122.223 15.3906 121.927 15.3906C121.725 15.3906 121.54 15.4439 121.369 15.5504C121.201 15.6546 121.065 15.8002 120.961 15.9872C120.859 16.1742 120.808 16.3909 120.808 16.6371V20H119.746ZM130.735 20.1101C130.198 20.1101 129.735 19.9953 129.346 19.7656C128.961 19.5336 128.662 19.2081 128.452 18.7891C128.243 18.3677 128.139 17.8741 128.139 17.3082C128.139 16.7495 128.243 16.2571 128.452 15.831C128.662 15.4048 128.956 15.0722 129.332 14.8331C129.711 14.594 130.154 14.4744 130.66 14.4744C130.968 14.4744 131.266 14.5253 131.555 14.6271C131.844 14.7289 132.103 14.8887 132.333 15.1065C132.563 15.3243 132.744 15.6072 132.876 15.9553C133.009 16.3009 133.075 16.7211 133.075 17.2159V17.5923H128.739V16.7969H132.035C132.035 16.5175 131.978 16.2701 131.864 16.0547C131.751 15.8369 131.591 15.6652 131.385 15.5398C131.181 15.4143 130.942 15.3516 130.667 15.3516C130.369 15.3516 130.109 15.425 129.886 15.5717C129.666 15.7161 129.496 15.9055 129.375 16.1399C129.256 16.3719 129.197 16.6241 129.197 16.8963V17.5178C129.197 17.8823 129.261 18.1925 129.389 18.4482C129.519 18.7038 129.7 18.8991 129.932 19.0341C130.164 19.1667 130.435 19.233 130.746 19.233C130.947 19.233 131.13 19.2045 131.296 19.1477C131.462 19.0885 131.605 19.0009 131.726 18.8849C131.846 18.7689 131.939 18.6257 132.003 18.4553L133.008 18.6364C132.927 18.9323 132.783 19.1915 132.574 19.4141C132.368 19.6342 132.109 19.8059 131.797 19.929C131.487 20.0497 131.133 20.1101 130.735 20.1101ZM135.115 16.7614V20H134.053V14.5455H135.072V15.4332H135.14C135.265 15.1444 135.462 14.9124 135.729 14.7372C135.999 14.562 136.339 14.4744 136.749 14.4744C137.12 14.4744 137.446 14.5526 137.725 14.7088C138.004 14.8627 138.221 15.0923 138.375 15.3977C138.529 15.7031 138.606 16.0807 138.606 16.5305V20H137.544V16.6584C137.544 16.263 137.441 15.9541 137.235 15.7315C137.029 15.5066 136.746 15.3942 136.386 15.3942C136.14 15.3942 135.921 15.4474 135.729 15.554C135.54 15.6605 135.39 15.8168 135.278 16.0227C135.169 16.2263 135.115 16.4725 135.115 16.7614ZM142.376 14.5455V15.3977H139.397V14.5455H142.376ZM140.196 13.2386H141.257V18.3984C141.257 18.6044 141.288 18.7595 141.35 18.8636C141.411 18.9654 141.491 19.0353 141.588 19.0732C141.687 19.1087 141.795 19.1264 141.911 19.1264C141.996 19.1264 142.071 19.1205 142.134 19.1087C142.198 19.0968 142.248 19.0874 142.284 19.0803L142.475 19.9574C142.414 19.9811 142.326 20.0047 142.213 20.0284C142.099 20.0545 141.957 20.0687 141.786 20.071C141.507 20.0758 141.247 20.026 141.005 19.9219C140.764 19.8177 140.568 19.6567 140.419 19.4389C140.27 19.2211 140.196 18.9477 140.196 18.6186V13.2386Z" fill="black" style="fill:black;fill-opacity:1;"/>
<rect x="10" y="34" width="173" height="18" rx="4" fill="#F9FAFB" style="fill:#F9FAFB;fill:color(display-p3 0.9765 0.9804 0.9843);fill-opacity:1;"/>
<path opacity="0.6" d="M14.3523 40.9375V40.1818H18.8551V40.9375H17.0398V46H16.1648V40.9375H14.3523ZM20.8272 46.0881C20.4181 46.0881 20.0611 45.9943 19.7562 45.8068C19.4513 45.6193 19.2145 45.357 19.046 45.0199C18.8774 44.6828 18.7931 44.2888 18.7931 43.8381C18.7931 43.3854 18.8774 42.9896 19.046 42.6506C19.2145 42.3116 19.4513 42.0483 19.7562 41.8608C20.0611 41.6733 20.4181 41.5795 20.8272 41.5795C21.2363 41.5795 21.5933 41.6733 21.8982 41.8608C22.2032 42.0483 22.4399 42.3116 22.6085 42.6506C22.777 42.9896 22.8613 43.3854 22.8613 43.8381C22.8613 44.2888 22.777 44.6828 22.6085 45.0199C22.4399 45.357 22.2032 45.6193 21.8982 45.8068C21.5933 45.9943 21.2363 46.0881 20.8272 46.0881ZM20.8301 45.375C21.0952 45.375 21.3149 45.3049 21.4891 45.1648C21.6634 45.0246 21.7922 44.8381 21.8755 44.6051C21.9607 44.3722 22.0034 44.1155 22.0034 43.8352C22.0034 43.5568 21.9607 43.3011 21.8755 43.0682C21.7922 42.8333 21.6634 42.6449 21.4891 42.5028C21.3149 42.3608 21.0952 42.2898 20.8301 42.2898C20.563 42.2898 20.3414 42.3608 20.1653 42.5028C19.991 42.6449 19.8613 42.8333 19.7761 43.0682C19.6927 43.3011 19.6511 43.5568 19.6511 43.8352C19.6511 44.1155 19.6927 44.3722 19.7761 44.6051C19.8613 44.8381 19.991 45.0246 20.1653 45.1648C20.3414 45.3049 20.563 45.375 20.8301 45.375ZM25.6864 41.6364V42.3182H23.3029V41.6364H25.6864ZM23.9421 40.5909H24.7915V44.7188C24.7915 44.8835 24.8161 45.0076 24.8654 45.0909C24.9146 45.1723 24.9781 45.2282 25.0557 45.2585C25.1353 45.2869 25.2214 45.3011 25.3142 45.3011C25.3824 45.3011 25.4421 45.2964 25.4932 45.2869C25.5443 45.2775 25.5841 45.2699 25.6125 45.2642L25.7659 45.9659C25.7167 45.9848 25.6466 46.0038 25.5557 46.0227C25.4648 46.0436 25.3512 46.0549 25.2148 46.0568C24.9913 46.0606 24.783 46.0208 24.5898 45.9375C24.3966 45.8542 24.2404 45.7254 24.1211 45.5511C24.0017 45.3769 23.9421 45.1581 23.9421 44.8949V40.5909ZM27.7359 46.0966C27.4594 46.0966 27.2094 46.0455 26.9859 45.9432C26.7624 45.839 26.5853 45.6884 26.4547 45.4915C26.3259 45.2945 26.2615 45.053 26.2615 44.767C26.2615 44.5208 26.3088 44.3182 26.4035 44.1591C26.4982 44 26.6261 43.8741 26.787 43.7812C26.948 43.6884 27.128 43.6184 27.3268 43.571C27.5257 43.5237 27.7283 43.4877 27.9348 43.4631C28.1961 43.4328 28.4083 43.4081 28.5711 43.3892C28.734 43.3684 28.8524 43.3352 28.9263 43.2898C29.0001 43.2443 29.037 43.1705 29.037 43.0682V43.0483C29.037 42.8002 28.967 42.608 28.8268 42.4716C28.6886 42.3352 28.4821 42.267 28.2075 42.267C27.9215 42.267 27.6961 42.3305 27.5314 42.4574C27.3685 42.5824 27.2558 42.7216 27.1933 42.875L26.395 42.6932C26.4897 42.428 26.628 42.214 26.8098 42.0511C26.9935 41.8864 27.2047 41.767 27.4433 41.6932C27.6819 41.6174 27.9329 41.5795 28.1961 41.5795C28.3704 41.5795 28.555 41.6004 28.7501 41.642C28.9471 41.6818 29.1308 41.7557 29.3013 41.8636C29.4736 41.9716 29.6147 42.1259 29.7245 42.3267C29.8344 42.5256 29.8893 42.7841 29.8893 43.1023V46H29.0598V45.4034H29.0257C28.9708 45.5133 28.8884 45.6212 28.7785 45.7273C28.6687 45.8333 28.5276 45.9214 28.3552 45.9915C28.1829 46.0616 27.9764 46.0966 27.7359 46.0966ZM27.9206 45.4148C28.1554 45.4148 28.3562 45.3684 28.5228 45.2756C28.6914 45.1828 28.8192 45.0616 28.9064 44.9119C28.9954 44.7604 29.0399 44.5985 29.0399 44.4261V43.8636C29.0096 43.8939 28.9509 43.9223 28.8638 43.9489C28.7785 43.9735 28.681 43.9953 28.5711 44.0142C28.4613 44.0312 28.3543 44.0473 28.2501 44.0625C28.1459 44.0758 28.0588 44.0871 27.9888 44.0966C27.824 44.1174 27.6734 44.1525 27.537 44.2017C27.4026 44.2509 27.2946 44.322 27.2132 44.4148C27.1336 44.5057 27.0939 44.6269 27.0939 44.7784C27.0939 44.9886 27.1715 45.1477 27.3268 45.2557C27.4821 45.3617 27.68 45.4148 27.9206 45.4148ZM31.7101 40.1818V46H30.8607V40.1818H31.7101ZM36.6018 46H34.7183V40.1818H36.6614C37.2315 40.1818 37.7211 40.2983 38.1302 40.5312C38.5393 40.7623 38.8527 41.0947 39.0705 41.5284C39.2902 41.9602 39.4001 42.4782 39.4001 43.0824C39.4001 43.6884 39.2893 44.2093 39.0677 44.6449C38.848 45.0805 38.5298 45.4157 38.1132 45.6506C37.6965 45.8835 37.1927 46 36.6018 46ZM35.5961 45.233H36.5535C36.9967 45.233 37.365 45.1496 37.6586 44.983C37.9522 44.8144 38.1719 44.571 38.3177 44.2528C38.4635 43.9328 38.5364 43.5426 38.5364 43.0824C38.5364 42.6259 38.4635 42.2386 38.3177 41.9205C38.1738 41.6023 37.9588 41.3608 37.6728 41.196C37.3868 41.0312 37.0317 40.9489 36.6075 40.9489H35.5961V45.233ZM43.0277 44.1903V41.6364H43.88V46H43.0448V45.2443H42.9993C42.8989 45.4773 42.738 45.6714 42.5164 45.8267C42.2967 45.9801 42.023 46.0568 41.6953 46.0568C41.415 46.0568 41.1669 45.9953 40.951 45.8722C40.737 45.7472 40.5684 45.5625 40.4453 45.3182C40.3241 45.0739 40.2635 44.7718 40.2635 44.4119V41.6364H41.113V44.3097C41.113 44.607 41.1953 44.8437 41.3601 45.0199C41.5249 45.196 41.7389 45.2841 42.0022 45.2841C42.1612 45.2841 42.3194 45.2443 42.4766 45.1648C42.6357 45.0852 42.7673 44.965 42.8715 44.804C42.9775 44.643 43.0296 44.4384 43.0277 44.1903ZM44.8613 46V41.6364H45.6824V42.3295H45.7278C45.8074 42.0947 45.9475 41.91 46.1483 41.7756C46.3509 41.6392 46.5801 41.571 46.8358 41.571C46.8888 41.571 46.9513 41.5729 47.0233 41.5767C47.0971 41.5805 47.1549 41.5852 47.1966 41.5909V42.4034C47.1625 42.3939 47.1019 42.3835 47.0147 42.3722C46.9276 42.3589 46.8405 42.3523 46.7534 42.3523C46.5526 42.3523 46.3736 42.3949 46.2164 42.4801C46.0611 42.5634 45.938 42.6799 45.8471 42.8295C45.7562 42.9773 45.7108 43.1458 45.7108 43.3352V46H44.8613ZM49.0025 46.0966C48.726 46.0966 48.476 46.0455 48.2525 45.9432C48.029 45.839 47.8519 45.6884 47.7212 45.4915C47.5924 45.2945 47.528 45.053 47.528 44.767C47.528 44.5208 47.5754 44.3182 47.6701 44.1591C47.7648 44 47.8926 43.8741 48.0536 43.7812C48.2146 43.6884 48.3945 43.6184 48.5934 43.571C48.7922 43.5237 48.9949 43.4877 49.2013 43.4631C49.4627 43.4328 49.6748 43.4081 49.8377 43.3892C50.0006 43.3684 50.119 43.3352 50.1928 43.2898C50.2667 43.2443 50.3036 43.1705 50.3036 43.0682V43.0483C50.3036 42.8002 50.2335 42.608 50.0934 42.4716C49.9551 42.3352 49.7487 42.267 49.4741 42.267C49.1881 42.267 48.9627 42.3305 48.7979 42.4574C48.635 42.5824 48.5224 42.7216 48.4599 42.875L47.6616 42.6932C47.7563 42.428 47.8945 42.214 48.0763 42.0511C48.26 41.8864 48.4712 41.767 48.7099 41.6932C48.9485 41.6174 49.1994 41.5795 49.4627 41.5795C49.6369 41.5795 49.8216 41.6004 50.0167 41.642C50.2136 41.6818 50.3974 41.7557 50.5678 41.8636C50.7402 41.9716 50.8813 42.1259 50.9911 42.3267C51.101 42.5256 51.1559 42.7841 51.1559 43.1023V46H50.3263V45.4034H50.2922C50.2373 45.5133 50.1549 45.6212 50.0451 45.7273C49.9352 45.8333 49.7941 45.9214 49.6218 45.9915C49.4494 46.0616 49.243 46.0966 49.0025 46.0966ZM49.1871 45.4148C49.422 45.4148 49.6227 45.3684 49.7894 45.2756C49.958 45.1828 50.0858 45.0616 50.1729 44.9119C50.2619 44.7604 50.3065 44.5985 50.3065 44.4261V43.8636C50.2761 43.8939 50.2174 43.9223 50.1303 43.9489C50.0451 43.9735 49.9475 43.9953 49.8377 44.0142C49.7279 44.0312 49.6208 44.0473 49.5167 44.0625C49.4125 44.0758 49.3254 44.0871 49.2553 44.0966C49.0905 44.1174 48.94 44.1525 48.8036 44.2017C48.6691 44.2509 48.5612 44.322 48.4797 44.4148C48.4002 44.5057 48.3604 44.6269 48.3604 44.7784C48.3604 44.9886 48.4381 45.1477 48.5934 45.2557C48.7487 45.3617 48.9466 45.4148 49.1871 45.4148ZM54.1642 41.6364V42.3182H51.7807V41.6364H54.1642ZM52.4199 40.5909H53.2693V44.7188C53.2693 44.8835 53.2939 45.0076 53.3432 45.0909C53.3924 45.1723 53.4559 45.2282 53.5335 45.2585C53.6131 45.2869 53.6992 45.3011 53.792 45.3011C53.8602 45.3011 53.9199 45.2964 53.971 45.2869C54.0222 45.2775 54.0619 45.2699 54.0903 45.2642L54.2438 45.9659C54.1945 45.9848 54.1244 46.0038 54.0335 46.0227C53.9426 46.0436 53.829 46.0549 53.6926 46.0568C53.4691 46.0606 53.2608 46.0208 53.0676 45.9375C52.8744 45.8542 52.7182 45.7254 52.5989 45.5511C52.4795 45.3769 52.4199 45.1581 52.4199 44.8949V40.5909ZM54.9438 46V41.6364H55.7933V46H54.9438ZM55.3728 40.9631C55.2251 40.9631 55.0982 40.9138 54.9921 40.8153C54.888 40.715 54.8359 40.5956 54.8359 40.4574C54.8359 40.3172 54.888 40.1979 54.9921 40.0994C55.0982 39.9991 55.2251 39.9489 55.3728 39.9489C55.5205 39.9489 55.6465 39.9991 55.7507 40.0994C55.8567 40.1979 55.9097 40.3172 55.9097 40.4574C55.9097 40.5956 55.8567 40.715 55.7507 40.8153C55.6465 40.9138 55.5205 40.9631 55.3728 40.9631ZM58.6141 46.0881C58.205 46.0881 57.848 45.9943 57.5431 45.8068C57.2381 45.6193 57.0014 45.357 56.8328 45.0199C56.6643 44.6828 56.58 44.2888 56.58 43.8381C56.58 43.3854 56.6643 42.9896 56.8328 42.6506C57.0014 42.3116 57.2381 42.0483 57.5431 41.8608C57.848 41.6733 58.205 41.5795 58.6141 41.5795C59.0232 41.5795 59.3802 41.6733 59.6851 41.8608C59.99 42.0483 60.2268 42.3116 60.3953 42.6506C60.5639 42.9896 60.6482 43.3854 60.6482 43.8381C60.6482 44.2888 60.5639 44.6828 60.3953 45.0199C60.2268 45.357 59.99 45.6193 59.6851 45.8068C59.3802 45.9943 59.0232 46.0881 58.6141 46.0881ZM58.6169 45.375C58.8821 45.375 59.1018 45.3049 59.276 45.1648C59.4503 45.0246 59.5791 44.8381 59.6624 44.6051C59.7476 44.3722 59.7902 44.1155 59.7902 43.8352C59.7902 43.5568 59.7476 43.3011 59.6624 43.0682C59.5791 42.8333 59.4503 42.6449 59.276 42.5028C59.1018 42.3608 58.8821 42.2898 58.6169 42.2898C58.3499 42.2898 58.1283 42.3608 57.9522 42.5028C57.7779 42.6449 57.6482 42.8333 57.563 43.0682C57.4796 43.3011 57.438 43.5568 57.438 43.8352C57.438 44.1155 57.4796 44.3722 57.563 44.6051C57.6482 44.8381 57.7779 45.0246 57.9522 45.1648C58.1283 45.3049 58.3499 45.375 58.6169 45.375ZM62.2858 43.4091V46H61.4363V41.6364H62.2517V42.3466H62.3057C62.406 42.1155 62.5632 41.9299 62.7772 41.7898C62.9932 41.6496 63.2649 41.5795 63.5926 41.5795C63.8899 41.5795 64.1503 41.642 64.3738 41.767C64.5973 41.8902 64.7706 42.0739 64.8937 42.3182C65.0168 42.5625 65.0784 42.8646 65.0784 43.2244V46H64.2289V43.3267C64.2289 43.0104 64.1466 42.7633 63.9818 42.5852C63.817 42.4053 63.5907 42.3153 63.3028 42.3153C63.1058 42.3153 62.9307 42.358 62.7772 42.4432C62.6257 42.5284 62.5055 42.6534 62.4164 42.8182C62.3293 42.9811 62.2858 43.178 62.2858 43.4091Z" fill="black" fill-opacity="0.9" style="fill:black;fill-opacity:0.9;"/>
<path opacity="0.6" d="M158.014 46L160.616 40.8523V40.8068H157.616V40.1818H161.343V40.8409L158.752 46H158.014ZM163.982 46.0795C163.649 46.0795 163.349 46.0133 163.082 45.8807C162.815 45.7481 162.601 45.5663 162.44 45.3352C162.279 45.1042 162.191 44.8409 162.176 44.5455H162.857C162.884 44.8087 163.003 45.0265 163.215 45.1989C163.429 45.3693 163.685 45.4545 163.982 45.4545C164.221 45.4545 164.433 45.3987 164.619 45.2869C164.806 45.1752 164.953 45.0218 165.059 44.8267C165.167 44.6297 165.221 44.4072 165.221 44.1591C165.221 43.9053 165.165 43.679 165.053 43.4801C164.944 43.2794 164.792 43.1212 164.599 43.0057C164.406 42.8902 164.185 42.8314 163.937 42.8295C163.759 42.8277 163.576 42.8551 163.389 42.9119C163.201 42.9669 163.047 43.0379 162.926 43.125L162.266 43.0455L162.619 40.1818H165.641V40.8068H163.21L163.005 42.5227H163.039C163.158 42.428 163.308 42.3494 163.488 42.2869C163.668 42.2244 163.855 42.1932 164.051 42.1932C164.407 42.1932 164.724 42.2784 165.002 42.4489C165.283 42.6174 165.502 42.8485 165.661 43.142C165.822 43.4356 165.903 43.7708 165.903 44.1477C165.903 44.5189 165.819 44.8504 165.653 45.142C165.488 45.4318 165.261 45.661 164.971 45.8295C164.681 45.9962 164.352 46.0795 163.982 46.0795ZM167.153 46.0455C167.012 46.0455 166.892 45.9953 166.792 45.8949C166.691 45.7945 166.641 45.6742 166.641 45.5341C166.641 45.3939 166.691 45.2737 166.792 45.1733C166.892 45.0729 167.012 45.0227 167.153 45.0227C167.293 45.0227 167.413 45.0729 167.513 45.1733C167.614 45.2737 167.664 45.3939 167.664 45.5341C167.664 45.6269 167.64 45.7121 167.593 45.7898C167.547 45.8674 167.486 45.9299 167.408 45.9773C167.333 46.0227 167.247 46.0455 167.153 46.0455ZM170.39 46.0795C169.962 46.0795 169.598 45.9631 169.297 45.7301C168.995 45.4953 168.765 45.1553 168.606 44.7102C168.447 44.2633 168.368 43.7235 168.368 43.0909C168.368 42.4621 168.447 41.9252 168.606 41.4801C168.767 41.0331 168.998 40.6922 169.299 40.4574C169.602 40.2206 169.966 40.1023 170.39 40.1023C170.815 40.1023 171.177 40.2206 171.478 40.4574C171.781 40.6922 172.012 41.0331 172.172 41.4801C172.333 41.9252 172.413 42.4621 172.413 43.0909C172.413 43.7235 172.333 44.2633 172.174 44.7102C172.015 45.1553 171.785 45.4953 171.484 45.7301C171.183 45.9631 170.818 46.0795 170.39 46.0795ZM170.39 45.4545C170.815 45.4545 171.144 45.25 171.379 44.8409C171.614 44.4318 171.731 43.8485 171.731 43.0909C171.731 42.5871 171.677 42.1581 171.569 41.804C171.463 41.4498 171.31 41.1799 171.109 40.9943C170.91 40.8087 170.671 40.7159 170.39 40.7159C169.97 40.7159 169.641 40.9233 169.405 41.3381C169.168 41.7509 169.049 42.3352 169.049 43.0909C169.049 43.5947 169.102 44.0227 169.208 44.375C169.315 44.7273 169.467 44.9953 169.666 45.179C169.867 45.3627 170.108 45.4545 170.39 45.4545ZM178.525 42.6136L177.923 42.7841C177.885 42.6837 177.829 42.5862 177.755 42.4915C177.683 42.3949 177.585 42.3153 177.46 42.2528C177.335 42.1903 177.174 42.1591 176.979 42.1591C176.712 42.1591 176.49 42.2206 176.312 42.3438C176.136 42.465 176.048 42.6193 176.048 42.8068C176.048 42.9735 176.108 43.1051 176.229 43.2017C176.351 43.2983 176.54 43.3788 176.798 43.4432L177.445 43.6023C177.835 43.697 178.126 43.8419 178.317 44.0369C178.509 44.2301 178.604 44.4792 178.604 44.7841C178.604 45.0341 178.532 45.2576 178.388 45.4545C178.246 45.6515 178.048 45.8068 177.792 45.9205C177.536 46.0341 177.239 46.0909 176.9 46.0909C176.455 46.0909 176.086 45.9943 175.795 45.8011C175.503 45.608 175.318 45.3258 175.241 44.9545L175.877 44.7955C175.938 45.0303 176.052 45.2064 176.221 45.3239C176.391 45.4413 176.614 45.5 176.888 45.5C177.201 45.5 177.449 45.4337 177.633 45.3011C177.818 45.1667 177.911 45.0057 177.911 44.8182C177.911 44.6667 177.858 44.5398 177.752 44.4375C177.646 44.3333 177.483 44.2557 177.263 44.2045L176.536 44.0341C176.137 43.9394 175.843 43.7926 175.656 43.5938C175.47 43.393 175.377 43.142 175.377 42.8409C175.377 42.5947 175.446 42.3769 175.585 42.1875C175.725 41.9981 175.915 41.8494 176.156 41.7415C176.398 41.6335 176.673 41.5795 176.979 41.5795C177.411 41.5795 177.75 41.6742 177.996 41.8636C178.245 42.053 178.421 42.303 178.525 42.6136Z" fill="black" fill-opacity="0.9" style="fill:black;fill-opacity:0.9;"/>
<path opacity="0.6" d="M16.1642 67.956V67.4489L18.4014 63.9091H18.7693V64.6946H18.5208L16.8304 67.3693V67.4091H19.8432V67.956H16.1642ZM18.5605 69V67.8018V67.5657V63.9091H19.1472V69H18.5605ZM22.2953 69.0696C21.9207 69.0696 21.6017 68.9677 21.3382 68.7638C21.0747 68.5584 20.8734 68.2609 20.7342 67.8714C20.595 67.4804 20.5254 67.008 20.5254 66.4545C20.5254 65.9044 20.595 65.4345 20.7342 65.0451C20.8751 64.654 21.0772 64.3557 21.3407 64.1502C21.6059 63.9431 21.9241 63.8395 22.2953 63.8395C22.6665 63.8395 22.9838 63.9431 23.2473 64.1502C23.5125 64.3557 23.7147 64.654 23.8539 65.0451C23.9947 65.4345 24.0652 65.9044 24.0652 66.4545C24.0652 67.008 23.9956 67.4804 23.8564 67.8714C23.7171 68.2609 23.5158 68.5584 23.2523 68.7638C22.9888 68.9677 22.6698 69.0696 22.2953 69.0696ZM22.2953 68.5227C22.6665 68.5227 22.9548 68.3437 23.1603 67.9858C23.3658 67.6278 23.4686 67.1174 23.4686 66.4545C23.4686 66.0137 23.4213 65.6384 23.3269 65.3285C23.2341 65.0186 23.0998 64.7824 22.9242 64.62C22.7502 64.4576 22.5405 64.3764 22.2953 64.3764C21.9274 64.3764 21.6399 64.5579 21.4327 64.9208C21.2256 65.2821 21.122 65.7933 21.122 66.4545C21.122 66.8954 21.1684 67.2699 21.2612 67.5781C21.354 67.8864 21.4874 68.1209 21.6614 68.2816C21.8371 68.4424 22.0484 68.5227 22.2953 68.5227ZM27.5843 66.0369L27.0573 66.1861C27.0241 66.0982 26.9752 66.0129 26.9106 65.93C26.8476 65.8455 26.7615 65.7759 26.6521 65.7212C26.5427 65.6665 26.4027 65.6392 26.232 65.6392C25.9983 65.6392 25.8036 65.6931 25.6478 65.8008C25.4937 65.9068 25.4166 66.0419 25.4166 66.206C25.4166 66.3518 25.4697 66.467 25.5757 66.5515C25.6818 66.636 25.8475 66.7064 26.0729 66.7628L26.6396 66.902C26.981 66.9848 27.2354 67.1116 27.4028 67.2823C27.5702 67.4513 27.6539 67.6693 27.6539 67.9361C27.6539 68.1548 27.5909 68.3504 27.4649 68.5227C27.3406 68.6951 27.1666 68.831 26.9429 68.9304C26.7192 69.0298 26.459 69.0795 26.1624 69.0795C25.7729 69.0795 25.4506 68.995 25.1954 68.826C24.9402 68.657 24.7786 68.41 24.7107 68.0852L25.2675 67.946C25.3205 68.1515 25.4208 68.3056 25.5683 68.4084C25.7174 68.5111 25.9121 68.5625 26.1524 68.5625C26.4259 68.5625 26.643 68.5045 26.8037 68.3885C26.9661 68.2708 27.0473 68.13 27.0473 67.9659C27.0473 67.8333 27.0009 67.7223 26.9081 67.6328C26.8153 67.5417 26.6728 67.4737 26.4806 67.429L25.8442 67.2798C25.4945 67.197 25.2377 67.0685 25.0736 66.8945C24.9112 66.7189 24.83 66.4993 24.83 66.2358C24.83 66.0204 24.8905 65.8298 25.0115 65.6641C25.1341 65.4983 25.3006 65.3683 25.5111 65.2738C25.7232 65.1793 25.9635 65.1321 26.232 65.1321C26.6098 65.1321 26.9065 65.215 27.1219 65.3807C27.339 65.5464 27.4931 65.7652 27.5843 66.0369Z" fill="black" fill-opacity="0.9" style="fill:black;fill-opacity:0.9;"/>
<line x1="34" y1="66.25" x2="183" y2="66.25" stroke="black" stroke-opacity="0.15" style="stroke:black;stroke-opacity:0.15;" stroke-width="0.5"/>
<path opacity="0.6" d="M18.0379 91.5696C17.7098 91.5696 17.4173 91.5133 17.1604 91.4006C16.9052 91.2879 16.7022 91.1313 16.5514 90.9308C16.4022 90.7286 16.321 90.4941 16.3078 90.2273H16.9342C16.9475 90.3913 17.0038 90.533 17.1032 90.6523C17.2027 90.77 17.3328 90.8612 17.4935 90.9258C17.6543 90.9904 17.8324 91.0227 18.028 91.0227C18.2467 91.0227 18.4406 90.9846 18.6096 90.9084C18.7787 90.8321 18.9112 90.7261 19.0074 90.5902C19.1035 90.4543 19.1515 90.2969 19.1515 90.1179C19.1515 89.9306 19.1051 89.7657 19.0123 89.6232C18.9195 89.479 18.7836 89.3664 18.6047 89.2852C18.4257 89.204 18.2069 89.1634 17.9484 89.1634H17.5407V88.6165H17.9484C18.1506 88.6165 18.3279 88.58 18.4804 88.5071C18.6345 88.4342 18.7546 88.3314 18.8408 88.1989C18.9286 88.0663 18.9726 87.9105 18.9726 87.7315C18.9726 87.5592 18.9344 87.4092 18.8582 87.2816C18.782 87.154 18.6743 87.0546 18.5351 86.9833C18.3975 86.9121 18.2351 86.8764 18.0478 86.8764C17.8722 86.8764 17.7065 86.9087 17.5507 86.9734C17.3966 87.0363 17.2706 87.1283 17.1728 87.2493C17.0751 87.3686 17.022 87.5128 17.0138 87.6818H16.4172C16.4271 87.415 16.5075 87.1813 16.6583 86.9808C16.8091 86.7786 17.0063 86.6212 17.2499 86.5085C17.4952 86.3958 17.7645 86.3395 18.0578 86.3395C18.3727 86.3395 18.6428 86.4033 18.8682 86.5309C19.0935 86.6568 19.2667 86.8234 19.3877 87.0305C19.5087 87.2377 19.5692 87.4614 19.5692 87.7017C19.5692 87.9884 19.4937 88.2328 19.3429 88.435C19.1938 88.6372 18.9908 88.7772 18.7339 88.8551V88.8949C19.0554 88.9479 19.3065 89.0846 19.4871 89.305C19.6678 89.5238 19.7581 89.7947 19.7581 90.1179C19.7581 90.3946 19.6827 90.6432 19.5319 90.8636C19.3827 91.0824 19.1789 91.2547 18.9204 91.3807C18.6618 91.5066 18.3677 91.5696 18.0379 91.5696ZM22.2953 91.5696C21.9207 91.5696 21.6017 91.4677 21.3382 91.2638C21.0747 91.0584 20.8734 90.7609 20.7342 90.3714C20.595 89.9804 20.5254 89.508 20.5254 88.9545C20.5254 88.4044 20.595 87.9345 20.7342 87.5451C20.8751 87.154 21.0772 86.8557 21.3407 86.6502C21.6059 86.4431 21.9241 86.3395 22.2953 86.3395C22.6665 86.3395 22.9838 86.4431 23.2473 86.6502C23.5125 86.8557 23.7147 87.154 23.8539 87.5451C23.9947 87.9345 24.0652 88.4044 24.0652 88.9545C24.0652 89.508 23.9956 89.9804 23.8564 90.3714C23.7171 90.7609 23.5158 91.0584 23.2523 91.2638C22.9888 91.4677 22.6698 91.5696 22.2953 91.5696ZM22.2953 91.0227C22.6665 91.0227 22.9548 90.8437 23.1603 90.4858C23.3658 90.1278 23.4686 89.6174 23.4686 88.9545C23.4686 88.5137 23.4213 88.1384 23.3269 87.8285C23.2341 87.5186 23.0998 87.2824 22.9242 87.12C22.7502 86.9576 22.5405 86.8764 22.2953 86.8764C21.9274 86.8764 21.6399 87.0579 21.4327 87.4208C21.2256 87.7821 21.122 88.2933 21.122 88.9545C21.122 89.3954 21.1684 89.7699 21.2612 90.0781C21.354 90.3864 21.4874 90.6209 21.6614 90.7816C21.8371 90.9424 22.0484 91.0227 22.2953 91.0227ZM27.5843 88.5369L27.0573 88.6861C27.0241 88.5982 26.9752 88.5129 26.9106 88.43C26.8476 88.3455 26.7615 88.2759 26.6521 88.2212C26.5427 88.1665 26.4027 88.1392 26.232 88.1392C25.9983 88.1392 25.8036 88.1931 25.6478 88.3008C25.4937 88.4068 25.4166 88.5419 25.4166 88.706C25.4166 88.8518 25.4697 88.967 25.5757 89.0515C25.6818 89.136 25.8475 89.2064 26.0729 89.2628L26.6396 89.402C26.981 89.4848 27.2354 89.6116 27.4028 89.7823C27.5702 89.9513 27.6539 90.1693 27.6539 90.4361C27.6539 90.6548 27.5909 90.8504 27.4649 91.0227C27.3406 91.1951 27.1666 91.331 26.9429 91.4304C26.7192 91.5298 26.459 91.5795 26.1624 91.5795C25.7729 91.5795 25.4506 91.495 25.1954 91.326C24.9402 91.157 24.7786 90.91 24.7107 90.5852L25.2675 90.446C25.3205 90.6515 25.4208 90.8056 25.5683 90.9084C25.7174 91.0111 25.9121 91.0625 26.1524 91.0625C26.4259 91.0625 26.643 91.0045 26.8037 90.8885C26.9661 90.7708 27.0473 90.63 27.0473 90.4659C27.0473 90.3333 27.0009 90.2223 26.9081 90.1328C26.8153 90.0417 26.6728 89.9737 26.4806 89.929L25.8442 89.7798C25.4945 89.697 25.2377 89.5685 25.0736 89.3945C24.9112 89.2189 24.83 88.9993 24.83 88.7358C24.83 88.5204 24.8905 88.3298 25.0115 88.1641C25.1341 87.9983 25.3006 87.8683 25.5111 87.7738C25.7232 87.6793 25.9635 87.6321 26.232 87.6321C26.6098 87.6321 26.9065 87.715 27.1219 87.8807C27.339 88.0464 27.4931 88.2652 27.5843 88.5369Z" fill="black" fill-opacity="0.9" style="fill:black;fill-opacity:0.9;"/>
<line x1="34" y1="88.75" x2="183" y2="88.75" stroke="black" stroke-opacity="0.15" style="stroke:black;stroke-opacity:0.15;" stroke-width="0.5"/>
<path opacity="0.6" d="M16.5365 114V113.553L18.2169 111.713C18.4141 111.498 18.5765 111.31 18.7041 111.151C18.8317 110.991 18.9262 110.84 18.9875 110.699C19.0504 110.556 19.0819 110.407 19.0819 110.251C19.0819 110.072 19.0388 109.917 18.9527 109.787C18.8682 109.656 18.7522 109.555 18.6047 109.483C18.4572 109.412 18.2915 109.376 18.1075 109.376C17.912 109.376 17.7413 109.417 17.5954 109.498C17.4513 109.578 17.3394 109.69 17.2598 109.834C17.182 109.978 17.143 110.147 17.143 110.341H16.5564C16.5564 110.043 16.6251 109.781 16.7627 109.555C16.9002 109.33 17.0875 109.154 17.3245 109.028C17.5631 108.902 17.8308 108.839 18.1274 108.839C18.4257 108.839 18.69 108.902 18.9204 109.028C19.1507 109.154 19.3313 109.324 19.4623 109.538C19.5932 109.752 19.6586 109.99 19.6586 110.251C19.6586 110.439 19.6247 110.622 19.5567 110.801C19.4904 110.978 19.3744 111.176 19.2087 111.395C19.0446 111.612 18.8168 111.877 18.5251 112.19L17.3817 113.413V113.453H19.7481V114H16.5365ZM22.2953 114.07C21.9207 114.07 21.6017 113.968 21.3382 113.764C21.0747 113.558 20.8734 113.261 20.7342 112.871C20.595 112.48 20.5254 112.008 20.5254 111.455C20.5254 110.904 20.595 110.435 20.7342 110.045C20.8751 109.654 21.0772 109.356 21.3407 109.15C21.6059 108.943 21.9241 108.839 22.2953 108.839C22.6665 108.839 22.9838 108.943 23.2473 109.15C23.5125 109.356 23.7147 109.654 23.8539 110.045C23.9947 110.435 24.0652 110.904 24.0652 111.455C24.0652 112.008 23.9956 112.48 23.8564 112.871C23.7171 113.261 23.5158 113.558 23.2523 113.764C22.9888 113.968 22.6698 114.07 22.2953 114.07ZM22.2953 113.523C22.6665 113.523 22.9548 113.344 23.1603 112.986C23.3658 112.628 23.4686 112.117 23.4686 111.455C23.4686 111.014 23.4213 110.638 23.3269 110.328C23.2341 110.019 23.0998 109.782 22.9242 109.62C22.7502 109.458 22.5405 109.376 22.2953 109.376C21.9274 109.376 21.6399 109.558 21.4327 109.921C21.2256 110.282 21.122 110.793 21.122 111.455C21.122 111.895 21.1684 112.27 21.2612 112.578C21.354 112.886 21.4874 113.121 21.6614 113.282C21.8371 113.442 22.0484 113.523 22.2953 113.523ZM27.5843 111.037L27.0573 111.186C27.0241 111.098 26.9752 111.013 26.9106 110.93C26.8476 110.846 26.7615 110.776 26.6521 110.721C26.5427 110.667 26.4027 110.639 26.232 110.639C25.9983 110.639 25.8036 110.693 25.6478 110.801C25.4937 110.907 25.4166 111.042 25.4166 111.206C25.4166 111.352 25.4697 111.467 25.5757 111.551C25.6818 111.636 25.8475 111.706 26.0729 111.763L26.6396 111.902C26.981 111.985 27.2354 112.112 27.4028 112.282C27.5702 112.451 27.6539 112.669 27.6539 112.936C27.6539 113.155 27.5909 113.35 27.4649 113.523C27.3406 113.695 27.1666 113.831 26.9429 113.93C26.7192 114.03 26.459 114.08 26.1624 114.08C25.7729 114.08 25.4506 113.995 25.1954 113.826C24.9402 113.657 24.7786 113.41 24.7107 113.085L25.2675 112.946C25.3205 113.152 25.4208 113.306 25.5683 113.408C25.7174 113.511 25.9121 113.562 26.1524 113.562C26.4259 113.562 26.643 113.504 26.8037 113.388C26.9661 113.271 27.0473 113.13 27.0473 112.966C27.0473 112.833 27.0009 112.722 26.9081 112.633C26.8153 112.542 26.6728 112.474 26.4806 112.429L25.8442 112.28C25.4945 112.197 25.2377 112.069 25.0736 111.895C24.9112 111.719 24.83 111.499 24.83 111.236C24.83 111.02 24.8905 110.83 25.0115 110.664C25.1341 110.498 25.3006 110.368 25.5111 110.274C25.7232 110.179 25.9635 110.132 26.232 110.132C26.6098 110.132 26.9065 110.215 27.1219 110.381C27.339 110.546 27.4931 110.765 27.5843 111.037Z" fill="black" fill-opacity="0.9" style="fill:black;fill-opacity:0.9;"/>
<line x1="34" y1="111.25" x2="183" y2="111.25" stroke="black" stroke-opacity="0.15" style="stroke:black;stroke-opacity:0.15;" stroke-width="0.5"/>
<path opacity="0.6" d="M19.3106 131.409V136.5H18.6942V132.055H18.6643L17.4214 132.881V132.254L18.6942 131.409H19.3106ZM22.2953 136.57C21.9207 136.57 21.6017 136.468 21.3382 136.264C21.0747 136.058 20.8734 135.761 20.7342 135.371C20.595 134.98 20.5254 134.508 20.5254 133.955C20.5254 133.404 20.595 132.935 20.7342 132.545C20.8751 132.154 21.0772 131.856 21.3407 131.65C21.6059 131.443 21.9241 131.339 22.2953 131.339C22.6665 131.339 22.9838 131.443 23.2473 131.65C23.5125 131.856 23.7147 132.154 23.8539 132.545C23.9947 132.935 24.0652 133.404 24.0652 133.955C24.0652 134.508 23.9956 134.98 23.8564 135.371C23.7171 135.761 23.5158 136.058 23.2523 136.264C22.9888 136.468 22.6698 136.57 22.2953 136.57ZM22.2953 136.023C22.6665 136.023 22.9548 135.844 23.1603 135.486C23.3658 135.128 23.4686 134.617 23.4686 133.955C23.4686 133.514 23.4213 133.138 23.3269 132.828C23.2341 132.519 23.0998 132.282 22.9242 132.12C22.7502 131.958 22.5405 131.876 22.2953 131.876C21.9274 131.876 21.6399 132.058 21.4327 132.421C21.2256 132.782 21.122 133.293 21.122 133.955C21.122 134.395 21.1684 134.77 21.2612 135.078C21.354 135.386 21.4874 135.621 21.6614 135.782C21.8371 135.942 22.0484 136.023 22.2953 136.023ZM27.5843 133.537L27.0573 133.686C27.0241 133.598 26.9752 133.513 26.9106 133.43C26.8476 133.346 26.7615 133.276 26.6521 133.221C26.5427 133.167 26.4027 133.139 26.232 133.139C25.9983 133.139 25.8036 133.193 25.6478 133.301C25.4937 133.407 25.4166 133.542 25.4166 133.706C25.4166 133.852 25.4697 133.967 25.5757 134.051C25.6818 134.136 25.8475 134.206 26.0729 134.263L26.6396 134.402C26.981 134.485 27.2354 134.612 27.4028 134.782C27.5702 134.951 27.6539 135.169 27.6539 135.436C27.6539 135.655 27.5909 135.85 27.4649 136.023C27.3406 136.195 27.1666 136.331 26.9429 136.43C26.7192 136.53 26.459 136.58 26.1624 136.58C25.7729 136.58 25.4506 136.495 25.1954 136.326C24.9402 136.157 24.7786 135.91 24.7107 135.585L25.2675 135.446C25.3205 135.652 25.4208 135.806 25.5683 135.908C25.7174 136.011 25.9121 136.062 26.1524 136.062C26.4259 136.062 26.643 136.004 26.8037 135.888C26.9661 135.771 27.0473 135.63 27.0473 135.466C27.0473 135.333 27.0009 135.222 26.9081 135.133C26.8153 135.042 26.6728 134.974 26.4806 134.929L25.8442 134.78C25.4945 134.697 25.2377 134.569 25.0736 134.395C24.9112 134.219 24.83 133.999 24.83 133.736C24.83 133.52 24.8905 133.33 25.0115 133.164C25.1341 132.998 25.3006 132.868 25.5111 132.774C25.7232 132.679 25.9635 132.632 26.232 132.632C26.6098 132.632 26.9065 132.715 27.1219 132.881C27.339 133.046 27.4931 133.265 27.5843 133.537Z" fill="black" fill-opacity="0.9" style="fill:black;fill-opacity:0.9;"/>
<line x1="34" y1="133.75" x2="183" y2="133.75" stroke="black" stroke-opacity="0.15" style="stroke:black;stroke-opacity:0.15;" stroke-width="0.5"/>
<path opacity="0.6" d="M22.2953 159.07C21.9207 159.07 21.6017 158.968 21.3382 158.764C21.0747 158.558 20.8734 158.261 20.7342 157.871C20.595 157.48 20.5254 157.008 20.5254 156.455C20.5254 155.904 20.595 155.435 20.7342 155.045C20.8751 154.654 21.0772 154.356 21.3407 154.15C21.6059 153.943 21.9241 153.839 22.2953 153.839C22.6665 153.839 22.9838 153.943 23.2473 154.15C23.5125 154.356 23.7147 154.654 23.8539 155.045C23.9947 155.435 24.0652 155.904 24.0652 156.455C24.0652 157.008 23.9956 157.48 23.8564 157.871C23.7171 158.261 23.5158 158.558 23.2523 158.764C22.9888 158.968 22.6698 159.07 22.2953 159.07ZM22.2953 158.523C22.6665 158.523 22.9548 158.344 23.1603 157.986C23.3658 157.628 23.4686 157.117 23.4686 156.455C23.4686 156.014 23.4213 155.638 23.3269 155.328C23.2341 155.019 23.0998 154.782 22.9242 154.62C22.7502 154.458 22.5405 154.376 22.2953 154.376C21.9274 154.376 21.6399 154.558 21.4327 154.921C21.2256 155.282 21.122 155.793 21.122 156.455C21.122 156.895 21.1684 157.27 21.2612 157.578C21.354 157.886 21.4874 158.121 21.6614 158.282C21.8371 158.442 22.0484 158.523 22.2953 158.523ZM27.5843 156.037L27.0573 156.186C27.0241 156.098 26.9752 156.013 26.9106 155.93C26.8476 155.846 26.7615 155.776 26.6521 155.721C26.5427 155.667 26.4027 155.639 26.232 155.639C25.9983 155.639 25.8036 155.693 25.6478 155.801C25.4937 155.907 25.4166 156.042 25.4166 156.206C25.4166 156.352 25.4697 156.467 25.5757 156.551C25.6818 156.636 25.8475 156.706 26.0729 156.763L26.6396 156.902C26.981 156.985 27.2354 157.112 27.4028 157.282C27.5702 157.451 27.6539 157.669 27.6539 157.936C27.6539 158.155 27.5909 158.35 27.4649 158.523C27.3406 158.695 27.1666 158.831 26.9429 158.93C26.7192 159.03 26.459 159.08 26.1624 159.08C25.7729 159.08 25.4506 158.995 25.1954 158.826C24.9402 158.657 24.7786 158.41 24.7107 158.085L25.2675 157.946C25.3205 158.152 25.4208 158.306 25.5683 158.408C25.7174 158.511 25.9121 158.562 26.1524 158.562C26.4259 158.562 26.643 158.504 26.8037 158.388C26.9661 158.271 27.0473 158.13 27.0473 157.966C27.0473 157.833 27.0009 157.722 26.9081 157.633C26.8153 157.542 26.6728 157.474 26.4806 157.429L25.8442 157.28C25.4945 157.197 25.2377 157.069 25.0736 156.895C24.9112 156.719 24.83 156.499 24.83 156.236C24.83 156.02 24.8905 155.83 25.0115 155.664C25.1341 155.498 25.3006 155.368 25.5111 155.274C25.7232 155.179 25.9635 155.132 26.232 155.132C26.6098 155.132 26.9065 155.215 27.1219 155.381C27.339 155.546 27.4931 155.765 27.5843 156.037Z" fill="black" fill-opacity="0.9" style="fill:black;fill-opacity:0.9;"/>
<line x1="34" y1="156.25" x2="183" y2="156.25" stroke="black" stroke-opacity="0.15" style="stroke:black;stroke-opacity:0.15;" stroke-width="0.5"/>
<rect x="112.488" y="64" width="54.9337" height="92" fill="#4E9970" style="fill:#4E9970;fill:color(display-p3 0.3059 0.6000 0.4392);fill-opacity:1;"/>
<path opacity="0.6" d="M119.808 164.182C119.779 163.93 119.658 163.734 119.446 163.595C119.233 163.456 118.973 163.386 118.665 163.386C118.44 163.386 118.242 163.423 118.073 163.496C117.906 163.569 117.775 163.669 117.681 163.797C117.588 163.924 117.541 164.069 117.541 164.232C117.541 164.367 117.574 164.484 117.638 164.582C117.705 164.678 117.789 164.759 117.892 164.823C117.995 164.886 118.102 164.938 118.215 164.98C118.328 165.02 118.431 165.052 118.526 165.077L119.043 165.216C119.175 165.251 119.323 165.299 119.485 165.36C119.649 165.421 119.806 165.505 119.955 165.611C120.106 165.716 120.23 165.85 120.328 166.014C120.426 166.178 120.475 166.379 120.475 166.618C120.475 166.893 120.403 167.142 120.258 167.364C120.116 167.586 119.907 167.762 119.632 167.893C119.359 168.024 119.026 168.089 118.635 168.089C118.271 168.089 117.955 168.031 117.688 167.913C117.423 167.795 117.214 167.631 117.062 167.421C116.911 167.21 116.826 166.966 116.806 166.688H117.442C117.459 166.88 117.523 167.039 117.636 167.165C117.75 167.289 117.894 167.382 118.068 167.443C118.244 167.503 118.433 167.533 118.635 167.533C118.87 167.533 119.082 167.495 119.269 167.418C119.456 167.34 119.605 167.233 119.714 167.095C119.823 166.956 119.878 166.794 119.878 166.608C119.878 166.439 119.831 166.301 119.736 166.195C119.642 166.089 119.518 166.003 119.364 165.937C119.209 165.871 119.043 165.812 118.864 165.763L118.237 165.584C117.84 165.469 117.525 165.306 117.293 165.094C117.061 164.882 116.945 164.604 116.945 164.261C116.945 163.976 117.022 163.728 117.176 163.516C117.332 163.302 117.541 163.136 117.802 163.018C118.066 162.899 118.36 162.839 118.685 162.839C119.013 162.839 119.305 162.898 119.56 163.016C119.815 163.132 120.017 163.291 120.166 163.493C120.317 163.695 120.397 163.925 120.405 164.182H119.808ZM122.134 168L120.97 164.182H121.587L122.412 167.105H122.452L123.267 164.182H123.894L124.699 167.095H124.739L125.564 164.182H126.181L125.017 168H124.441L123.605 165.067H123.546L122.71 168H122.134ZM126.816 168V164.182H127.403V168H126.816ZM127.114 163.545C127 163.545 126.902 163.507 126.819 163.429C126.737 163.351 126.697 163.257 126.697 163.148C126.697 163.038 126.737 162.945 126.819 162.867C126.902 162.789 127 162.75 127.114 162.75C127.229 162.75 127.327 162.789 127.408 162.867C127.491 162.945 127.532 163.038 127.532 163.148C127.532 163.257 127.491 163.351 127.408 163.429C127.327 163.507 127.229 163.545 127.114 163.545ZM129.998 164.182V164.679H128.019V164.182H129.998ZM128.596 163.267H129.183V166.906C129.183 167.072 129.207 167.196 129.255 167.279C129.304 167.36 129.367 167.415 129.444 167.443C129.521 167.47 129.603 167.483 129.69 167.483C129.754 167.483 129.807 167.48 129.849 167.473C129.89 167.465 129.923 167.458 129.948 167.453L130.067 167.98C130.028 167.995 129.972 168.01 129.901 168.025C129.83 168.041 129.739 168.05 129.63 168.05C129.464 168.05 129.302 168.014 129.143 167.943C128.985 167.872 128.854 167.763 128.75 167.617C128.647 167.471 128.596 167.287 128.596 167.065V163.267ZM132.25 168.08C131.892 168.08 131.584 167.995 131.326 167.826C131.067 167.657 130.868 167.424 130.729 167.127C130.59 166.831 130.52 166.492 130.52 166.111C130.52 165.723 130.592 165.381 130.734 165.084C130.878 164.786 131.079 164.553 131.336 164.386C131.594 164.217 131.896 164.132 132.24 164.132C132.509 164.132 132.751 164.182 132.966 164.281C133.182 164.381 133.358 164.52 133.496 164.699C133.633 164.878 133.719 165.087 133.752 165.325H133.165C133.12 165.151 133.021 164.997 132.867 164.863C132.714 164.727 132.509 164.659 132.25 164.659C132.022 164.659 131.821 164.719 131.649 164.838C131.478 164.956 131.345 165.122 131.249 165.338C131.154 165.551 131.107 165.803 131.107 166.091C131.107 166.386 131.153 166.643 131.246 166.862C131.341 167.08 131.473 167.25 131.644 167.371C131.816 167.492 132.018 167.553 132.25 167.553C132.403 167.553 132.541 167.526 132.666 167.473C132.79 167.42 132.895 167.344 132.981 167.244C133.067 167.145 133.129 167.026 133.165 166.886H133.752C133.719 167.112 133.637 167.315 133.506 167.495C133.376 167.674 133.205 167.817 132.991 167.923C132.779 168.027 132.532 168.08 132.25 168.08ZM135.056 165.703V168H134.469V162.909H135.056V164.778H135.106C135.195 164.581 135.33 164.425 135.509 164.309C135.689 164.191 135.929 164.132 136.229 164.132C136.49 164.132 136.717 164.184 136.913 164.289C137.109 164.391 137.26 164.55 137.368 164.763C137.477 164.976 137.532 165.246 137.532 165.574V168H136.945V165.614C136.945 165.31 136.867 165.076 136.709 164.91C136.553 164.743 136.337 164.659 136.06 164.659C135.868 164.659 135.696 164.7 135.543 164.781C135.392 164.862 135.273 164.981 135.185 165.136C135.099 165.292 135.056 165.481 135.056 165.703ZM141.954 164.182V164.679H139.976V164.182H141.954ZM140.552 163.267H141.139V166.906C141.139 167.072 141.163 167.196 141.211 167.279C141.261 167.36 141.324 167.415 141.4 167.443C141.478 167.47 141.56 167.483 141.646 167.483C141.711 167.483 141.764 167.48 141.805 167.473C141.847 167.465 141.88 167.458 141.905 167.453L142.024 167.98C141.984 167.995 141.929 168.01 141.857 168.025C141.786 168.041 141.696 168.05 141.587 168.05C141.421 168.05 141.258 168.014 141.099 167.943C140.942 167.872 140.811 167.763 140.707 167.617C140.604 167.471 140.552 167.287 140.552 167.065V163.267ZM144.207 168.08C143.862 168.08 143.56 167.998 143.3 167.833C143.041 167.669 142.839 167.44 142.693 167.145C142.549 166.85 142.477 166.505 142.477 166.111C142.477 165.713 142.549 165.366 142.693 165.069C142.839 164.773 143.041 164.542 143.3 164.378C143.56 164.214 143.862 164.132 144.207 164.132C144.552 164.132 144.853 164.214 145.112 164.378C145.372 164.542 145.574 164.773 145.718 165.069C145.864 165.366 145.937 165.713 145.937 166.111C145.937 166.505 145.864 166.85 145.718 167.145C145.574 167.44 145.372 167.669 145.112 167.833C144.853 167.998 144.552 168.08 144.207 168.08ZM144.207 167.553C144.469 167.553 144.684 167.485 144.853 167.351C145.022 167.217 145.147 167.04 145.229 166.822C145.31 166.603 145.35 166.366 145.35 166.111C145.35 165.856 145.31 165.618 145.229 165.397C145.147 165.177 145.022 164.999 144.853 164.863C144.684 164.727 144.469 164.659 144.207 164.659C143.945 164.659 143.73 164.727 143.561 164.863C143.392 164.999 143.267 165.177 143.185 165.397C143.104 165.618 143.064 165.856 143.064 166.111C143.064 166.366 143.104 166.603 143.185 166.822C143.267 167.04 143.392 167.217 143.561 167.351C143.73 167.485 143.945 167.553 144.207 167.553ZM152.698 164.5H152.081C152.045 164.323 151.981 164.167 151.89 164.033C151.8 163.898 151.691 163.786 151.562 163.695C151.434 163.602 151.292 163.532 151.136 163.486C150.981 163.439 150.818 163.416 150.649 163.416C150.341 163.416 150.062 163.494 149.812 163.65C149.563 163.806 149.365 164.035 149.217 164.338C149.072 164.642 148.999 165.014 148.999 165.455C148.999 165.895 149.072 166.267 149.217 166.571C149.365 166.874 149.563 167.103 149.812 167.259C150.062 167.415 150.341 167.493 150.649 167.493C150.818 167.493 150.981 167.47 151.136 167.423C151.292 167.377 151.434 167.308 151.562 167.217C151.691 167.124 151.8 167.011 151.89 166.876C151.981 166.741 152.045 166.585 152.081 166.409H152.698C152.651 166.669 152.567 166.902 152.444 167.108C152.321 167.313 152.169 167.488 151.987 167.632C151.804 167.775 151.6 167.883 151.373 167.958C151.147 168.032 150.906 168.07 150.649 168.07C150.215 168.07 149.829 167.964 149.491 167.751C149.153 167.539 148.887 167.238 148.693 166.847C148.499 166.455 148.402 165.991 148.402 165.455C148.402 164.918 148.499 164.454 148.693 164.062C148.887 163.671 149.153 163.37 149.491 163.158C149.829 162.946 150.215 162.839 150.649 162.839C150.906 162.839 151.147 162.877 151.373 162.951C151.6 163.026 151.804 163.135 151.987 163.279C152.169 163.422 152.321 163.596 152.444 163.801C152.567 164.005 152.651 164.238 152.698 164.5ZM153.554 168V162.909H155.274C155.672 162.909 155.998 162.977 156.253 163.113C156.508 163.247 156.697 163.432 156.82 163.667C156.943 163.903 157.004 164.17 157.004 164.47C157.004 164.77 156.943 165.036 156.82 165.268C156.697 165.5 156.509 165.682 156.256 165.815C156.002 165.946 155.678 166.011 155.284 166.011H153.892V165.455H155.264C155.536 165.455 155.754 165.415 155.92 165.335C156.088 165.256 156.209 165.143 156.283 164.997C156.359 164.85 156.397 164.674 156.397 164.47C156.397 164.266 156.359 164.088 156.283 163.936C156.207 163.783 156.085 163.666 155.918 163.583C155.75 163.498 155.529 163.456 155.254 163.456H154.17V168H153.554ZM155.95 165.713L157.203 168H156.487L155.254 165.713H155.95ZM157.891 162.909H158.627L160.357 167.135H160.417L162.147 162.909H162.883V168H162.306V164.132H162.256L160.665 168H160.109L158.518 164.132H158.468V168H157.891V162.909Z" fill="black" fill-opacity="0.9" style="fill:black;fill-opacity:0.9;"/>
<rect x="41.1562" y="77" width="54.9337" height="79" fill="#4E9970" style="fill:#4E9970;fill:color(display-p3 0.3059 0.6000 0.4392);fill-opacity:1;"/>
<path opacity="0.6" d="M48.3636 164.182C48.3338 163.93 48.2128 163.734 48.0007 163.595C47.7886 163.456 47.5284 163.386 47.2202 163.386C46.9948 163.386 46.7976 163.423 46.6286 163.496C46.4612 163.569 46.3303 163.669 46.2358 163.797C46.143 163.924 46.0966 164.069 46.0966 164.232C46.0966 164.367 46.1289 164.484 46.1935 164.582C46.2598 164.678 46.3443 164.759 46.4471 164.823C46.5498 164.886 46.6576 164.938 46.7702 164.98C46.8829 165.02 46.9865 165.052 47.081 165.077L47.598 165.216C47.7306 165.251 47.8781 165.299 48.0405 165.36C48.2046 165.421 48.3612 165.505 48.5103 165.611C48.6611 165.716 48.7854 165.85 48.8832 166.014C48.9809 166.178 49.0298 166.379 49.0298 166.618C49.0298 166.893 48.9577 167.142 48.8136 167.364C48.6711 167.586 48.4622 167.762 48.1872 167.893C47.9137 168.024 47.5814 168.089 47.1903 168.089C46.8258 168.089 46.5101 168.031 46.2433 167.913C45.9781 167.795 45.7693 167.631 45.6168 167.421C45.466 167.21 45.3807 166.966 45.3608 166.688H45.9972C46.0137 166.88 46.0784 167.039 46.1911 167.165C46.3054 167.289 46.4496 167.382 46.6236 167.443C46.7992 167.503 46.9882 167.533 47.1903 167.533C47.4257 167.533 47.637 167.495 47.8242 167.418C48.0115 167.34 48.1598 167.233 48.2692 167.095C48.3786 166.956 48.4332 166.794 48.4332 166.608C48.4332 166.439 48.386 166.301 48.2916 166.195C48.1971 166.089 48.0728 166.003 47.9187 165.937C47.7646 165.871 47.598 165.812 47.419 165.763L46.7926 165.584C46.3949 165.469 46.08 165.306 45.848 165.094C45.616 164.882 45.5 164.604 45.5 164.261C45.5 163.976 45.5771 163.728 45.7312 163.516C45.887 163.302 46.0958 163.136 46.3576 163.018C46.6211 162.899 46.9153 162.839 47.2401 162.839C47.5682 162.839 47.8599 162.898 48.1151 163.016C48.3703 163.132 48.5725 163.291 48.7216 163.493C48.8724 163.695 48.9519 163.925 48.9602 164.182H48.3636ZM50.6889 168L49.5256 164.182H50.1421L50.9673 167.105H51.0071L51.8225 164.182H52.4489L53.2543 167.095H53.294L54.1193 164.182H54.7358L53.5725 168H52.9958L52.1605 165.067H52.1009L51.2656 168H50.6889ZM55.3714 168V164.182H55.958V168H55.3714ZM55.6697 163.545C55.5553 163.545 55.4567 163.507 55.3739 163.429C55.2927 163.351 55.2521 163.257 55.2521 163.148C55.2521 163.038 55.2927 162.945 55.3739 162.867C55.4567 162.789 55.5553 162.75 55.6697 162.75C55.784 162.75 55.8818 162.789 55.963 162.867C56.0459 162.945 56.0873 163.038 56.0873 163.148C56.0873 163.257 56.0459 163.351 55.963 163.429C55.8818 163.507 55.784 163.545 55.6697 163.545ZM58.553 164.182V164.679H56.5743V164.182H58.553ZM57.151 163.267H57.7377V166.906C57.7377 167.072 57.7617 167.196 57.8098 167.279C57.8595 167.36 57.9225 167.415 57.9987 167.443C58.0766 167.47 58.1586 167.483 58.2448 167.483C58.3094 167.483 58.3624 167.48 58.4039 167.473C58.4453 167.465 58.4784 167.458 58.5033 167.453L58.6226 167.98C58.5828 167.995 58.5273 168.01 58.4561 168.025C58.3848 168.041 58.2945 168.05 58.1851 168.05C58.0194 168.05 57.857 168.014 57.6979 167.943C57.5405 167.872 57.4096 167.763 57.3051 167.617C57.2024 167.471 57.151 167.287 57.151 167.065V163.267ZM60.8056 168.08C60.4476 168.08 60.1394 167.995 59.8809 167.826C59.6224 167.657 59.4235 167.424 59.2843 167.127C59.1451 166.831 59.0755 166.492 59.0755 166.111C59.0755 165.723 59.1467 165.381 59.2893 165.084C59.4334 164.786 59.634 164.553 59.8908 164.386C60.1493 164.217 60.451 164.132 60.7957 164.132C61.0641 164.132 61.3061 164.182 61.5215 164.281C61.7369 164.381 61.9134 164.52 62.051 164.699C62.1885 164.878 62.2739 165.087 62.307 165.325H61.7204C61.6756 165.151 61.5762 164.997 61.4221 164.863C61.2696 164.727 61.0641 164.659 60.8056 164.659C60.5769 164.659 60.3764 164.719 60.204 164.838C60.0333 164.956 59.8999 165.122 59.8038 165.338C59.7094 165.551 59.6621 165.803 59.6621 166.091C59.6621 166.386 59.7085 166.643 59.8013 166.862C59.8958 167.08 60.0284 167.25 60.1991 167.371C60.3714 167.492 60.5736 167.553 60.8056 167.553C60.9581 167.553 61.0964 167.526 61.2207 167.473C61.345 167.42 61.4502 167.344 61.5364 167.244C61.6226 167.145 61.6839 167.026 61.7204 166.886H62.307C62.2739 167.112 62.1918 167.315 62.0609 167.495C61.9317 167.674 61.7601 167.817 61.5464 167.923C61.3342 168.027 61.0873 168.08 60.8056 168.08ZM63.6113 165.703V168H63.0246V162.909H63.6113V164.778H63.661C63.7505 164.581 63.8847 164.425 64.0637 164.309C64.2443 164.191 64.4846 164.132 64.7846 164.132C65.0447 164.132 65.2726 164.184 65.4682 164.289C65.6637 164.391 65.8153 164.55 65.9231 164.763C66.0324 164.976 66.0871 165.246 66.0871 165.574V168H65.5005V165.614C65.5005 165.31 65.4218 165.076 65.2643 164.91C65.1085 164.743 64.8923 164.659 64.6155 164.659C64.4233 164.659 64.2509 164.7 64.0985 164.781C63.9477 164.862 63.8284 164.981 63.7405 165.136C63.6544 165.292 63.6113 165.481 63.6113 165.703ZM70.5096 164.182V164.679H68.5309V164.182H70.5096ZM69.1076 163.267H69.6943V166.906C69.6943 167.072 69.7183 167.196 69.7664 167.279C69.8161 167.36 69.8791 167.415 69.9553 167.443C70.0332 167.47 70.1152 167.483 70.2014 167.483C70.266 167.483 70.319 167.48 70.3605 167.473C70.4019 167.465 70.435 167.458 70.4599 167.453L70.5792 167.98C70.5395 167.995 70.4839 168.01 70.4127 168.025C70.3414 168.041 70.2511 168.05 70.1417 168.05C69.976 168.05 69.8136 168.014 69.6545 167.943C69.4971 167.872 69.3662 167.763 69.2618 167.617C69.159 167.471 69.1076 167.287 69.1076 167.065V163.267ZM72.7622 168.08C72.4175 168.08 72.1151 167.998 71.8549 167.833C71.5964 167.669 71.3942 167.44 71.2483 167.145C71.1042 166.85 71.0321 166.505 71.0321 166.111C71.0321 165.713 71.1042 165.366 71.2483 165.069C71.3942 164.773 71.5964 164.542 71.8549 164.378C72.1151 164.214 72.4175 164.132 72.7622 164.132C73.1069 164.132 73.4085 164.214 73.667 164.378C73.9272 164.542 74.1294 164.773 74.2736 165.069C74.4194 165.366 74.4923 165.713 74.4923 166.111C74.4923 166.505 74.4194 166.85 74.2736 167.145C74.1294 167.44 73.9272 167.669 73.667 167.833C73.4085 167.998 73.1069 168.08 72.7622 168.08ZM72.7622 167.553C73.024 167.553 73.2395 167.485 73.4085 167.351C73.5775 167.217 73.7027 167.04 73.7839 166.822C73.8651 166.603 73.9057 166.366 73.9057 166.111C73.9057 165.856 73.8651 165.618 73.7839 165.397C73.7027 165.177 73.5775 164.999 73.4085 164.863C73.2395 164.727 73.024 164.659 72.7622 164.659C72.5004 164.659 72.2849 164.727 72.1159 164.863C71.9469 164.999 71.8217 165.177 71.7405 165.397C71.6593 165.618 71.6187 165.856 71.6187 166.111C71.6187 166.366 71.6593 166.603 71.7405 166.822C71.8217 167.04 71.9469 167.217 72.1159 167.351C72.2849 167.485 72.5004 167.553 72.7622 167.553ZM81.4516 165.455C81.4516 165.991 81.3546 166.455 81.1607 166.847C80.9668 167.238 80.7009 167.539 80.3628 167.751C80.0247 167.964 79.6386 168.07 79.2044 168.07C78.7702 168.07 78.3841 167.964 78.046 167.751C77.708 167.539 77.442 167.238 77.2481 166.847C77.0542 166.455 76.9573 165.991 76.9573 165.455C76.9573 164.918 77.0542 164.454 77.2481 164.062C77.442 163.671 77.708 163.37 78.046 163.158C78.3841 162.946 78.7702 162.839 79.2044 162.839C79.6386 162.839 80.0247 162.946 80.3628 163.158C80.7009 163.37 80.9668 163.671 81.1607 164.062C81.3546 164.454 81.4516 164.918 81.4516 165.455ZM80.855 165.455C80.855 165.014 80.7812 164.642 80.6337 164.338C80.4879 164.035 80.2899 163.806 80.0396 163.65C79.7911 163.494 79.5127 163.416 79.2044 163.416C78.8962 163.416 78.6169 163.494 78.3667 163.65C78.1181 163.806 77.9201 164.035 77.7726 164.338C77.6268 164.642 77.5538 165.014 77.5538 165.455C77.5538 165.895 77.6268 166.267 77.7726 166.571C77.9201 166.874 78.1181 167.103 78.3667 167.259C78.6169 167.415 78.8962 167.493 79.2044 167.493C79.5127 167.493 79.7911 167.415 80.0396 167.259C80.2899 167.103 80.4879 166.874 80.6337 166.571C80.7812 166.267 80.855 165.895 80.855 165.455ZM82.3481 162.909H83.0839L84.8141 167.135H84.8737L86.6038 162.909H87.3396V168H86.7629V164.132H86.7132L85.1223 168H84.5655L82.9746 164.132H82.9248V168H82.3481V162.909ZM91.2198 164.182C91.1899 163.93 91.069 163.734 90.8568 163.595C90.6447 163.456 90.3845 163.386 90.0763 163.386C89.8509 163.386 89.6537 163.423 89.4847 163.496C89.3173 163.569 89.1864 163.669 89.0919 163.797C88.9991 163.924 88.9527 164.069 88.9527 164.232C88.9527 164.367 88.985 164.484 89.0497 164.582C89.116 164.678 89.2005 164.759 89.3032 164.823C89.406 164.886 89.5137 164.938 89.6264 164.98C89.7391 165.02 89.8426 165.052 89.9371 165.077L90.4541 165.216C90.5867 165.251 90.7342 165.299 90.8966 165.36C91.0607 165.421 91.2173 165.505 91.3664 165.611C91.5172 165.716 91.6415 165.85 91.7393 166.014C91.8371 166.178 91.886 166.379 91.886 166.618C91.886 166.893 91.8139 167.142 91.6697 167.364C91.5272 167.586 91.3184 167.762 91.0433 167.893C90.7698 168.024 90.4376 168.089 90.0465 168.089C89.6819 168.089 89.3662 168.031 89.0994 167.913C88.8342 167.795 88.6254 167.631 88.473 167.421C88.3222 167.21 88.2368 166.966 88.2169 166.688H88.8533C88.8699 166.88 88.9345 167.039 89.0472 167.165C89.1615 167.289 89.3057 167.382 89.4797 167.443C89.6554 167.503 89.8443 167.533 90.0465 167.533C90.2818 167.533 90.4931 167.495 90.6804 167.418C90.8676 167.34 91.0159 167.233 91.1253 167.095C91.2347 166.956 91.2894 166.794 91.2894 166.608C91.2894 166.439 91.2421 166.301 91.1477 166.195C91.0532 166.089 90.9289 166.003 90.7748 165.937C90.6207 165.871 90.4541 165.812 90.2752 165.763L89.6488 165.584C89.251 165.469 88.9362 165.306 88.7041 165.094C88.4721 164.882 88.3561 164.604 88.3561 164.261C88.3561 163.976 88.4332 163.728 88.5873 163.516C88.7431 163.302 88.9519 163.136 89.2137 163.018C89.4772 162.899 89.7714 162.839 90.0962 162.839C90.4243 162.839 90.716 162.898 90.9712 163.016C91.2264 163.132 91.4286 163.291 91.5777 163.493C91.7285 163.695 91.8081 163.925 91.8164 164.182H91.2198Z" fill="black" fill-opacity="0.9" style="fill:black;fill-opacity:0.9;"/>
</svg>
